{
.appVersion = "1192";
copyright = "Copyright 2011 The Londrina Outline Authors (https://github.com/marcelommp/Londrina-Typeface), with Reserved Font Name \"Londrina Outline\"";
customParameters = (
{
name = description;
value = "";
},
{
name = licenseURL;
value = "http://scripts.sil.org/OFL";
},
{
name = license;
value = "This Font Software is licensed under the SIL Open Font License, Version 1.1. This license is available with a FAQ at: http://scripts.sil.org/OFL";
},
{
name = vendorID;
value = PYRS;
},
{
name = panose;
value = (
0,
0,
5,
0,
0,
0,
0,
0,
0,
0
);
},
{
name = unicodeRanges;
value = (
0,
1
);
},
{
name = codePageRanges;
value = (
1252
);
},
{
name = blueScale;
value = 0.037;
},
{
name = glyphOrder;
value = (
.notdef,
A,
Aacute,
Acircumflex,
Adieresis,
Agrave,
Aring,
Atilde,
AE,
B,
C,
Ccedilla,
D,
Eth,
E,
Eacute,
Ecircumflex,
Edieresis,
Egrave,
F,
G,
H,
I,
Iacute,
Icircumflex,
Idieresis,
Igrave,
J,
K,
L,
M,
N,
Ntilde,
O,
Oacute,
Ocircumflex,
Odieresis,
Ograve,
Oslash,
Otilde,
OE,
P,
Thorn,
Q,
R,
S,
Scaron,
T,
U,
Uacute,
Ucircumflex,
Udieresis,
Ugrave,
V,
W,
X,
Y,
Yacute,
Ydieresis,
Z,
Zcaron,
a,
aacute,
acircumflex,
adieresis,
agrave,
aring,
atilde,
ae,
b,
c,
ccedilla,
d,
eth,
e,
eacute,
ecircumflex,
edieresis,
egrave,
f,
g,
h,
i,
iacute,
icircumflex,
idieresis,
igrave,
ij,
j,
k,
l,
m,
n,
ntilde,
o,
oacute,
ocircumflex,
odieresis,
ograve,
oslash,
otilde,
oe,
p,
thorn,
q,
r,
s,
scaron,
germandbls,
t,
u,
uacute,
ucircumflex,
udieresis,
ugrave,
v,
w,
x,
y,
yacute,
ydieresis,
z,
zcaron,
f_f,
f_f_i,
f_f_l,
fi,
fl,
ordfeminine,
ordmasculine,
zero,
one,
two,
three,
four,
five,
six,
seven,
eight,
nine,
uni00B9,
uni00B2,
uni00B3,
onehalf,
onequarter,
threequarters,
oneeighth,
threeeighths,
fiveeighths,
seveneighths,
asterisk,
backslash,
periodcentered,
bullet,
colon,
comma,
ellipsis,
exclam,
exclamdown,
numbersign,
period,
question,
questiondown,
quotedbl,
quotesingle,
semicolon,
slash,
underscore,
braceleft,
braceright,
bracketleft,
bracketright,
parenleft,

glyphs = (
{
glyphname = A;
layers = (
{
hints = (
{
horizontal = 1;
place = "{-10, 10}";
type = Stem;
},
{
horizontal = 1;
place = "{163, 10}";
type = Stem;
},
{
horizontal = 1;
place = "{280, 9}";
type = Stem;
},
{
horizontal = 1;
place = "{695, 15}";
type = Stem;
},
{
place = "{181, 10}";
type = Stem;
},
{
place = "{276.11, 7.79}";
type = Stem;
},
{
horizontal = 1;
place = "{-2, 21}";
target = up;
type = BottomGhost;
},
{
place = "{2, 8}";
type = Stem;
},
{
horizontal = 1;
place = "{-6, 9}";
type = Stem;
},
{
horizontal = 1;
place = "{488, 12}";
type = Stem;
},
{
place = "{254, 11}";
type = Stem;
}
);
layerId = "C15651A9-B5F1-4E52-8FDA-4ECDAD7E1480";
paths = (
{
closed = 1;
nodes = (
"442 3 LINE",
"398 206 OFFCURVE",
"354 411 OFFCURVE",
"307 614 CURVE SMOOTH",
"301 637 OFFCURVE",
"292 696 OFFCURVE",
"280 710 CURVE",
"254 707 OFFCURVE",
"172 710 OFFCURVE",
"162 705 CURVE",
"157 705 LINE",
"155 704 OFFCURVE",
"154 702 OFFCURVE",
"152 701 CURVE",
"87 496 OFFCURVE",
"43 281 OFFCURVE",
"10 70 CURVE SMOOTH",
"6 48 OFFCURVE",
"5 24 OFFCURVE",
"-1 3 CURVE",
"1 -2 LINE",
"2 -3 LINE",
"50 -3 OFFCURVE",
"102 -6 OFFCURVE",
"139 -6 CURVE",
"148 -5 LINE",
"147 -5 LINE",
"148 -4 OFFCURVE",
"150 -4 OFFCURVE",
"151 -3 CURVE",
"153 -2 LINE",
"184 45 OFFCURVE",
"174 112 OFFCURVE",
"196 163 CURVE",
"198 163 OFFCURVE",
"203 162 OFFCURVE",
"208 162 CURVE SMOOTH",
"212 162 OFFCURVE",
"216 163 OFFCURVE",
"218 164 CURVE",
"229 164 OFFCURVE",
"241 162 OFFCURVE",
"252 162 CURVE",
"277 113 OFFCURVE",
"277 53 OFFCURVE",
"298 2 CURVE",
"308 -9 OFFCURVE",
"370 -10 OFFCURVE",
"382 -10 CURVE SMOOTH",
"398 -10 OFFCURVE",
"437 -10 OFFCURVE",
"442 0 CURVE"
);
},
{
closed = 1;
nodes = (
"372 0 OFFCURVE",
"362 1 OFFCURVE",
"352 2 CURVE SMOOTH",
"337 4 OFFCURVE",
"321 8 OFFCURVE",
"305 9 CURVE",
"286 61 OFFCURVE",
"284 119 OFFCURVE",
"260 169 CURVE",
"253 172 OFFCURVE",
"237 175 OFFCURVE",
"226 175 CURVE SMOOTH",
"221 175 OFFCURVE",
"217 175 OFFCURVE",
"214 173 CURVE",
"193 173 LINE",
"191 172 OFFCURVE",
"190 171 OFFCURVE",
"189 170 CURVE",
"167 120 OFFCURVE",
"173 49 OFFCURVE",
"145 5 CURVE",
"135 3 OFFCURVE",
"120 3 OFFCURVE",
"104 3 CURVE SMOOTH",
"71 3 OFFCURVE",
"32 5 OFFCURVE",
"10 6 CURVE",
"15 25 OFFCURVE",
"17 47 OFFCURVE",
"20 67 CURVE SMOOTH",
"51 274 OFFCURVE",
"97 491 OFFCURVE",
"161 695 CURVE",
"199 695 OFFCURVE",
"238 696 OFFCURVE",
"276 700 CURVE",
"280 670 OFFCURVE",
"291 640 OFFCURVE",
"297 611 CURVE SMOOTH",
"341 408 OFFCURVE",
"387 206 OFFCURVE",
"431 4 CURVE",
"415 1 OFFCURVE",
"398 0 OFFCURVE",
"383 0 CURVE SMOOTH"
);
},
{
closed = 1;
nodes = (
"265 286 LINE",
"257 353 OFFCURVE",
"254 465 OFFCURVE",
"224 500 CURVE",
"220 500 LINE SMOOTH",
"201 500 OFFCURVE",
"187 354 OFFCURVE",
"181 287 CURVE",
"187 281 OFFCURVE",
"193 280 OFFCURVE",
"200 280 CURVE SMOOTH",
"219 280 OFFCURVE",
"239 281 OFFCURVE",
"260 281 CURVE"
);
},
{
closed = 1;
nodes = (
"204 289 OFFCURVE",
"197 289 OFFCURVE",
"191 290 CURVE",
"198 355 OFFCURVE",
"201 425 OFFCURVE",
"222 488 CURVE",
"230 478 OFFCURVE",
"231 454 OFFCURVE",
"233 445 CURVE",
"242 394 OFFCURVE",
"248 343 OFFCURVE",
"254 291 CURVE",
"239 290 OFFCURVE",
"225 289 OFFCURVE",
"210 289 CURVE SMOOTH"
);
}
);
width = 434;
}
);
leftKerningGroup = A;
note = A;
rightKerningGroup = A;
unicode = 0041;
},
{
glyphname = Aacute;
layers = (
{
hints = (
{
horizontal = 1;
place = "{-6, 9}";
type = Stem;
},
{
horizontal = 1;
place = "{162, 13}";
type = Stem;
},
{
horizontal = 1;
place = "{280, 9}";
type = Stem;
},
{
horizontal = 1;
place = "{695, 15}";
type = Stem;
},
{
horizontal = 1;
place = "{741, 9}";
type = Stem;
},
{
place = "{-1, 10}";
type = Stem;
},
{
place = "{129, 13}";
type = Stem;
},
{
place = "{181, 10}";
type = Stem;
},
{
place = "{276.11, 7.79}";
type = Stem;
},
{
place = "{361, 11}";
type = Stem;
},
{
horizontal = 1;
place = "{-10, 10}";
type = Stem;
},
{
horizontal = 1;
place = "{-3, 9}";
type = Stem;
},
{
horizontal = 1;
place = "{488, 12}";
type = Stem;
},
{
place = "{254, 11}";
type = Stem;
}
);
layerId = "C15651A9-B5F1-4E52-8FDA-4ECDAD7E1480";
paths = (
{
closed = 1;
nodes = (
"372 850 LINE",
"349 873 OFFCURVE",
"323 907 OFFCURVE",
"296 921 CURVE",
"235 871 OFFCURVE",
"188 808 OFFCURVE",
"129 758 CURVE",
"129 750 LINE",
"135 744 OFFCURVE",
"174 741 OFFCURVE",
"209 741 CURVE SMOOTH",
"246 741 OFFCURVE",
"266 743 OFFCURVE",
"271 748 CURVE",
"283 774 OFFCURVE",
"347 819 OFFCURVE",
"372 844 CURVE"
);
},
{
closed = 1;
nodes = (
"333 820 OFFCURVE",
"275 779 OFFCURVE",
"262 754 CURVE",
"247 751 OFFCURVE",
"231 750 OFFCURVE",
"214 750 CURVE SMOOTH",
"189 750 OFFCURVE",
"164 752 OFFCURVE",
"142 756 CURVE",
"196 806 OFFCURVE",
"242 864 OFFCURVE",
"299 910 CURVE",
"319 889 OFFCURVE",
"340 868 OFFCURVE",
"361 847 CURVE"
);
},
{
closed = 1;
nodes = (
"442 3 LINE",
"367 353 LINE SMOOTH",
"345 452 OFFCURVE",
"319 550 OFFCURVE",
"299 650 CURVE SMOOTH",
"296 666 OFFCURVE",
"289 700 OFFCURVE",
"280 710 CURVE",
"254 707 OFFCURVE",
"172 710 OFFCURVE",
"162 705 CURVE",
"157 705 LINE",
"155 704 OFFCURVE",
"154 702 OFFCURVE",
"152 701 CURVE",
"86 489 OFFCURVE",
"49 272 OFFCURVE",
"8 55 CURVE SMOOTH",
"5 38 OFFCURVE",
"-1 20 OFFCURVE",
"-1 3 CURVE",
"1 -2 LINE",
"2 -3 LINE",
"50 -3 OFFCURVE",
"102 -6 OFFCURVE",
"139 -6 CURVE",
"148 -5 LINE",
"147 -5 LINE",
"148 -4 OFFCURVE",
"150 -4 OFFCURVE",
"151 -3 CURVE",
"153 -2 LINE",
"184 45 OFFCURVE",
"174 112 OFFCURVE",
"196 163 CURVE",
"198 163 OFFCURVE",
"203 162 OFFCURVE",
"208 162 CURVE SMOOTH",
"223 162 OFFCURVE",
"237 165 OFFCURVE",
"252 162 CURVE",
"277 113 OFFCURVE",
"277 53 OFFCURVE",
"298 2 CURVE",
"308 -9 OFFCURVE",
"370 -10 OFFCURVE",
"382 -10 CURVE SMOOTH",
"398 -10 OFFCURVE",
"437 -10 OFFCURVE",
"442 0 CURVE"
);
},
{
closed = 1;
nodes = (
"372 0 OFFCURVE",
"362 1 OFFCURVE",
"352 2 CURVE SMOOTH",
"337 4 OFFCURVE",
"321 8 OFFCURVE",
"305 9 CURVE",
"286 61 OFFCURVE",
"284 119 OFFCURVE",
"260 169 CURVE",
"253 172 OFFCURVE",
"237 175 OFFCURVE",
"226 175 CURVE",
"193 173 LINE",
"191 172 OFFCURVE",
"190 171 OFFCURVE",
"189 170 CURVE",
"167 120 OFFCURVE",
"173 49 OFFCURVE",
"145 5 CURVE",
"134 3 OFFCURVE",
"119 3 OFFCURVE",
"103 3 CURVE SMOOTH",
"70 3 OFFCURVE",
"30 5 OFFCURVE",
"9 6 CURVE",
"9 21 OFFCURVE",
"15 37 OFFCURVE",
"18 52 CURVE SMOOTH",
"59 270 OFFCURVE",
"95 484 OFFCURVE",
"161 695 CURVE",
"199 695 OFFCURVE",
"238 696 OFFCURVE",
"276 700 CURVE",
"278 682 OFFCURVE",
"285 665 OFFCURVE",
"289 647 CURVE SMOOTH",
"333 432 OFFCURVE",
"385 218 OFFCURVE",
"431 4 CURVE",
"415 1 OFFCURVE",
"398 0 OFFCURVE",
"383 0 CURVE SMOOTH"
);
},
{
closed = 1;
nodes = (
"265 286 LINE",
"257 353 OFFCURVE",
"254 465 OFFCURVE",
"224 500 CURVE",
"220 500 LINE SMOOTH",
"201 500 OFFCURVE",
"187 354 OFFCURVE",
"181 287 CURVE",
"187 281 OFFCURVE",
"193 280 OFFCURVE",
"200 280 CURVE SMOOTH",
"219 280 OFFCURVE",
"239 281 OFFCURVE",
"260 281 CURVE"
);
},
{
closed = 1;
nodes = (
"204 289 OFFCURVE",
"197 289 OFFCURVE",
"191 290 CURVE",
"198 355 OFFCURVE",
"201 425 OFFCURVE",
"222 488 CURVE",
"230 478 OFFCURVE",
"231 454 OFFCURVE",
"233 445 CURVE",
"242 394 OFFCURVE",
"248 343 OFFCURVE",
"254 291 CURVE",
"239 290 OFFCURVE",
"225 289 OFFCURVE",
"210 289 CURVE SMOOTH"
);
}
);
width = 434;
}
);
leftKerningGroup = A;
note = Aacute;
rightKerningGroup = A;
unicode = 00C1;
},
{
glyphname = Acircumflex;
layers = (
{
hints = (
{
horizontal = 1;
place = "{-6, 9}";
type = Stem;
},
{
horizontal = 1;
place = "{162, 13}";
type = Stem;
},
{
horizontal = 1;
place = "{280, 9}";
type = Stem;
},
{
horizontal = 1;
place = "{695, 15}";
type = Stem;
},
{
horizontal = 1;
place = "{744, 11}";
type = Stem;
},
{
horizontal = 1;
place = "{794, 10}";
type = Stem;
},
{
horizontal = 1;
place = "{911, 10}";
type = Stem;
},
{
place = "{181, 10}";
type = Stem;
},
{
place = "{276.11, 7.79}";
type = Stem;
},
{
horizontal = 1;
place = "{-10, 10}";
type = Stem;
},
{
horizontal = 1;
place = "{-2, 21}";
target = up;
type = BottomGhost;
},
{
place = "{2, 8}";
type = Stem;
},
{
horizontal = 1;
place = "{488, 12}";
type = Stem;
},
{
place = "{254, 11}";
type = Stem;
}
);
layerId = "C15651A9-B5F1-4E52-8FDA-4ECDAD7E1480";
paths = (
{
closed = 1;
nodes = (
"388 759 LINE",
"225 921 LINE",
"222 921 OFFCURVE",
"220 921 OFFCURVE",
"218 922 CURVE",
"161 869 OFFCURVE",
"103 820 OFFCURVE",
"56 759 CURVE",
"59 750 LINE",
"81 746 OFFCURVE",
"110 744 OFFCURVE",
"131 744 CURVE SMOOTH",
"189 744 OFFCURVE",
"178 765 OFFCURVE",
"218 794 CURVE",
"226 786 LINE",
"239 760 OFFCURVE",
"259 742 OFFCURVE",
"304 742 CURVE SMOOTH",
"345 742 OFFCURVE",
"358 751 OFFCURVE",
"384 751 CURVE"
);
},
{
closed = 1;
nodes = (
"357 759 OFFCURVE",
"343 755 OFFCURVE",
"329 754 CURVE",
"309 754 OFFCURVE",
"289 755 OFFCURVE",
"269 756 CURVE",
"260 762 LINE",
"247 775 OFFCURVE",
"236 794 OFFCURVE",
"221 804 CURVE",
"215 804 LINE",
"185 784 OFFCURVE",
"190 755 OFFCURVE",
"137 755 CURVE SMOOTH",
"110 755 OFFCURVE",
"76 758 OFFCURVE",
"68 759 CURVE",
"113 816 OFFCURVE",
"168 861 OFFCURVE",
"221 911 CURVE",
"271 861 OFFCURVE",
"321 810 OFFCURVE",
"372 760 CURVE"
);
},
{
closed = 1;
nodes = (
"442 3 LINE",
"398 206 OFFCURVE",
"354 411 OFFCURVE",
"307 614 CURVE SMOOTH",
"301 637 OFFCURVE",
"292 696 OFFCURVE",
"280 710 CURVE",
"254 707 OFFCURVE",
"172 710 OFFCURVE",
"162 705 CURVE",
"157 705 LINE",
"155 704 OFFCURVE",
"154 702 OFFCURVE",
"152 701 CURVE",
"87 496 OFFCURVE",
"43 281 OFFCURVE",
"10 70 CURVE SMOOTH",
"6 48 OFFCURVE",
"5 24 OFFCURVE",
"-1 3 CURVE",
"1 -2 LINE",
"2 -3 LINE",
"50 -3 OFFCURVE",
"102 -6 OFFCURVE",
"139 -6 CURVE",
"148 -5 LINE",
"147 -5 LINE",
"148 -4 OFFCURVE",
"150 -4 OFFCURVE",
"151 -3 CURVE",
"153 -2 LINE",
"184 45 OFFCURVE",
"174 112 OFFCURVE",
"196 163 CURVE",
"198 163 OFFCURVE",
"203 162 OFFCURVE",
"208 162 CURVE SMOOTH",
"223 162 OFFCURVE",
"237 165 OFFCURVE",
"252 162 CURVE",
"277 113 OFFCURVE",
"277 53 OFFCURVE",
"298 2 CURVE",
"308 -9 OFFCURVE",
"370 -10 OFFCURVE",
"382 -10 CURVE SMOOTH",
"398 -10 OFFCURVE",
"437 -10 OFFCURVE",
"442 0 CURVE"
);
},
{
closed = 1;
nodes = (
"372 0 OFFCURVE",
"362 1 OFFCURVE",
"352 2 CURVE SMOOTH",
"337 4 OFFCURVE",
"321 8 OFFCURVE",
"305 9 CURVE",
"286 61 OFFCURVE",
"284 119 OFFCURVE",
"260 169 CURVE",
"253 172 OFFCURVE",
"237 175 OFFCURVE",
"226 175 CURVE",
"193 173 LINE",
"191 172 OFFCURVE",
"190 171 OFFCURVE",
"189 170 CURVE",
"167 120 OFFCURVE",
"173 49 OFFCURVE",
"145 5 CURVE",
"135 3 OFFCURVE",
"120 3 OFFCURVE",
"104 3 CURVE SMOOTH",
"71 3 OFFCURVE",
"32 5 OFFCURVE",
"10 6 CURVE",
"15 25 OFFCURVE",
"17 47 OFFCURVE",
"20 67 CURVE SMOOTH",
"51 274 OFFCURVE",
"97 491 OFFCURVE",
"161 695 CURVE",
"199 695 OFFCURVE",
"238 696 OFFCURVE",
"276 700 CURVE",
"280 670 OFFCURVE",
"291 640 OFFCURVE",
"297 611 CURVE SMOOTH",
"341 408 OFFCURVE",
"387 206 OFFCURVE",
"431 4 CURVE",
"415 1 OFFCURVE",
"398 0 OFFCURVE",
"383 0 CURVE SMOOTH"
);
},
{
closed = 1;
nodes = (
"265 286 LINE",
"257 353 OFFCURVE",
"254 465 OFFCURVE",
"224 500 CURVE",
"220 500 LINE SMOOTH",
"201 500 OFFCURVE",
"187 354 OFFCURVE",
"181 287 CURVE",
"187 281 OFFCURVE",
"193 280 OFFCURVE",
"200 280 CURVE SMOOTH",
"219 280 OFFCURVE",
"239 281 OFFCURVE",
"260 281 CURVE"
);
},
{
closed = 1;
nodes = (
"204 289 OFFCURVE",
"197 289 OFFCURVE",
"191 290 CURVE",
"198 355 OFFCURVE",
"201 425 OFFCURVE",
"222 488 CURVE",
"230 478 OFFCURVE",
"231 454 OFFCURVE",
"233 445 CURVE",
"242 394 OFFCURVE",
"248 343 OFFCURVE",
"254 291 CURVE",
"239 290 OFFCURVE",
"225 289 OFFCURVE",
"210 289 CURVE SMOOTH"
);
}
);
width = 434;
}
);
leftKerningGroup = A;
note = Acircumflex;
rightKerningGroup = A;
unicode = 00C2;
},
{
glyphname = Adieresis;
layers = (
{
hints = (
{
horizontal = 1;
place = "{-6, 9}";
type = Stem;
},
{
horizontal = 1;
place = "{163, 10}";
type = Stem;
},
{
horizontal = 1;
place = "{280, 9}";
type = Stem;
},
{
horizontal = 1;
place = "{695, 15}";
type = Stem;
},
{
horizontal = 1;
place = "{754, 9}";
type = Stem;
},
{
horizontal = 1;
place = "{864, 10}";
type = Stem;
},
{
place = "{58, 10}";
type = Stem;
},
{
place = "{166, 16}";
type = Stem;
},
{
place = "{232, 10}";
type = Stem;
},
{
place = "{276.11, 7.79}";
type = Stem;
},
{
place = "{340, 16}";
type = Stem;
},
{
horizontal = 1;
place = "{-10, 10}";
type = Stem;
},
{
horizontal = 1;
place = "{-2, 21}";
target = up;
type = BottomGhost;
},
{
place = "{2, 8}";
type = Stem;
},
{
horizontal = 1;
place = "{488, 12}";
type = Stem;
},
{
place = "{181, 10}";
type = Stem;
},
{
place = "{254, 11}";
type = Stem;
}
);
layerId = "C15651A9-B5F1-4E52-8FDA-4ECDAD7E1480";
paths = (
{
closed = 1;
nodes = (
"72 754 LINE SMOOTH",
"105 754 OFFCURVE",
"138 753 OFFCURVE",
"171 753 CURVE",
"183 778 OFFCURVE",
"176 828 OFFCURVE",
"182 859 CURVE",
"176 871 OFFCURVE",
"150 874 OFFCURVE",
"124 874 CURVE SMOOTH",
"101 874 OFFCURVE",
"78 870 OFFCURVE",
"66 865 CURVE",
"63 859 LINE",
"63 840 OFFCURVE",
"58 815 OFFCURVE",
"58 792 CURVE SMOOTH",
"58 778 OFFCURVE",
"59 759 OFFCURVE",
"69 754 CURVE"
);
},
{
closed = 1;
nodes = (
"246 754 LINE SMOOTH",
"279 754 OFFCURVE",
"312 753 OFFCURVE",
"345 753 CURVE",
"357 778 OFFCURVE",
"350 828 OFFCURVE",
"356 859 CURVE",
"350 871 OFFCURVE",
"324 874 OFFCURVE",
"298 874 CURVE SMOOTH",
"275 874 OFFCURVE",
"252 870 OFFCURVE",
"240 865 CURVE",
"237 859 LINE",
"237 840 OFFCURVE",
"232 815 OFFCURVE",
"232 792 CURVE SMOOTH",
"232 778 OFFCURVE",
"233 759 OFFCURVE",
"243 754 CURVE"
);
},
{
closed = 1;
nodes = (
"134 763 OFFCURVE",
"103 764 OFFCURVE",
"72 764 CURVE",
"69 771 OFFCURVE",
"68 780 OFFCURVE",
"68 790 CURVE SMOOTH",
"68 812 OFFCURVE",
"73 838 OFFCURVE",
"73 857 CURVE",
"89 860 OFFCURVE",
"112 864 OFFCURVE",
"133 864 CURVE SMOOTH",
"147 864 OFFCURVE",
"160 862 OFFCURVE",
"171 858 CURVE",
"166 827 OFFCURVE",
"166 793 OFFCURVE",
"166 763 CURVE"
);
},
{
closed = 1;
nodes = (
"308 763 OFFCURVE",
"277 764 OFFCURVE",
"246 764 CURVE",
"243 771 OFFCURVE",
"242 780 OFFCURVE",
"242 790 CURVE SMOOTH",
"242 812 OFFCURVE",
"247 838 OFFCURVE",
"247 857 CURVE",
"263 860 OFFCURVE",
"286 864 OFFCURVE",
"307 864 CURVE SMOOTH",
"321 864 OFFCURVE",
"334 862 OFFCURVE",
"345 858 CURVE",
"340 827 OFFCURVE",
"340 793 OFFCURVE",
"340 763 CURVE"
);
},
{
closed = 1;
nodes = (
"442 3 LINE",
"398 206 OFFCURVE",
"354 411 OFFCURVE",
"307 614 CURVE SMOOTH",
"301 637 OFFCURVE",
"292 696 OFFCURVE",
"280 710 CURVE",
"254 707 OFFCURVE",
"172 710 OFFCURVE",
"162 705 CURVE",
"157 705 LINE",
"155 704 OFFCURVE",
"154 702 OFFCURVE",
"152 701 CURVE",
"87 496 OFFCURVE",
"43 281 OFFCURVE",
"10 70 CURVE SMOOTH",
"6 48 OFFCURVE",
"5 24 OFFCURVE",
"-1 3 CURVE",
"1 -2 LINE",
"2 -3 LINE",
"50 -3 OFFCURVE",
"102 -6 OFFCURVE",
"139 -6 CURVE",
"148 -5 LINE",
"147 -5 LINE",
"148 -4 OFFCURVE",
"150 -4 OFFCURVE",
"151 -3 CURVE",
"153 -2 LINE",
"184 45 OFFCURVE",
"174 112 OFFCURVE",
"196 163 CURVE",
"198 163 OFFCURVE",
"203 162 OFFCURVE",
"208 162 CURVE SMOOTH",
"212 162 OFFCURVE",
"216 163 OFFCURVE",
"218 164 CURVE",
"229 164 OFFCURVE",
"241 162 OFFCURVE",
"252 162 CURVE",
"277 113 OFFCURVE",
"277 53 OFFCURVE",
"298 2 CURVE",
"308 -9 OFFCURVE",
"370 -10 OFFCURVE",
"382 -10 CURVE SMOOTH",
"398 -10 OFFCURVE",
"437 -10 OFFCURVE",
"442 0 CURVE"
);
},
{
closed = 1;
nodes = (
"372 0 OFFCURVE",
"362 1 OFFCURVE",
"352 2 CURVE SMOOTH",
"337 4 OFFCURVE",
"321 8 OFFCURVE",
"305 9 CURVE",
"286 61 OFFCURVE",
"284 119 OFFCURVE",
"260 169 CURVE",
"253 172 OFFCURVE",
"237 175 OFFCURVE",
"226 175 CURVE SMOOTH",
"221 175 OFFCURVE",
"217 175 OFFCURVE",
"214 173 CURVE",
"193 173 LINE",
"191 172 OFFCURVE",
"190 171 OFFCURVE",
"189 170 CURVE",
"167 120 OFFCURVE",
"173 49 OFFCURVE",
"145 5 CURVE",
"135 3 OFFCURVE",
"120 3 OFFCURVE",
"104 3 CURVE SMOOTH",
"71 3 OFFCURVE",
"32 5 OFFCURVE",
"10 6 CURVE",
"15 25 OFFCURVE",
"17 47 OFFCURVE",
"20 67 CURVE SMOOTH",
"51 274 OFFCURVE",
"97 491 OFFCURVE",
"161 695 CURVE",
"199 695 OFFCURVE",
"238 696 OFFCURVE",
"276 700 CURVE",
"280 670 OFFCURVE",
"291 640 OFFCURVE",
"297 611 CURVE SMOOTH",
"341 408 OFFCURVE",
"387 206 OFFCURVE",
"431 4 CURVE",
"415 1 OFFCURVE",
"398 0 OFFCURVE",
"383 0 CURVE SMOOTH"
);
},
{
closed = 1;
nodes = (
"265 286 LINE",
"257 353 OFFCURVE",
"254 465 OFFCURVE",
"224 500 CURVE",
"220 500 LINE SMOOTH",
"201 500 OFFCURVE",
"187 354 OFFCURVE",
"181 287 CURVE",
"187 281 OFFCURVE",
"193 280 OFFCURVE",
"200 280 CURVE SMOOTH",
"219 280 OFFCURVE",
"239 281 OFFCURVE",
"260 281 CURVE"
);
},
{
closed = 1;
nodes = (
"204 289 OFFCURVE",
"197 289 OFFCURVE",
"191 290 CURVE",
"198 355 OFFCURVE",
"201 425 OFFCURVE",
"222 488 CURVE",
"230 478 OFFCURVE",
"231 454 OFFCURVE",
"233 445 CURVE",
"242 394 OFFCURVE",
"248 343 OFFCURVE",
"254 291 CURVE",
"239 290 OFFCURVE",
"225 289 OFFCURVE",
"210 289 CURVE SMOOTH"
);
}
);
width = 434;
}
);
leftKerningGroup = A;
note = Adieresis;
rightKerningGroup = A;
unicode = 00C4;
},
{
glyphname = Agrave;
layers = (
{
hints = (
{
horizontal = 1;
place = "{-6, 9}";
type = Stem;
},
{
horizontal = 1;
place = "{163, 8}";
type = Stem;
},
{
horizontal = 1;
place = "{280, 9}";
type = Stem;
},
{
horizontal = 1;
place = "{695, 15}";
type = Stem;
},
{
horizontal = 1;
place = "{741, 9}";
type = Stem;
},
{
place = "{-1, 10}";
type = Stem;
},
{
place = "{181, 10}";
type = Stem;
},
{
place = "{276.11, 7.79}";
type = Stem;
},
{
place = "{279, 14}";
type = Stem;
},
{
horizontal = 1;
place = "{-10, 10}";
type = Stem;
},
{
horizontal = 1;
place = "{-3, 9}";
type = Stem;
},
{
horizontal = 1;
place = "{488, 12}";
type = Stem;
},
{
place = "{254, 11}";
type = Stem;
}
);
layerId = "C15651A9-B5F1-4E52-8FDA-4ECDAD7E1480";
paths = (
{
closed = 1;
nodes = (
"120 921 LINE",
"97 897 OFFCURVE",
"74 874 OFFCURVE",
"51 851 CURVE",
"47 848 LINE SMOOTH",
"35 839 OFFCURVE",
"137 776 OFFCURVE",
"152 748 CURVE",
"152 742 OFFCURVE",
"182 741 OFFCURVE",
"212 741 CURVE SMOOTH",
"244 741 OFFCURVE",
"280 743 OFFCURVE",
"293 750 CURVE",
"293 758 LINE",
"277 770 OFFCURVE",
"264 786 OFFCURVE",
"251 800 CURVE SMOOTH",
"212 842 OFFCURVE",
"170 893 OFFCURVE",
"124 927 CURVE"
);
},
{
closed = 1;
nodes = (
"123 910 LINE",
"167 877 OFFCURVE",
"206 834 OFFCURVE",
"244 793 CURVE",
"255 780 OFFCURVE",
"266 767 OFFCURVE",
"279 756 CURVE",
"263 752 OFFCURVE",
"233 750 OFFCURVE",
"208 750 CURVE SMOOTH",
"186 750 OFFCURVE",
"166 752 OFFCURVE",
"159 754 CURVE",
"148 776 OFFCURVE",
"82 827 OFFCURVE",
"60 847 CURVE"
);
},
{
closed = 1;
nodes = (
"442 3 LINE",
"367 353 LINE SMOOTH",
"345 452 OFFCURVE",
"319 550 OFFCURVE",
"299 650 CURVE SMOOTH",
"296 666 OFFCURVE",
"289 700 OFFCURVE",
"280 710 CURVE",
"254 707 OFFCURVE",
"172 710 OFFCURVE",
"162 705 CURVE",
"157 705 LINE",
"155 704 OFFCURVE",
"154 702 OFFCURVE",
"152 701 CURVE",
"86 489 OFFCURVE",
"49 272 OFFCURVE",
"8 55 CURVE SMOOTH",
"5 38 OFFCURVE",
"-1 20 OFFCURVE",
"-1 3 CURVE",
"1 -2 LINE",
"2 -3 LINE",
"50 -3 OFFCURVE",
"102 -6 OFFCURVE",
"139 -6 CURVE",
"148 -5 LINE",
"147 -5 LINE",
"148 -4 OFFCURVE",
"150 -4 OFFCURVE",
"151 -3 CURVE",
"153 -2 LINE",
"184 45 OFFCURVE",
"174 112 OFFCURVE",
"196 163 CURVE",
"215 161 OFFCURVE",
"234 165 OFFCURVE",
"252 162 CURVE",
"277 113 OFFCURVE",
"277 53 OFFCURVE",
"298 2 CURVE",
"308 -9 OFFCURVE",
"370 -10 OFFCURVE",
"382 -10 CURVE SMOOTH",
"398 -10 OFFCURVE",
"437 -10 OFFCURVE",
"442 0 CURVE"
);
},
{
closed = 1;
nodes = (
"372 0 OFFCURVE",
"362 1 OFFCURVE",
"352 2 CURVE SMOOTH",
"337 4 OFFCURVE",
"321 8 OFFCURVE",
"305 9 CURVE",
"286 61 OFFCURVE",
"284 119 OFFCURVE",
"260 169 CURVE",
"193 173 LINE",
"191 172 OFFCURVE",
"190 171 OFFCURVE",
"189 170 CURVE",
"167 120 OFFCURVE",
"173 49 OFFCURVE",
"145 5 CURVE",
"134 3 OFFCURVE",
"119 3 OFFCURVE",
"103 3 CURVE SMOOTH",
"70 3 OFFCURVE",
"30 5 OFFCURVE",
"9 6 CURVE",
"9 21 OFFCURVE",
"15 37 OFFCURVE",
"18 52 CURVE SMOOTH",
"59 270 OFFCURVE",
"95 484 OFFCURVE",
"161 695 CURVE",
"199 695 OFFCURVE",
"238 696 OFFCURVE",
"276 700 CURVE",
"278 682 OFFCURVE",
"285 665 OFFCURVE",
"289 647 CURVE SMOOTH",
"333 432 OFFCURVE",
"385 218 OFFCURVE",
"431 4 CURVE",
"415 1 OFFCURVE",
"398 0 OFFCURVE",
"383 0 CURVE SMOOTH"
);
},
{
closed = 1;
nodes = (
"265 286 LINE",
"257 353 OFFCURVE",
"254 465 OFFCURVE",
"224 500 CURVE",
"220 500 LINE SMOOTH",
"201 500 OFFCURVE",
"187 354 OFFCURVE",
"181 287 CURVE",
"187 281 OFFCURVE",
"193 280 OFFCURVE",
"200 280 CURVE SMOOTH",
"219 280 OFFCURVE",
"239 281 OFFCURVE",
"260 281 CURVE"
);
},
{
closed = 1;
nodes = (
"204 289 OFFCURVE",
"197 289 OFFCURVE",
"191 290 CURVE",
"198 355 OFFCURVE",
"201 425 OFFCURVE",
"222 488 CURVE",
"230 478 OFFCURVE",
"231 454 OFFCURVE",
"233 445 CURVE",
"242 394 OFFCURVE",
"248 343 OFFCURVE",
"254 291 CURVE",
"239 290 OFFCURVE",
"225 289 OFFCURVE",
"210 289 CURVE SMOOTH"
);
}
);
width = 434;
}
);
leftKerningGroup = A;
note = Agrave;
rightKerningGroup = A;
unicode = 00C0;
},
{
glyphname = Aring;
layers = (
{
hints = (
{
horizontal = 1;
place = "{-10, 10}";
type = Stem;
},
{
horizontal = 1;
place = "{695, 15}";
type = Stem;
},
{
horizontal = 1;
place = "{745, 9}";
type = Stem;
},
{
horizontal = 1;
place = "{790, 10}";
type = Stem;
},
{
horizontal = 1;
place = "{887, 10}";
type = Stem;
},
{
horizontal = 1;
place = "{931, 9}";
type = Stem;
},
{
place = "{119, 9}";
type = Stem;
},
{
place = "{164, 8}";
type = Stem;
},
{
place = "{257, 10}";
type = Stem;
},
{
place = "{301, 10}";
type = Stem;
},
{
horizontal = 1;
place = "{-2, 21}";
target = up;
type = BottomGhost;
},
{
place = "{2, 8}";
type = Stem;
},
{
horizontal = 1;
place = "{-6, 9}";
type = Stem;
},
{
horizontal = 1;
place = "{163, 10}";
type = Stem;
},
{
place = "{276.11, 7.79}";
type = Stem;
},
{
horizontal = 1;
place = "{280, 9}";
type = Stem;
},
{
horizontal = 1;
place = "{488, 12}";
type = Stem;
},
{
place = "{181, 10}";
type = Stem;
},
{
place = "{254, 11}";
type = Stem;
}
);
layerId = "C15651A9-B5F1-4E52-8FDA-4ECDAD7E1480";
paths = (
{
closed = 1;
nodes = (
"297 775 LINE",
"305 800 OFFCURVE",
"311 829 OFFCURVE",
"311 857 CURVE SMOOTH",
"311 914 OFFCURVE",
"291 940 OFFCURVE",
"220 940 CURVE SMOOTH",
"119 940 OFFCURVE",
"119 892 OFFCURVE",
"119 839 CURVE SMOOTH",
"119 777 OFFCURVE",
"127 745 OFFCURVE",
"208 745 CURVE SMOOTH",
"234 745 OFFCURVE",
"278 747 OFFCURVE",
"296 774 CURVE"
);
},
{
closed = 1;
nodes = (
"288 779 LINE",
"277 762 OFFCURVE",
"243 754 OFFCURVE",
"209 754 CURVE SMOOTH",
"149 754 OFFCURVE",
"128 767 OFFCURVE",
"128 836 CURVE SMOOTH",
"128 912 OFFCURVE",
"152 931 OFFCURVE",
"214 931 CURVE SMOOTH",
"266 931 OFFCURVE",
"301 917 OFFCURVE",
"301 866 CURVE SMOOTH",
"301 834 OFFCURVE",
"293 795 OFFCURVE",
"287 778 CURVE"
);
},
{
closed = 1;
nodes = (
"183 889 LINE",
"169 878 OFFCURVE",
"164 865 OFFCURVE",
"164 849 CURVE SMOOTH",
"164 805 OFFCURVE",
"170 790 OFFCURVE",
"222 790 CURVE SMOOTH",
"267 790 OFFCURVE",
"267 823 OFFCURVE",
"267 855 CURVE SMOOTH",
"267 884 OFFCURVE",
"240 897 OFFCURVE",
"215 897 CURVE SMOOTH",
"204 897 OFFCURVE",
"193 894 OFFCURVE",
"184 890 CURVE"
);
},
{
closed = 1;
nodes = (
"172 857 OFFCURVE",
"176 868 OFFCURVE",
"189 881 CURVE",
"196 885 OFFCURVE",
"206 887 OFFCURVE",
"215 887 CURVE SMOOTH",
"241 887 OFFCURVE",
"257 875 OFFCURVE",
"257 846 CURVE SMOOTH",
"257 820 OFFCURVE",
"255 800 OFFCURVE",
"211 800 CURVE SMOOTH",
"191 800 OFFCURVE",
"172 806 OFFCURVE",
"172 839 CURVE SMOOTH"
);
},
{
closed = 1;
nodes = (
"442 3 LINE",
"398 206 OFFCURVE",
"354 411 OFFCURVE",
"307 614 CURVE SMOOTH",
"301 637 OFFCURVE",
"292 696 OFFCURVE",
"280 710 CURVE",
"254 707 OFFCURVE",
"172 710 OFFCURVE",
"162 705 CURVE",
"157 705 LINE",
"155 704 OFFCURVE",
"154 702 OFFCURVE",
"152 701 CURVE",
"87 496 OFFCURVE",
"43 281 OFFCURVE",
"10 70 CURVE SMOOTH",
"6 48 OFFCURVE",
"5 24 OFFCURVE",
"-1 3 CURVE",
"1 -2 LINE",
"2 -3 LINE",
"50 -3 OFFCURVE",
"102 -6 OFFCURVE",
"139 -6 CURVE",
"148 -5 LINE",
"147 -5 LINE",
"148 -4 OFFCURVE",
"150 -4 OFFCURVE",
"151 -3 CURVE",
"153 -2 LINE",
"184 45 OFFCURVE",
"174 112 OFFCURVE",
"196 163 CURVE",
"198 163 OFFCURVE",
"203 162 OFFCURVE",
"208 162 CURVE SMOOTH",
"212 162 OFFCURVE",
"216 163 OFFCURVE",
"218 164 CURVE",
"229 164 OFFCURVE",
"241 162 OFFCURVE",
"252 162 CURVE",
"277 113 OFFCURVE",
"277 53 OFFCURVE",
"298 2 CURVE",
"308 -9 OFFCURVE",
"370 -10 OFFCURVE",
"382 -10 CURVE SMOOTH",
"398 -10 OFFCURVE",
"437 -10 OFFCURVE",
"442 0 CURVE"
);
},
{
closed = 1;
nodes = (
"372 0 OFFCURVE",
"362 1 OFFCURVE",
"352 2 CURVE SMOOTH",
"337 4 OFFCURVE",
"321 8 OFFCURVE",
"305 9 CURVE",
"286 61 OFFCURVE",
"284 119 OFFCURVE",
"260 169 CURVE",
"253 172 OFFCURVE",
"237 175 OFFCURVE",
"226 175 CURVE SMOOTH",
"221 175 OFFCURVE",
"217 175 OFFCURVE",
"214 173 CURVE",
"193 173 LINE",
"191 172 OFFCURVE",
"190 171 OFFCURVE",
"189 170 CURVE",
"167 120 OFFCURVE",
"173 49 OFFCURVE",
"145 5 CURVE",
"135 3 OFFCURVE",
"120 3 OFFCURVE",
"104 3 CURVE SMOOTH",
"71 3 OFFCURVE",
"32 5 OFFCURVE",
"10 6 CURVE",
"15 25 OFFCURVE",
"17 47 OFFCURVE",
"20 67 CURVE SMOOTH",
"51 274 OFFCURVE",
"97 491 OFFCURVE",
"161 695 CURVE",
"199 695 OFFCURVE",
"238 696 OFFCURVE",
"276 700 CURVE",
"280 670 OFFCURVE",
"291 640 OFFCURVE",
"297 611 CURVE SMOOTH",
"341 408 OFFCURVE",
"387 206 OFFCURVE",
"431 4 CURVE",
"415 1 OFFCURVE",
"398 0 OFFCURVE",
"383 0 CURVE SMOOTH"
);
},
{
closed = 1;
nodes = (
"265 286 LINE",
"257 353 OFFCURVE",
"254 465 OFFCURVE",
"224 500 CURVE",
"220 500 LINE SMOOTH",
"201 500 OFFCURVE",
"187 354 OFFCURVE",
"181 287 CURVE",
"187 281 OFFCURVE",
"193 280 OFFCURVE",
"200 280 CURVE SMOOTH",
"219 280 OFFCURVE",
"239 281 OFFCURVE",
"260 281 CURVE"
);
},
{
closed = 1;
nodes = (
"204 289 OFFCURVE",
"197 289 OFFCURVE",
"191 290 CURVE",
"198 355 OFFCURVE",
"201 425 OFFCURVE",
"222 488 CURVE",
"230 478 OFFCURVE",
"231 454 OFFCURVE",
"233 445 CURVE",
"242 394 OFFCURVE",
"248 343 OFFCURVE",
"254 291 CURVE",
"239 290 OFFCURVE",
"225 289 OFFCURVE",
"210 289 CURVE SMOOTH"
);
}
);
width = 434;
}
);
leftKerningGroup = A;
note = Aring;
rightKerningGroup = A;
unicode = 00C5;
},
{
glyphname = Atilde;
layers = (
{
hints = (
{
horizontal = 1;
place = "{-6, 9}";
type = Stem;
},
{
horizontal = 1;
place = "{162, 13.05}";
type = Stem;
},
{
horizontal = 1;
place = "{280, 9}";
type = Stem;
},
{
horizontal = 1;
place = "{695, 15}";
type = Stem;
},
{
horizontal = 1;
place = "{752.5, 9.5}";
type = Stem;
},
{
horizontal = 1;
place = "{817, 12}";
type = Stem;
},
{
horizontal = 1;
place = "{907, 11}";
type = Stem;
},
{
place = "{125, 10}";
type = Stem;
},
{
place = "{181, 10}";
type = Stem;
},
{
place = "{276.11, 7.79}";
type = Stem;
},
{
place = "{415, 10}";
type = Stem;
},
{
horizontal = 1;
place = "{744, 10}";
type = Stem;
},
{
horizontal = 1;
place = "{841, 10}";
type = Stem;
},
{
horizontal = 1;
place = "{916, 11}";
type = Stem;
},
{
horizontal = 1;
place = "{-10, 10}";
type = Stem;
},
{
horizontal = 1;
place = "{-2, 21}";
target = up;
type = BottomGhost;
},
{
place = "{2, 8}";
type = Stem;
},
{
horizontal = 1;
place = "{488, 12}";
type = Stem;
},
{
place = "{254, 11}";
type = Stem;
}
);
layerId = "C15651A9-B5F1-4E52-8FDA-4ECDAD7E1480";
paths = (
{
closed = 1;
nodes = (
"139 754 LINE",
"139 762 OFFCURVE",
"135 769 OFFCURVE",
"135 777 CURVE SMOOTH",
"135 805 OFFCURVE",
"159 817 OFFCURVE",
"181 817 CURVE SMOOTH",
"237 817 OFFCURVE",
"224 744 OFFCURVE",
"305 744 CURVE SMOOTH",
"389 744 OFFCURVE",
"425 822 OFFCURVE",
"425 911 CURVE",
"424 911 OFFCURVE",
"423 913 OFFCURVE",
"423 915 CURVE",
"422 916 LINE",
"420 917 OFFCURVE",
"419 917 OFFCURVE",
"418 918 CURVE",
"413 918 OFFCURVE",
"408 917 OFFCURVE",
"403 917 CURVE SMOOTH",
"394 917 OFFCURVE",
"385 918 OFFCURVE",
"375 918 CURVE SMOOTH",
"359 918 OFFCURVE",
"343 917 OFFCURVE",
"331 911 CURVE",
"325 886 OFFCURVE",
"308 856 OFFCURVE",
"281 851 CURVE",
"234 860 OFFCURVE",
"230 927 OFFCURVE",
"154 927 CURVE SMOOTH",
"75 927 OFFCURVE",
"30 829 OFFCURVE",
"12 758 CURVE",
"17 752 LINE",
"40 752 OFFCURVE",
"62 753 OFFCURVE",
"85 753 CURVE",
"100 748 OFFCURVE",
"118 752 OFFCURVE",
"134 749 CURVE"
);
},
{
closed = 1;
nodes = (
"114 762 OFFCURVE",
"102 762 OFFCURVE",
"90 762 CURVE",
"83 764 OFFCURVE",
"76 765 OFFCURVE",
"69 765 CURVE SMOOTH",
"54 765 OFFCURVE",
"38 762 OFFCURVE",
"24 762 CURVE",
"44 823 OFFCURVE",
"72 916 OFFCURVE",
"153 916 CURVE SMOOTH",
"174 916 OFFCURVE",
"197 911 OFFCURVE",
"215 897 CURVE SMOOTH",
"238 879 OFFCURVE",
"253 841 OFFCURVE",
"281 841 CURVE SMOOTH",
"295 841 OFFCURVE",
"332 864 OFFCURVE",
"340 905 CURVE",
"345 906 OFFCURVE",
"389 906 OFFCURVE",
"415 907 CURVE",
"415 824 OFFCURVE",
"380 754 OFFCURVE",
"305 754 CURVE SMOOTH",
"221 754 OFFCURVE",
"247 829 OFFCURVE",
"182 829 CURVE SMOOTH",
"150 829 OFFCURVE",
"125 804 OFFCURVE",
"125 773 CURVE SMOOTH",
"125 769 OFFCURVE",
"126 764 OFFCURVE",
"127 760 CURVE"
);
},
{
closed = 1;
nodes = (
"442 3 LINE",
"367 353 LINE SMOOTH",
"345 452 OFFCURVE",
"319 550 OFFCURVE",
"299 650 CURVE SMOOTH",
"296 666 OFFCURVE",
"289 700 OFFCURVE",
"280 710 CURVE",
"254 707 OFFCURVE",
"172 710 OFFCURVE",
"162 705 CURVE",
"157 705 LINE",
"155 704 OFFCURVE",
"154 702 OFFCURVE",
"152 701 CURVE",
"87 496 OFFCURVE",
"43 281 OFFCURVE",
"10 70 CURVE SMOOTH",
"6 48 OFFCURVE",
"5 24 OFFCURVE",
"-1 3 CURVE",
"1 -2 LINE",
"2 -3 LINE",
"50 -3 OFFCURVE",
"102 -6 OFFCURVE",
"139 -6 CURVE",
"148 -5 LINE",
"147 -5 LINE",
"148 -4 OFFCURVE",
"150 -4 OFFCURVE",
"151 -3 CURVE",
"153 -2 LINE",
"184 45 OFFCURVE",
"174 112 OFFCURVE",
"196 163 CURVE",
"198 163 OFFCURVE",
"203 162 OFFCURVE",
"208 162 CURVE SMOOTH",
"223 162 OFFCURVE",
"237 165 OFFCURVE",
"252 162 CURVE",
"277 113 OFFCURVE",
"277 53 OFFCURVE",
"298 2 CURVE",
"308 -9 OFFCURVE",
"370 -10 OFFCURVE",
"382 -10 CURVE SMOOTH",
"398 -10 OFFCURVE",
"437 -10 OFFCURVE",
"442 0 CURVE"
);
},
{
closed = 1;
nodes = (
"372 0 OFFCURVE",
"362 1 OFFCURVE",
"352 2 CURVE SMOOTH",
"337 4 OFFCURVE",
"321 8 OFFCURVE",
"305 9 CURVE",
"286 61 OFFCURVE",
"284 119 OFFCURVE",
"260 169 CURVE",
"250 173 OFFCURVE",
"227 178 OFFCURVE",
"214 173 CURVE",
"193 173 LINE",
"191 172 OFFCURVE",
"190 171 OFFCURVE",
"189 170 CURVE",
"167 120 OFFCURVE",
"173 49 OFFCURVE",
"145 5 CURVE",
"135 3 OFFCURVE",
"120 3 OFFCURVE",
"104 3 CURVE SMOOTH",
"71 3 OFFCURVE",
"32 5 OFFCURVE",
"10 6 CURVE",
"15 25 OFFCURVE",
"17 47 OFFCURVE",
"20 67 CURVE SMOOTH",
"51 274 OFFCURVE",
"97 491 OFFCURVE",
"161 695 CURVE",
"199 695 OFFCURVE",
"238 696 OFFCURVE",
"276 700 CURVE",
"278 682 OFFCURVE",
"285 665 OFFCURVE",
"289 647 CURVE SMOOTH",
"333 432 OFFCURVE",
"385 218 OFFCURVE",
"431 4 CURVE",
"415 1 OFFCURVE",
"398 0 OFFCURVE",
"383 0 CURVE SMOOTH"
);
},
{
closed = 1;
nodes = (
"265 286 LINE",
"257 353 OFFCURVE",
"254 465 OFFCURVE",
"224 500 CURVE",
"220 500 LINE SMOOTH",
"201 500 OFFCURVE",
"187 354 OFFCURVE",
"181 287 CURVE",
"187 281 OFFCURVE",
"193 280 OFFCURVE",
"200 280 CURVE SMOOTH",
"219 280 OFFCURVE",
"239 281 OFFCURVE",
"260 281 CURVE"
);
},
{
closed = 1;
nodes = (
"204 289 OFFCURVE",
"197 289 OFFCURVE",
"191 290 CURVE",
"198 355 OFFCURVE",
"201 425 OFFCURVE",
"222 488 CURVE",
"230 478 OFFCURVE",
"231 454 OFFCURVE",
"233 445 CURVE",
"242 394 OFFCURVE",
"248 343 OFFCURVE",
"254 291 CURVE",
"239 290 OFFCURVE",
"225 289 OFFCURVE",
"210 289 CURVE SMOOTH"
);
}
);
width = 434;
}
);
leftKerningGroup = A;
note = Atilde;
rightKerningGroup = A;
unicode = 00C3;
},
{
glyphname = AE;
layers = (
{
hints = (
{
horizontal = 1;
place = "{-4, 10}";
type = Stem;
},
{
horizontal = 1;
place = "{138, 8}";
type = Stem;
},
{
horizontal = 1;
place = "{269, 13}";
type = Stem;
},
{
horizontal = 1;
place = "{416, 8}";
type = Stem;
},
{
horizontal = 1;
place = "{542, 10}";
type = Stem;
},
{
horizontal = 1;
place = "{696, 10}";
type = Stem;
},
{
place = "{181, 10}";
type = Stem;
},
{
place = "{247, 10}";
type = Stem;
},
{
place = "{423, 9}";
type = Stem;
},
{
place = "{551, 10}";
type = Stem;
},
{
place = "{694, 10}";
type = Stem;
},
{
horizontal = 1;
place = "{-1, 7}";
type = Stem;
},
{
place = "{418, 10}";
type = Stem;
},
{
place = "{690, 10}";
type = Stem;
},
{
horizontal = 1;
place = "{-5, 11}";
type = Stem;
},
{
horizontal = 1;
place = "{110, 12}";
type = Stem;
},
{
horizontal = 1;
place = "{276, 15}";
type = Stem;
},
{
horizontal = 1;
place = "{406, 17}";
type = Stem;
}
);
layerId = "C15651A9-B5F1-4E52-8FDA-4ECDAD7E1480";
paths = (
{
closed = 1;
nodes = (
"704 110 OFFCURVE",
"703 130 OFFCURVE",
"703 134 CURVE SMOOTH",
"703 137 LINE",
"699 144 OFFCURVE",
"672 146 OFFCURVE",
"646 146 CURVE SMOOTH",
"593 146 OFFCURVE",
"575 145 OFFCURVE",
"538 145 CURVE SMOOTH",
"506 145 OFFCURVE",
"474 145 OFFCURVE",
"442 148 CURVE",
"435 163 OFFCURVE",
"432 184 OFFCURVE",
"432 206 CURVE SMOOTH",
"432 229 OFFCURVE",
"435 252 OFFCURVE",
"438 268 CURVE",
"447 271 OFFCURVE",
"457 268 OFFCURVE",
"467 271 CURVE",
"482 271 OFFCURVE",
"498 269 OFFCURVE",
"514 269 CURVE SMOOTH",
"527 269 OFFCURVE",
"554 270 OFFCURVE",
"559 280 CURVE",
"559 312 OFFCURVE",
"561 342 OFFCURVE",
"561 373 CURVE SMOOTH",
"561 390 OFFCURVE",
"560 409 OFFCURVE",
"553 424 CURVE",
"513 430 OFFCURVE",
"472 421 OFFCURVE",
"434 429 CURVE",
"429 441 OFFCURVE",
"428 453 OFFCURVE",
"428 466 CURVE SMOOTH",
"428 490 OFFCURVE",
"433 515 OFFCURVE",
"433 538 CURVE",
"457 541 OFFCURVE",
"481 542 OFFCURVE",
"505 542 CURVE SMOOTH",
"542 542 OFFCURVE",
"579 541 OFFCURVE",
"618 541 CURVE SMOOTH",
"647 541 OFFCURVE",
"693 542 OFFCURVE",
"700 555 CURVE",
"700 701 LINE",
"698 703 OFFCURVE",
"696 704 OFFCURVE",
"695 706 CURVE",
"515 706 OFFCURVE",
"332 708 OFFCURVE",
"153 698 CURVE",
"151 697 OFFCURVE",
"150 695 OFFCURVE",
"148 694 CURVE",
"91 464 OFFCURVE",
"31 234 OFFCURVE",
"-3 0 CURVE",
"0 -2 OFFCURVE",
"2 -3 OFFCURVE",
"4 -5 CURVE",
"51 -5 OFFCURVE",
"99 -5 OFFCURVE",
"146 -3 CURVE",
"149 -1 LINE",
"151 -1 LINE",
"157 5 OFFCURVE",
"174 88 OFFCURVE",
"184 113 CURVE",
"201 113 LINE",
"208 111 OFFCURVE",
"216 110 OFFCURVE",
"225 110 CURVE SMOOTH",
"233 110 OFFCURVE",
"240 110 OFFCURVE",
"247 111 CURVE",
"248 87 OFFCURVE",
"270 5 OFFCURVE",
"280 0 CURVE",
"330 -3 OFFCURVE",
"380 -4 OFFCURVE",
"431 -4 CURVE SMOOTH",
"517 -4 OFFCURVE",
"603 -1 OFFCURVE",
"690 -1 CURVE",
"700 9 OFFCURVE",
"704 42 OFFCURVE",
"704 86 CURVE SMOOTH"
);
},
{
closed = 1;
nodes = (
"694 66 OFFCURVE",
"692 38 OFFCURVE",
"687 9 CURVE",
"605 8 OFFCURVE",
"522 6 OFFCURVE",
"440 6 CURVE SMOOTH",
"388 6 OFFCURVE",
"336 7 OFFCURVE",
"284 10 CURVE",
"279 45 OFFCURVE",
"257 80 OFFCURVE",
"257 116 CURVE",
"251 121 OFFCURVE",
"236 122 OFFCURVE",
"223 122 CURVE SMOOTH",
"206 122 LINE",
"202 123 OFFCURVE",
"199 124 OFFCURVE",
"195 124 CURVE SMOOTH",
"189 124 OFFCURVE",
"181 124 OFFCURVE",
"177 120 CURVE",
"163 93 OFFCURVE",
"150 38 OFFCURVE",
"143 6 CURVE",
"121 7 OFFCURVE",
"84 10 OFFCURVE",
"52 10 CURVE SMOOTH",
"34 10 OFFCURVE",
"18 9 OFFCURVE",
"7 6 CURVE",
"41 237 OFFCURVE",
"100 462 OFFCURVE",
"157 688 CURVE",
"334 698 OFFCURVE",
"512 696 OFFCURVE",
"690 696 CURVE",
"690 558 LINE",
"659 552 OFFCURVE",
"628 550 OFFCURVE",
"597 550 CURVE SMOOTH",
"557 550 OFFCURVE",
"521 552 OFFCURVE",
"480 552 CURVE SMOOTH",
"458 552 OFFCURVE",
"433 551 OFFCURVE",
"423 541 CURVE",
"423 518 OFFCURVE",
"418 493 OFFCURVE",
"418 468 CURVE SMOOTH",
"418 454 OFFCURVE",
"419 426 OFFCURVE",
"431 420 CURVE",
"445 417 OFFCURVE",
"458 416 OFFCURVE",
"472 416 CURVE SMOOTH",
"486 416 OFFCURVE",
"500 417 OFFCURVE",
"514 417 CURVE SMOOTH",
"525 417 OFFCURVE",
"537 417 OFFCURVE",
"548 415 CURVE",
"550 398 OFFCURVE",
"551 382 OFFCURVE",
"551 366 CURVE SMOOTH",
"551 338 OFFCURVE",
"549 311 OFFCURVE",
"549 284 CURVE",
"551 284 OFFCURVE",
"526 281 OFFCURVE",
"520 281 CURVE SMOOTH",
"514 281 OFFCURVE",
"499 282 OFFCURVE",
"485 282 CURVE SMOOTH",
"423 282 OFFCURVE",
"428 281 OFFCURVE",
"426 237 CURVE SMOOTH",
"425 224 OFFCURVE",
"423 208 OFFCURVE",
"423 194 CURVE SMOOTH",
"423 177 OFFCURVE",
"426 144 OFFCURVE",
"439 138 CURVE",
"523 138 OFFCURVE",
"608 138 OFFCURVE",
"693 132 CURVE",
"694 120 OFFCURVE",
"694 107 OFFCURVE",
"694 95 CURVE SMOOTH"
);
},
{
closed = 1;
nodes = (
"259 289 LINE",
"251 333 OFFCURVE",
"237 380 OFFCURVE",
"223 423 CURVE",
"214 423 LINE",
"213 422 OFFCURVE",
"213 421 OFFCURVE",
"213 421 CURVE",
"213 420 LINE",
"194 376 OFFCURVE",
"181 332 OFFCURVE",
"181 285 CURVE",
"189 277 OFFCURVE",
"211 276 OFFCURVE",
"228 276 CURVE SMOOTH",
"239 276 OFFCURVE",
"249 277 OFFCURVE",
"257 283 CURVE"
);
},
{
closed = 1;
nodes = (
"197 291 OFFCURVE",
"194 291 OFFCURVE",
"191 290 CURVE",
"194 330 OFFCURVE",
"203 369 OFFCURVE",
"217 406 CURVE",
"229 368 OFFCURVE",
"242 328 OFFCURVE",
"248 289 CURVE",
"247 288 OFFCURVE",
"245 287 OFFCURVE",
"244 287 CURVE SMOOTH",
"232 287 OFFCURVE",
"215 291 OFFCURVE",
"201 291 CURVE SMOOTH"
);
}
);
width = 716;
}
);
leftKerningGroup = AE;
note = AE;
rightKerningGroup = AE;
unicode = 00C6;
},
{
glyphname = B;
layers = (
{
hints = (
{
horizontal = 1;
place = "{-11, 12}";
type = Stem;
},
{
place = "{459, 12}";
type = Stem;
},
{
horizontal = 1;
place = "{711, 11}";
type = Stem;
},
{
place = "{39, 11}";
type = Stem;
},
{
place = "{436, 8}";
type = Stem;
},
{
horizontal = 1;
place = "{-9, 16}";
type = Stem;
},
{
place = "{333, 13}";
type = Stem;
},
{
horizontal = 1;
place = "{127, 11}";
type = Stem;
},
{
horizontal = 1;
place = "{409, 14}";
type = Stem;
},
{
horizontal = 1;
place = "{565, 12}";
type = Stem;
},
{
place = "{160, 12}";
type = Stem;
},
{
place = "{313, 12}";
type = Stem;
},
{
horizontal = 1;
place = "{290, 12}";
type = Stem;
},
{
place = "{155, 12}";
type = Stem;
},
{
place = "{305, 14}";
type = Stem;
}
);
layerId = "C15651A9-B5F1-4E52-8FDA-4ECDAD7E1480";
paths = (
{
closed = 1;
nodes = (
"462 82 OFFCURVE",
"466 118 OFFCURVE",
"471 145 CURVE",
"471 160 LINE SMOOTH",
"471 259 OFFCURVE",
"441 310 OFFCURVE",
"348 353 CURVE",
"347 353 OFFCURVE",
"346 354 OFFCURVE",
"346 355 CURVE",
"349 358 OFFCURVE",
"353 359 OFFCURVE",
"357 362 CURVE",
"427 398 OFFCURVE",
"444 454 OFFCURVE",
"444 521 CURVE SMOOTH",
"444 555 OFFCURVE",
"443 593 OFFCURVE",
"422 622 CURVE SMOOTH",
"387 670 OFFCURVE",
"403 654 OFFCURVE",
"354 689 CURVE SMOOTH",
"319 714 OFFCURVE",
"269 722 OFFCURVE",
"216 722 CURVE SMOOTH",
"159 722 OFFCURVE",
"59 715 OFFCURVE",
"37 693 CURVE",
"39 627 OFFCURVE",
"39 562 OFFCURVE",
"39 497 CURVE SMOOTH",
"39 390 OFFCURVE",
"38 284 OFFCURVE",
"38 178 CURVE SMOOTH",
"38 120 OFFCURVE",
"38 61 OFFCURVE",
"40 3 CURVE",
"47 -11 OFFCURVE",
"149 -8 OFFCURVE",
"178 -9 CURVE SMOOTH",
"200 -10 OFFCURVE",
"221 -11 OFFCURVE",
"242 -11 CURVE SMOOTH",
"317 -11 OFFCURVE",
"389 1 OFFCURVE",
"444 62 CURVE SMOOTH"
);
},
{
closed = 1;
nodes = (
"459 146 LINE",
"452 113 OFFCURVE",
"453 97 OFFCURVE",
"434 69 CURVE SMOOTH",
"395 11 OFFCURVE",
"317 1 OFFCURVE",
"246 1 CURVE SMOOTH",
"187 1 OFFCURVE",
"140 6 OFFCURVE",
"86 8 CURVE",
"80 8 OFFCURVE",
"73 7 OFFCURVE",
"66 7 CURVE SMOOTH",
"61 7 OFFCURVE",
"56 8 OFFCURVE",
"52 9 CURVE",
"50 66 OFFCURVE",
"50 124 OFFCURVE",
"50 181 CURVE SMOOTH",
"50 286 OFFCURVE",
"51 391 OFFCURVE",
"51 496 CURVE SMOOTH",
"51 560 OFFCURVE",
"51 625 OFFCURVE",
"49 689 CURVE",
"100 701 OFFCURVE",
"155 711 OFFCURVE",
"210 711 CURVE SMOOTH",
"337 711 OFFCURVE",
"436 639 OFFCURVE",
"436 517 CURVE SMOOTH",
"436 487 OFFCURVE",
"429 457 OFFCURVE",
"414 431 CURVE SMOOTH",
"395 399 OFFCURVE",
"333 370 OFFCURVE",
"333 354 CURVE",
"344 332 OFFCURVE",
"379 327 OFFCURVE",
"398 313 CURVE SMOOTH",
"448 275 OFFCURVE",
"459 220 OFFCURVE",
"459 161 CURVE SMOOTH"
);
},
{
closed = 1;
nodes = (
"325 504 OFFCURVE",
"322 516 OFFCURVE",
"317 529 CURVE",
"301 561 OFFCURVE",
"257 577 OFFCURVE",
"217 577 CURVE SMOOTH",
"197 577 OFFCURVE",
"168 573 OFFCURVE",
"162 560 CURVE",
"162 553 OFFCURVE",
"163 546 OFFCURVE",
"163 538 CURVE SMOOTH",
"163 512 OFFCURVE",
"160 486 OFFCURVE",
"160 460 CURVE SMOOTH",
"160 431 OFFCURVE",
"155 409 OFFCURVE",
"193 409 CURVE SMOOTH",
"253 409 OFFCURVE",
"325 437 OFFCURVE",
"325 494 CURVE SMOOTH"
);
},
{
closed = 1;
nodes = (
"251 565 OFFCURVE",
"293 551 OFFCURVE",
"306 524 CURVE SMOOTH",
"311 513 OFFCURVE",
"313 503 OFFCURVE",
"313 493 CURVE SMOOTH",
"313 443 OFFCURVE",
"245 423 OFFCURVE",
"194 423 CURVE SMOOTH",
"165 423 OFFCURVE",
"172 439 OFFCURVE",
"172 457 CURVE SMOOTH",
"172 483 OFFCURVE",
"175 508 OFFCURVE",
"175 534 CURVE SMOOTH",
"175 542 OFFCURVE",
"174 549 OFFCURVE",
"174 557 CURVE",
"185 562 OFFCURVE",
"199 565 OFFCURVE",
"215 565 CURVE SMOOTH"
);
},
{
closed = 1;
nodes = (
"319 209 OFFCURVE",
"317 224 OFFCURVE",
"312 241 CURVE",
"287 306 OFFCURVE",
"228 302 OFFCURVE",
"167 302 CURVE",
"156 281 OFFCURVE",
"155 259 OFFCURVE",
"155 234 CURVE SMOOTH",
"155 201 OFFCURVE",
"156 156 OFFCURVE",
"170 129 CURVE",
"185 128 OFFCURVE",
"199 127 OFFCURVE",
"213 127 CURVE SMOOTH",
"272 127 OFFCURVE",
"319 139 OFFCURVE",
"319 197 CURVE SMOOTH"
);
},
{
closed = 1;
nodes = (
"227 290 OFFCURVE",
"279 294 OFFCURVE",
"300 238 CURVE",
"304 225 OFFCURVE",
"305 213 OFFCURVE",
"305 201 CURVE SMOOTH",
"305 146 OFFCURVE",
"267 138 OFFCURVE",
"227 138 CURVE SMOOTH",
"209 138 OFFCURVE",
"191 140 OFFCURVE",
"176 141 CURVE",
"172 170 OFFCURVE",
"167 202 OFFCURVE",
"167 234 CURVE SMOOTH",
"167 253 OFFCURVE",
"169 272 OFFCURVE",
"173 290 CURVE"
);
}
);
width = 480;
}
);
note = B;
rightKerningGroup = B;
unicode = 0042;
},
{
glyphname = C;
layers = (
{
hints = (
{
horizontal = 1;
place = "{-18, 10}";
type = Stem;
},
{
horizontal = 1;
place = "{146, 10}";
type = Stem;
},
{
horizontal = 1;
place = "{279, 14}";
type = Stem;
},
{
horizontal = 1;
place = "{409, 10}";
type = Stem;
},
{
horizontal = 1;
place = "{553, 11}";
type = Stem;
},
{
horizontal = 1;
place = "{722, 11}";
type = Stem;
},
{
place = "{26, 9}";
type = Stem;
},
{
place = "{189.5, 7.5}";
type = Stem;
},
{
place = "{466, 9}";
type = Stem;
},
{
place = "{173, 9}";
type = Stem;
},
{
place = "{463, 10}";
type = Stem;
}
);
layerId = "C15651A9-B5F1-4E52-8FDA-4ECDAD7E1480";
paths = (
{
closed = 1;
nodes = (
"192 528 LINE",
"193 532 OFFCURVE",
"195 535 OFFCURVE",
"197 539 CURVE",
"210 552 OFFCURVE",
"228 548 OFFCURVE",
"244 553 CURVE",
"319 553 OFFCURVE",
"296 472 OFFCURVE",
"308 424 CURVE",
"333 412 OFFCURVE",
"375 409 OFFCURVE",
"405 409 CURVE SMOOTH",
"421 409 OFFCURVE",
"454 409 OFFCURVE",
"464 419 CURVE",
"472 442 OFFCURVE",
"475 466 OFFCURVE",
"475 489 CURVE SMOOTH",
"475 618 OFFCURVE",
"363 733 OFFCURVE",
"232 733 CURVE SMOOTH",
"121 733 OFFCURVE",
"74 692 OFFCURVE",
"40 606 CURVE SMOOTH",
"33 589 OFFCURVE",
"26 571 OFFCURVE",
"26 552 CURVE SMOOTH",
"26 546 OFFCURVE",
"26 541 OFFCURVE",
"28 536 CURVE",
"28 489 OFFCURVE",
"26 442 OFFCURVE",
"26 395 CURVE SMOOTH",
"26 285 LINE SMOOTH",
"26 255 OFFCURVE",
"27 225 OFFCURVE",
"28 196 CURVE SMOOTH",
"29 139 OFFCURVE",
"26 81 OFFCURVE",
"68 37 CURVE SMOOTH",
"108 -5 OFFCURVE",
"169 -18 OFFCURVE",
"226 -18 CURVE SMOOTH",
"385 -18 OFFCURVE",
"473 85 OFFCURVE",
"473 211 CURVE SMOOTH",
"473 231 OFFCURVE",
"472 271 OFFCURVE",
"459 285 CURVE",
"440 292 OFFCURVE",
"408 293 OFFCURVE",
"394 293 CURVE SMOOTH",
"377 293 OFFCURVE",
"360 288 OFFCURVE",
"344 288 CURVE SMOOTH",
"338 288 OFFCURVE",
"331 289 OFFCURVE",
"325 291 CURVE",
"309 283 OFFCURVE",
"320 209 OFFCURVE",
"305 185 CURVE SMOOTH",
"293 166 OFFCURVE",
"272 156 OFFCURVE",
"252 156 CURVE SMOOTH",
"190 156 OFFCURVE",
"182 249 OFFCURVE",
"182 307 CURVE SMOOTH",
"182 345 OFFCURVE",
"186 383 OFFCURVE",
"186 418 CURVE SMOOTH",
"186 433 OFFCURVE",
"184 454 OFFCURVE",
"184 474 CURVE SMOOTH",
"184 493 OFFCURVE",
"186 512 OFFCURVE",
"190 525 CURVE",
"191 526 LINE",
"191 527 OFFCURVE",
"192 528 OFFCURVE",
"192 529 CURVE"
);
},
{
closed = 1;
nodes = (
"189 544 LINE",
"179 531 OFFCURVE",
"175 505 OFFCURVE",
"175 463 CURVE SMOOTH",
"175 442 OFFCURVE",
"176 423 OFFCURVE",
"176 419 CURVE",
"175 394 OFFCURVE",
"173 356 OFFCURVE",
"173 316 CURVE SMOOTH",
"173 221 OFFCURVE",
"191 146 OFFCURVE",
"256 146 CURVE SMOOTH",
"282 146 OFFCURVE",
"309 162 OFFCURVE",
"320 194 CURVE SMOOTH",
"329 222 OFFCURVE",
"322 251 OFFCURVE",
"328 280 CURVE",
"335 279 OFFCURVE",
"342 279 OFFCURVE",
"350 279 CURVE SMOOTH",
"369 279 OFFCURVE",
"389 281 OFFCURVE",
"408 281 CURVE",
"421 276 OFFCURVE",
"437 281 OFFCURVE",
"454 276 CURVE",
"460 255 OFFCURVE",
"463 232 OFFCURVE",
"463 210 CURVE SMOOTH",
"463 84 OFFCURVE",
"375 -8 OFFCURVE",
"224 -8 CURVE SMOOTH",
"171 -8 OFFCURVE",
"112 4 OFFCURVE",
"75 44 CURVE SMOOTH",
"35 86 OFFCURVE",
"39 143 OFFCURVE",
"38 197 CURVE SMOOTH",
"37 258 OFFCURVE",
"35 318 OFFCURVE",
"35 379 CURVE SMOOTH",
"35 423 OFFCURVE",
"40 427 OFFCURVE",
"40 513 CURVE SMOOTH",
"40 524 OFFCURVE",
"39 534 OFFCURVE",
"37 541 CURVE",
"37 656 OFFCURVE",
"121 722 OFFCURVE",
"221 722 CURVE SMOOTH",
"355 722 OFFCURVE",
"466 614 OFFCURVE",
"466 492 CURVE SMOOTH",
"466 470 OFFCURVE",
"462 447 OFFCURVE",
"455 425 CURVE",
"439 420 OFFCURVE",
"422 419 OFFCURVE",
"405 419 CURVE SMOOTH",
"375 419 OFFCURVE",
"345 424 OFFCURVE",
"317 429 CURVE",
"309 470 OFFCURVE",
"327 564 OFFCURVE",
"239 564 CURVE SMOOTH",
"220 564 OFFCURVE",
"202 558 OFFCURVE",
"190 546 CURVE"
);
}
);
width = 488;
}
);
leftKerningGroup = C;
note = C;
rightKerningGroup = C;
unicode = 0043;
},
{
glyphname = Ccedilla;
layers = (
{
hints = (
{
horizontal = 1;
place = "{-135, 10}";
type = Stem;
},
{
horizontal = 1;
place = "{-13, 10}";
type = Stem;
},
{
horizontal = 1;
place = "{140, 10}";
type = Stem;
},
{
horizontal = 1;
place = "{268, 7}";
type = Stem;
},
{
horizontal = 1;
place = "{395, 10}";
type = Stem;
},
{
horizontal = 1;
place = "{535, 11}";
type = Stem;
},
{
horizontal = 1;
place = "{689, 11}";
type = Stem;
},
{
place = "{28, 9}";
type = Stem;
},
{
place = "{169, 11}";
type = Stem;
},
{
place = "{311, 7}";
type = Stem;
},
{
place = "{451, 9}";
type = Stem;
},
{
place = "{146, 10}";
type = Stem;
},
{
place = "{266, 8}";
type = Stem;
},
{
horizontal = 1;
place = "{-5, 21}";
target = up;
type = BottomGhost;
}
);
layerId = "C15651A9-B5F1-4E52-8FDA-4ECDAD7E1480";
paths = (
{
closed = 1;
nodes = (
"76 700 OFFCURVE",
"33 612 OFFCURVE",
"33 525 CURVE",
"31 486 OFFCURVE",
"29 447 OFFCURVE",
"28 408 CURVE SMOOTH",
"28 258 LINE SMOOTH",
"28 149 OFFCURVE",
"30 -13 OFFCURVE",
"170 -13 CURVE",
"163 -39 OFFCURVE",
"146 -103 OFFCURVE",
"146 -126 CURVE",
"150 -134 OFFCURVE",
"153 -135 OFFCURVE",
"169 -135 CURVE SMOOTH",
"200 -135 OFFCURVE",
"240 -133 OFFCURVE",
"246 -127 CURVE",
"246 -126 LINE",
"259 -91 OFFCURVE",
"266 -51 OFFCURVE",
"274 -15 CURVE",
"391 -13 OFFCURVE",
"460 96 OFFCURVE",
"460 204 CURVE SMOOTH",
"460 224 OFFCURVE",
"460 262 OFFCURVE",
"447 275 CURVE",
"428 282 OFFCURVE",
"399 283 OFFCURVE",
"381 283 CURVE SMOOTH",
"355 283 OFFCURVE",
"328 283 OFFCURVE",
"311 275 CURVE",
"306 248 OFFCURVE",
"312 220 OFFCURVE",
"304 194 CURVE SMOOTH",
"295 165 OFFCURVE",
"273 150 OFFCURVE",
"250 150 CURVE SMOOTH",
"188 150 OFFCURVE",
"180 251 OFFCURVE",
"180 307 CURVE SMOOTH",
"180 370 OFFCURVE",
"182 392 OFFCURVE",
"183 440 CURVE SMOOTH",
"184 490 OFFCURVE",
"186 535 OFFCURVE",
"250 535 CURVE",
"260 530 OFFCURVE",
"270 529 OFFCURVE",
"279 521 CURVE",
"302 487 OFFCURVE",
"293 446 OFFCURVE",
"305 408 CURVE",
"322 399 OFFCURVE",
"371 395 OFFCURVE",
"394 395 CURVE SMOOTH",
"411 395 OFFCURVE",
"446 402 OFFCURVE",
"446 403 CURVE",
"447 403 LINE SMOOTH",
"448 403 OFFCURVE",
"448 403 OFFCURVE",
"449 404 CURVE",
"448 404 LINE",
"458 404 OFFCURVE",
"460 458 OFFCURVE",
"460 473 CURVE SMOOTH",
"460 590 OFFCURVE",
"390 694 OFFCURVE",
"245 698 CURVE SMOOTH",
"227 698 OFFCURVE",
"207 700 OFFCURVE",
"185 700 CURVE SMOOTH"
);
},
{
closed = 1;
nodes = (
"37 413 OFFCURVE",
"40 468 OFFCURVE",
"43 524 CURVE",
"43 577 OFFCURVE",
"67 662 OFFCURVE",
"125 681 CURVE SMOOTH",
"152 690 OFFCURVE",
"183 689 OFFCURVE",
"211 689 CURVE SMOOTH",
"259 689 OFFCURVE",
"315 688 OFFCURVE",
"356 661 CURVE SMOOTH",
"419 620 OFFCURVE",
"450 547 OFFCURVE",
"450 475 CURVE SMOOTH",
"450 454 OFFCURVE",
"447 432 OFFCURVE",
"442 412 CURVE",
"425 411 OFFCURVE",
"408 405 OFFCURVE",
"391 405 CURVE SMOOTH",
"365 405 OFFCURVE",
"339 414 OFFCURVE",
"313 414 CURVE",
"301 461 OFFCURVE",
"313 546 OFFCURVE",
"244 546 CURVE SMOOTH",
"174 546 OFFCURVE",
"174 483 OFFCURVE",
"173 441 CURVE SMOOTH",
"172 405 OFFCURVE",
"169 363 OFFCURVE",
"169 321 CURVE SMOOTH",
"169 231 OFFCURVE",
"180 140 OFFCURVE",
"250 140 CURVE SMOOTH",
"288 140 OFFCURVE",
"318 172 OFFCURVE",
"318 239 CURVE SMOOTH",
"318 249 OFFCURVE",
"318 259 OFFCURVE",
"320 269 CURVE",
"326 269 OFFCURVE",
"334 268 OFFCURVE",
"341 268 CURVE SMOOTH",
"348 268 OFFCURVE",
"356 269 OFFCURVE",
"362 271 CURVE",
"396 271 LINE",
"409 266 OFFCURVE",
"425 271 OFFCURVE",
"442 266 CURVE",
"448 246 OFFCURVE",
"451 225 OFFCURVE",
"451 204 CURVE SMOOTH",
"451 101 OFFCURVE",
"383 -5 OFFCURVE",
"271 -5 CURVE",
"272 -5 OFFCURVE",
"273 -6 OFFCURVE",
"274 -6 CURVE",
"271 -7 OFFCURVE",
"269 -8 OFFCURVE",
"266 -8 CURVE",
"260 -32 OFFCURVE",
"239 -95 OFFCURVE",
"236 -121 CURVE",
"215 -121 OFFCURVE",
"192 -125 OFFCURVE",
"172 -125 CURVE SMOOTH",
"167 -125 OFFCURVE",
"161 -124 OFFCURVE",
"156 -123 CURVE",
"157 -118 OFFCURVE",
"160 -95 OFFCURVE",
"164 -84 CURVE",
"170 -59 OFFCURVE",
"182 -33 OFFCURVE",
"182 -7 CURVE",
"180 -5 OFFCURVE",
"178 -4 OFFCURVE",
"177 -2 CURVE",
"171 -3 OFFCURVE",
"165 -3 OFFCURVE",
"159 -3 CURVE SMOOTH",
"38 -3 OFFCURVE",
"38 168 OFFCURVE",
"38 257 CURVE SMOOTH",
"38 290 OFFCURVE",
"37 324 OFFCURVE",
"37 357 CURVE SMOOTH"
);
}
);
width = 476;
}
);
leftKerningGroup = C;
note = Ccedilla;
rightKerningGroup = C;
unicode = 00C7;
},
{
glyphname = D;
layers = (
{
hints = (
{
horizontal = 1;
place = "{-3, 9}";
type = Stem;
},
{
horizontal = 1;
place = "{208, 13}";
type = Stem;
},
{
horizontal = 1;
place = "{485, 9}";
type = Stem;
},
{
horizontal = 1;
place = "{696, 11}";
type = Stem;
},
{
place = "{34, 10}";
type = Stem;
},
{
place = "{177, 12}";
type = Stem;
},
{
place = "{324, 10}";
type = Stem;
},
{
place = "{455, 10}";
type = Stem;
},
{
horizontal = 1;
place = "{0, 21}";
target = up;
type = BottomGhost;
},
{
horizontal = 1;
place = "{-10, 7}";
type = Stem;
},
{
place = "{51, 10}";
type = Stem;
},
{
place = "{443, 10}";
type = Stem;
}
);
layerId = "C15651A9-B5F1-4E52-8FDA-4ECDAD7E1480";
paths = (
{
closed = 1;
nodes = (
"330 721 OFFCURVE",
"264 707 OFFCURVE",
"153 707 CURVE SMOOTH",
"119 707 OFFCURVE",
"39 706 OFFCURVE",
"36 689 CURVE",
"36 690 OFFCURVE",
"36 690 OFFCURVE",
"37 690 CURVE",
"36 689 OFFCURVE",
"35 687 OFFCURVE",
"35 686 CURVE SMOOTH",
"35 657 OFFCURVE",
"36 629 OFFCURVE",
"36 600 CURVE SMOOTH",
"36 514 OFFCURVE",
"34 428 OFFCURVE",
"34 342 CURVE SMOOTH",
"34 228 OFFCURVE",
"37 114 OFFCURVE",
"51 0 CURVE",
"53 0 OFFCURVE",
"54 0 OFFCURVE",
"56 -1 CURVE",
"57 -1 LINE",
"49 -2 OFFCURVE",
"42 -2 OFFCURVE",
"35 -3 CURVE",
"58 -3 LINE",
"62 -10 LINE",
"61 -7 OFFCURVE",
"61 -5 OFFCURVE",
"61 -3 CURVE",
"104 -3 OFFCURVE",
"147 -4 OFFCURVE",
"190 -4 CURVE SMOOTH",
"234 -4 OFFCURVE",
"277 -3 OFFCURVE",
"321 0 CURVE",
"366 45 OFFCURVE",
"407 110 OFFCURVE",
"433 168 CURVE SMOOTH",
"438 179 OFFCURVE",
"451 203 OFFCURVE",
"452 217 CURVE",
"453 218 LINE",
"453 245 OFFCURVE",
"462 274 OFFCURVE",
"463 302 CURVE SMOOTH",
"464 332 OFFCURVE",
"465 358 OFFCURVE",
"465 381 CURVE SMOOTH",
"465 466 OFFCURVE",
"453 520 OFFCURVE",
"397 620 CURVE"
);
},
{
closed = 1;
nodes = (
"452 275 OFFCURVE",
"443 246 OFFCURVE",
"443 219 CURVE",
"444 219 LINE",
"443 219 OFFCURVE",
"443 218 OFFCURVE",
"442 217 CURVE",
"442 218 LINE",
"417 141 OFFCURVE",
"367 73 OFFCURVE",
"317 10 CURVE",
"277 7 OFFCURVE",
"237 6 OFFCURVE",
"197 6 CURVE SMOOTH",
"151 6 OFFCURVE",
"105 7 OFFCURVE",
"60 7 CURVE",
"47 119 OFFCURVE",
"44 232 OFFCURVE",
"44 345 CURVE SMOOTH",
"44 428 OFFCURVE",
"46 511 OFFCURVE",
"46 594 CURVE SMOOTH",
"46 624 OFFCURVE",
"45 655 OFFCURVE",
"45 685 CURVE SMOOTH",
"45 686 LINE",
"124 702 OFFCURVE",
"203 691 OFFCURVE",
"283 696 CURVE",
"327 681 OFFCURVE",
"363 653 OFFCURVE",
"389 615 CURVE",
"444 518 OFFCURVE",
"455 465 OFFCURVE",
"455 384 CURVE SMOOTH",
"455 360 OFFCURVE",
"454 334 OFFCURVE",
"453 303 CURVE SMOOTH"
);
},
{
closed = 1;
nodes = (
"218 494 OFFCURVE",
"186 493 OFFCURVE",
"177 484 CURVE",
"177 291 LINE SMOOTH",
"177 276 OFFCURVE",
"175 261 OFFCURVE",
"175 248 CURVE SMOOTH",
"175 225 OFFCURVE",
"181 208 OFFCURVE",
"214 208 CURVE SMOOTH",
"226 208 OFFCURVE",
"239 208 OFFCURVE",
"251 211 CURVE",
"252 210 OFFCURVE",
"254 210 OFFCURVE",
"255 210 CURVE SMOOTH",
"271 210 OFFCURVE",
"297 235 OFFCURVE",
"306 252 CURVE",
"305 251 LINE",
"321 278 OFFCURVE",
"334 308 OFFCURVE",
"334 340 CURVE SMOOTH",
"334 399 OFFCURVE",
"312 494 OFFCURVE",
"237 494 CURVE SMOOTH"
);
},
{
closed = 1;
nodes = (
"291 245 OFFCURVE",
"262 220 OFFCURVE",
"256 220 CURVE SMOOTH",
"255 220 LINE",
"253 221 OFFCURVE",
"251 221 OFFCURVE",
"247 221 CURVE SMOOTH",
"234 221 OFFCURVE",
"211 218 OFFCURVE",
"204 218 CURVE",
"180 224 OFFCURVE",
"185 260 OFFCURVE",
"185 283 CURVE SMOOTH",
"185 323 OFFCURVE",
"189 364 OFFCURVE",
"189 404 CURVE SMOOTH",
"189 429 OFFCURVE",
"187 454 OFFCURVE",
"187 480 CURVE",
"202 481 OFFCURVE",
"220 485 OFFCURVE",
"236 485 CURVE SMOOTH",
"295 485 OFFCURVE",
"324 403 OFFCURVE",
"324 348 CURVE SMOOTH",
"324 314 OFFCURVE",
"314 284 OFFCURVE",
"297 256 CURVE"
);
}
);
width = 482;
}
);
note = D;
rightKerningGroup = D;
unicode = 0044;
},
{
glyphname = Eth;
layers = (
{
hints = (
{
horizontal = 1;
place = "{-5, 10}";
type = Stem;
},
{
horizontal = 1;
place = "{158, 12}";
type = Stem;
},
{
horizontal = 1;
place = "{265, 12}";
type = Stem;
},
{
horizontal = 1;
place = "{404, 10}";
type = Stem;
},
{
horizontal = 1;
place = "{529, 13}";
type = Stem;
},
{
horizontal = 1;
place = "{701, 10}";
type = Stem;
},
{
place = "{-11, 10}";
type = Stem;
},
{
place = "{48, 10}";
type = Stem;
},
{
place = "{164, 10}";
type = Stem;
},
{
place = "{221, 11}";
type = Stem;
},
{
place = "{328, 10}";
type = Stem;
},
{
place = "{456, 9}";
type = Stem;
},
{
horizontal = 1;
place = "{-1, 10}";
type = Stem;
},
{
place = "{45, 12}";
type = Stem;
},
{
horizontal = 1;
place = "{272, 10.5}";
type = Stem;
},
{
horizontal = 1;
place = "{399, 12}";
type = Stem;
},
{
place = "{162, 9}";
type = Stem;
}
);
layerId = "C15651A9-B5F1-4E52-8FDA-4ECDAD7E1480";
paths = (
{
closed = 1;
nodes = (
"29 414 OFFCURVE",
"12 415 OFFCURVE",
"-5 415 CURVE",
"-10 412 OFFCURVE",
"-11 406 OFFCURVE",
"-11 400 CURVE SMOOTH",
"-11 357 OFFCURVE",
"-6 315 OFFCURVE",
"-6 273 CURVE",
"0 267 OFFCURVE",
"13 265 OFFCURVE",
"26 265 CURVE SMOOTH",
"33 265 OFFCURVE",
"41 266 OFFCURVE",
"47 266 CURVE",
"47 203 OFFCURVE",
"45 184 OFFCURVE",
"45 78 CURVE SMOOTH",
"45 40 OFFCURVE",
"47 3 OFFCURVE",
"56 -1 CURVE",
"121 -1 OFFCURVE",
"187 -5 OFFCURVE",
"253 -5 CURVE SMOOTH",
"288 -5 OFFCURVE",
"330 -1 OFFCURVE",
"359 21 CURVE SMOOTH",
"405 56 OFFCURVE",
"428 127 OFFCURVE",
"442 181 CURVE SMOOTH",
"457 239 OFFCURVE",
"465 298 OFFCURVE",
"465 356 CURVE SMOOTH",
"465 508 OFFCURVE",
"414 711 OFFCURVE",
"217 711 CURVE SMOOTH",
"160 711 OFFCURVE",
"102 699 OFFCURVE",
"51 692 CURVE",
"46 686 LINE",
"47 647 OFFCURVE",
"48 608 OFFCURVE",
"48 569 CURVE SMOOTH",
"48 517 OFFCURVE",
"47 465 OFFCURVE",
"47 414 CURVE"
);
},
{
closed = 1;
nodes = (
"57 409 LINE",
"57 461 OFFCURVE",
"58 513 OFFCURVE",
"58 565 CURVE SMOOTH",
"58 604 OFFCURVE",
"57 643 OFFCURVE",
"56 683 CURVE",
"105 689 OFFCURVE",
"163 701 OFFCURVE",
"218 701 CURVE SMOOTH",
"423 701 OFFCURVE",
"456 472 OFFCURVE",
"456 324 CURVE SMOOTH",
"456 277 OFFCURVE",
"443 229 OFFCURVE",
"432 184 CURVE SMOOTH",
"419 132 OFFCURVE",
"397 63 OFFCURVE",
"353 29 CURVE SMOOTH",
"326 8 OFFCURVE",
"285 5 OFFCURVE",
"253 5 CURVE SMOOTH",
"188 5 OFFCURVE",
"125 9 OFFCURVE",
"61 9 CURVE",
"54 96 OFFCURVE",
"57 184 OFFCURVE",
"57 271 CURVE",
"51 276 OFFCURVE",
"36 277 OFFCURVE",
"22 277 CURVE SMOOTH",
"4 277 LINE",
"4 314 OFFCURVE",
"-1 350 OFFCURVE",
"-1 387 CURVE SMOOTH",
"-1 393 OFFCURVE",
"0 399 OFFCURVE",
"0 405 CURVE",
"17 405 OFFCURVE",
"34 404 OFFCURVE",
"52 404 CURVE"
);
},
{
closed = 1;
nodes = (
"264 158 OFFCURVE",
"288 173 OFFCURVE",
"310 202 CURVE",
"330 235 OFFCURVE",
"338 282 OFFCURVE",
"338 330 CURVE SMOOTH",
"338 443 OFFCURVE",
"306 542 OFFCURVE",
"217 542 CURVE SMOOTH",
"200 542 OFFCURVE",
"182 537 OFFCURVE",
"165 529 CURVE",
"162 523 LINE",
"163 508 OFFCURVE",
"164 492 OFFCURVE",
"164 477 CURVE SMOOTH",
"164 454 OFFCURVE",
"163 430 OFFCURVE",
"163 407 CURVE",
"169 401 OFFCURVE",
"184 399 OFFCURVE",
"198 399 CURVE SMOOTH",
"206 399 OFFCURVE",
"215 400 OFFCURVE",
"222 400 CURVE",
"222 394 OFFCURVE",
"221 387 OFFCURVE",
"221 380 CURVE SMOOTH",
"221 348 OFFCURVE",
"225 315 OFFCURVE",
"225 282 CURVE",
"206 282 OFFCURVE",
"186 283 OFFCURVE",
"167 283 CURVE",
"162 277 LINE",
"162 242 OFFCURVE",
"164 206 OFFCURVE",
"164 172 CURVE",
"169 162 OFFCURVE",
"176 158 OFFCURVE",
"202 158 CURVE SMOOTH"
);
},
{
closed = 1;
nodes = (
"328 284 OFFCURVE",
"320 238 OFFCURVE",
"302 207 CURVE",
"278 174 OFFCURVE",
"246 170 OFFCURVE",
"212 170 CURVE SMOOTH",
"200 170 OFFCURVE",
"187 172 OFFCURVE",
"175 172 CURVE",
"174 173 LINE",
"172 187 OFFCURVE",
"171 203 OFFCURVE",
"171 218 CURVE SMOOTH",
"171 236 OFFCURVE",
"172 255 OFFCURVE",
"172 273 CURVE",
"191 273 OFFCURVE",
"210 272 OFFCURVE",
"230 272 CURVE",
"236 284 OFFCURVE",
"236 301 OFFCURVE",
"236 325 CURVE SMOOTH",
"236 344 OFFCURVE",
"235 362 OFFCURVE",
"232 371 CURVE",
"232 405 LINE",
"226 410 OFFCURVE",
"212 411 OFFCURVE",
"198 411 CURVE SMOOTH",
"173 411 LINE",
"173 433 OFFCURVE",
"174 455 OFFCURVE",
"174 477 CURVE SMOOTH",
"174 491 OFFCURVE",
"173 506 OFFCURVE",
"172 521 CURVE",
"185 526 OFFCURVE",
"202 529 OFFCURVE",
"215 529 CURVE SMOOTH",
"299 529 OFFCURVE",
"328 447 OFFCURVE",
"328 330 CURVE SMOOTH"
);
}
);
width = 482;
}
);
note = Eth;
rightKerningGroup = D;
unicode = 00D0;
},
{
glyphname = E;
layers = (
{
hints = (
{
horizontal = 1;
place = "{-6, 14}";
type = Stem;
},
{
horizontal = 1;
place = "{129, 10}";
type = Stem;
},
{
horizontal = 1;
place = "{267, 13}";
type = Stem;
},
{
horizontal = 1;
place = "{414, 8}";
type = Stem;
},
{
horizontal = 1;
place = "{538, 10}";
type = Stem;
},
{
horizontal = 1;
place = "{691, 10}";
type = Stem;
},
{
place = "{35, 10}";
type = Stem;
},
{
place = "{183, 16}";
type = Stem;
},
{
place = "{317, 10}";
type = Stem;
},
{
place = "{458, 10}";
type = Stem;
},
{
place = "{190, 9}";
type = Stem;
},
{
horizontal = 1;
place = "{-6, 10}";
type = Stem;
}
);
layerId = "C15651A9-B5F1-4E52-8FDA-4ECDAD7E1480";
paths = (
{
closed = 1;
nodes = (
"469 103 OFFCURVE",
"469 118 OFFCURVE",
"468 134 CURVE",
"468 136 LINE",
"466 138 OFFCURVE",
"464 139 OFFCURVE",
"463 141 CURVE",
"443 140 OFFCURVE",
"424 139 OFFCURVE",
"404 139 CURVE SMOOTH",
"337 139 OFFCURVE",
"270 145 OFFCURVE",
"204 146 CURVE",
"201 163 OFFCURVE",
"199 182 OFFCURVE",
"199 201 CURVE SMOOTH",
"199 222 OFFCURVE",
"201 244 OFFCURVE",
"205 264 CURVE",
"215 266 OFFCURVE",
"224 265 OFFCURVE",
"234 268 CURVE",
"248 268 OFFCURVE",
"262 267 OFFCURVE",
"276 267 CURVE SMOOTH",
"290 267 OFFCURVE",
"320 267 OFFCURVE",
"326 278 CURVE",
"325 285 OFFCURVE",
"325 293 OFFCURVE",
"325 301 CURVE SMOOTH",
"325 326 OFFCURVE",
"327 351 OFFCURVE",
"327 376 CURVE SMOOTH",
"327 392 OFFCURVE",
"325 410 OFFCURVE",
"319 423 CURVE",
"299 423 OFFCURVE",
"279 422 OFFCURVE",
"259 422 CURVE SMOOTH",
"239 422 OFFCURVE",
"218 423 OFFCURVE",
"199 426 CURVE",
"196 438 OFFCURVE",
"195 451 OFFCURVE",
"195 463 CURVE SMOOTH",
"195 487 OFFCURVE",
"198 512 OFFCURVE",
"199 535 CURVE",
"227 535 OFFCURVE",
"256 538 OFFCURVE",
"286 538 CURVE SMOOTH",
"315 538 OFFCURVE",
"340 537 OFFCURVE",
"371 537 CURVE SMOOTH",
"404 537 OFFCURVE",
"458 538 OFFCURVE",
"465 552 CURVE",
"465 586 OFFCURVE",
"468 622 OFFCURVE",
"468 658 CURVE SMOOTH",
"468 672 OFFCURVE",
"467 687 OFFCURVE",
"461 700 CURVE",
"440 704 OFFCURVE",
"419 706 OFFCURVE",
"396 706 CURVE SMOOTH",
"362 706 OFFCURVE",
"326 702 OFFCURVE",
"293 701 CURVE SMOOTH",
"210 698 OFFCURVE",
"128 699 OFFCURVE",
"46 694 CURVE",
"44 693 OFFCURVE",
"43 691 OFFCURVE",
"41 690 CURVE",
"36 610 OFFCURVE",
"35 530 OFFCURVE",
"35 450 CURVE SMOOTH",
"35 302 OFFCURVE",
"40 154 OFFCURVE",
"40 6 CURVE",
"45 0 LINE",
"96 -4 OFFCURVE",
"148 -6 OFFCURVE",
"200 -6 CURVE SMOOTH",
"285 -6 OFFCURVE",
"370 -2 OFFCURVE",
"455 -2 CURVE",
"471 14 OFFCURVE",
"469 64 OFFCURVE",
"469 88 CURVE SMOOTH"
);
},
{
closed = 1;
nodes = (
"368 8 OFFCURVE",
"285 4 OFFCURVE",
"202 4 CURVE SMOOTH",
"151 4 OFFCURVE",
"101 6 OFFCURVE",
"50 10 CURVE",
"50 156 OFFCURVE",
"45 301 OFFCURVE",
"45 447 CURVE SMOOTH",
"45 526 OFFCURVE",
"46 605 OFFCURVE",
"51 684 CURVE",
"131 689 OFFCURVE",
"212 688 OFFCURVE",
"293 691 CURVE SMOOTH",
"324 692 OFFCURVE",
"361 695 OFFCURVE",
"397 695 CURVE SMOOTH",
"418 695 OFFCURVE",
"438 694 OFFCURVE",
"456 691 CURVE",
"458 678 OFFCURVE",
"458 664 OFFCURVE",
"458 651 CURVE SMOOTH",
"458 619 OFFCURVE",
"455 586 OFFCURVE",
"455 555 CURVE",
"422 549 OFFCURVE",
"389 547 OFFCURVE",
"356 547 CURVE SMOOTH",
"336 547 OFFCURVE",
"317 548 OFFCURVE",
"297 548 CURVE SMOOTH",
"262 548 OFFCURVE",
"226 544 OFFCURVE",
"192 544 CURVE",
"191 543 LINE",
"181 522 OFFCURVE",
"183 452 OFFCURVE",
"183 447 CURVE SMOOTH",
"183 431 OFFCURVE",
"188 412 OFFCURVE",
"221 412 CURVE SMOOTH",
"236 412 OFFCURVE",
"250 414 OFFCURVE",
"257 414 CURVE SMOOTH",
"276 414 OFFCURVE",
"295 413 OFFCURVE",
"314 413 CURVE",
"316 397 OFFCURVE",
"317 382 OFFCURVE",
"317 366 CURVE SMOOTH",
"317 338 OFFCURVE",
"316 309 OFFCURVE",
"316 281 CURVE",
"308 278 OFFCURVE",
"301 278 OFFCURVE",
"293 278 CURVE SMOOTH",
"279 278 OFFCURVE",
"265 280 OFFCURVE",
"251 280 CURVE SMOOTH",
"198 280 OFFCURVE",
"190 277 OFFCURVE",
"190 217 CURVE SMOOTH",
"190 204 OFFCURVE",
"187 136 OFFCURVE",
"201 136 CURVE SMOOTH",
"270 136 OFFCURVE",
"340 129 OFFCURVE",
"410 129 CURVE SMOOTH",
"426 129 OFFCURVE",
"442 129 OFFCURVE",
"458 130 CURVE",
"459 115 OFFCURVE",
"459 101 OFFCURVE",
"459 86 CURVE SMOOTH",
"459 60 OFFCURVE",
"457 34 OFFCURVE",
"451 8 CURVE"
);
}
);
width = 481;
}
);
note = E;
rightKerningGroup = AE;
unicode = 0045;
},
{
glyphname = Eacute;
layers = (
{
hints = (
{
horizontal = 1;
place = "{-6, 14}";
type = Stem;
},
{
horizontal = 1;
place = "{129, 10}";
type = Stem;
},
{
horizontal = 1;
place = "{267, 13}";
type = Stem;
},
{
horizontal = 1;
place = "{414, 8}";
type = Stem;
},
{
horizontal = 1;
place = "{538, 10}";
type = Stem;
},
{
horizontal = 1;
place = "{691, 10}";
type = Stem;
},
{
horizontal = 1;
place = "{741, 9}";
type = Stem;
},
{
place = "{35, 10}";
type = Stem;
},
{
place = "{183, 16}";
type = Stem;
},
{
place = "{317, 10}";
type = Stem;
},
{
place = "{389, 11}";
type = Stem;
},
{
place = "{458, 10}";
type = Stem;
},
{
place = "{157, 13}";
type = Stem;
},
{
place = "{190, 9}";
type = Stem;
},
{
horizontal = 1;
place = "{-6, 10}";
type = Stem;
}
);
layerId = "C15651A9-B5F1-4E52-8FDA-4ECDAD7E1480";
paths = (
{
closed = 1;
nodes = (
"311 774 OFFCURVE",
"375 819 OFFCURVE",
"400 844 CURVE",
"400 850 LINE",
"377 873 OFFCURVE",
"351 907 OFFCURVE",
"324 921 CURVE",
"263 871 OFFCURVE",
"216 808 OFFCURVE",
"157 758 CURVE",
"157 750 LINE",
"163 744 OFFCURVE",
"202 741 OFFCURVE",
"237 741 CURVE SMOOTH",
"274 741 OFFCURVE",
"294 743 OFFCURVE",
"299 748 CURVE"
);
},
{
closed = 1;
nodes = (
"347 889 OFFCURVE",
"368 868 OFFCURVE",
"389 847 CURVE",
"361 820 OFFCURVE",
"303 779 OFFCURVE",
"290 754 CURVE",
"275 751 OFFCURVE",
"259 750 OFFCURVE",
"242 750 CURVE SMOOTH",
"217 750 OFFCURVE",
"192 752 OFFCURVE",
"170 756 CURVE",
"224 806 OFFCURVE",
"270 864 OFFCURVE",
"327 910 CURVE"
);
},
{
closed = 1;
nodes = (
"469 103 OFFCURVE",
"469 118 OFFCURVE",
"468 134 CURVE",
"468 136 LINE",
"466 138 OFFCURVE",
"464 139 OFFCURVE",
"463 141 CURVE",
"443 140 OFFCURVE",
"424 139 OFFCURVE",
"404 139 CURVE SMOOTH",
"337 139 OFFCURVE",
"270 145 OFFCURVE",
"204 146 CURVE",
"201 163 OFFCURVE",
"199 182 OFFCURVE",
"199 201 CURVE SMOOTH",
"199 222 OFFCURVE",
"201 244 OFFCURVE",
"205 264 CURVE",
"215 266 OFFCURVE",
"224 265 OFFCURVE",
"234 268 CURVE",
"248 268 OFFCURVE",
"262 267 OFFCURVE",
"276 267 CURVE SMOOTH",
"290 267 OFFCURVE",
"320 267 OFFCURVE",
"326 278 CURVE",
"325 285 OFFCURVE",
"325 293 OFFCURVE",
"325 301 CURVE SMOOTH",
"325 326 OFFCURVE",
"327 351 OFFCURVE",
"327 376 CURVE SMOOTH",
"327 392 OFFCURVE",
"325 410 OFFCURVE",
"319 423 CURVE",
"299 423 OFFCURVE",
"279 422 OFFCURVE",
"259 422 CURVE SMOOTH",
"239 422 OFFCURVE",
"218 423 OFFCURVE",
"199 426 CURVE",
"196 438 OFFCURVE",
"195 451 OFFCURVE",
"195 463 CURVE SMOOTH",
"195 487 OFFCURVE",
"198 512 OFFCURVE",
"199 535 CURVE",
"227 535 OFFCURVE",
"256 538 OFFCURVE",
"286 538 CURVE SMOOTH",
"315 538 OFFCURVE",
"340 537 OFFCURVE",
"371 537 CURVE SMOOTH",
"404 537 OFFCURVE",
"458 538 OFFCURVE",
"465 552 CURVE",
"465 586 OFFCURVE",
"468 622 OFFCURVE",
"468 658 CURVE SMOOTH",
"468 672 OFFCURVE",
"467 687 OFFCURVE",
"461 700 CURVE",
"440 704 OFFCURVE",
"419 706 OFFCURVE",
"396 706 CURVE SMOOTH",
"362 706 OFFCURVE",
"326 702 OFFCURVE",
"293 701 CURVE SMOOTH",
"210 698 OFFCURVE",
"128 699 OFFCURVE",
"46 694 CURVE",
"44 693 OFFCURVE",
"43 691 OFFCURVE",
"41 690 CURVE",
"36 610 OFFCURVE",
"35 530 OFFCURVE",
"35 450 CURVE SMOOTH",
"35 302 OFFCURVE",
"40 154 OFFCURVE",
"40 6 CURVE",
"45 0 LINE",
"96 -4 OFFCURVE",
"148 -6 OFFCURVE",
"200 -6 CURVE SMOOTH",
"285 -6 OFFCURVE",
"370 -2 OFFCURVE",
"455 -2 CURVE",
"471 14 OFFCURVE",
"469 64 OFFCURVE",
"469 88 CURVE SMOOTH"
);
},
{
closed = 1;
nodes = (
"368 8 OFFCURVE",
"285 4 OFFCURVE",
"202 4 CURVE SMOOTH",
"151 4 OFFCURVE",
"101 6 OFFCURVE",
"50 10 CURVE",
"50 156 OFFCURVE",
"45 301 OFFCURVE",
"45 447 CURVE SMOOTH",
"45 526 OFFCURVE",
"46 605 OFFCURVE",
"51 684 CURVE",
"131 689 OFFCURVE",
"212 688 OFFCURVE",
"293 691 CURVE SMOOTH",
"324 692 OFFCURVE",
"361 695 OFFCURVE",
"397 695 CURVE SMOOTH",
"418 695 OFFCURVE",
"438 694 OFFCURVE",
"456 691 CURVE",
"458 678 OFFCURVE",
"458 664 OFFCURVE",
"458 651 CURVE SMOOTH",
"458 619 OFFCURVE",
"455 586 OFFCURVE",
"455 555 CURVE",
"422 549 OFFCURVE",
"389 547 OFFCURVE",
"356 547 CURVE SMOOTH",
"336 547 OFFCURVE",
"317 548 OFFCURVE",
"297 548 CURVE SMOOTH",
"262 548 OFFCURVE",
"226 544 OFFCURVE",
"192 544 CURVE",
"191 543 LINE",
"181 522 OFFCURVE",
"183 452 OFFCURVE",
"183 447 CURVE SMOOTH",
"183 431 OFFCURVE",
"188 412 OFFCURVE",
"221 412 CURVE SMOOTH",
"236 412 OFFCURVE",
"250 414 OFFCURVE",
"257 414 CURVE SMOOTH",
"276 414 OFFCURVE",
"295 413 OFFCURVE",
"314 413 CURVE",
"316 397 OFFCURVE",
"317 382 OFFCURVE",
"317 366 CURVE SMOOTH",
"317 338 OFFCURVE",
"316 309 OFFCURVE",
"316 281 CURVE",
"308 278 OFFCURVE",
"301 278 OFFCURVE",
"293 278 CURVE SMOOTH",
"279 278 OFFCURVE",
"265 280 OFFCURVE",
"251 280 CURVE SMOOTH",
"198 280 OFFCURVE",
"190 277 OFFCURVE",
"190 217 CURVE SMOOTH",
"190 204 OFFCURVE",
"187 136 OFFCURVE",
"201 136 CURVE SMOOTH",
"270 136 OFFCURVE",
"340 129 OFFCURVE",
"410 129 CURVE SMOOTH",
"426 129 OFFCURVE",
"442 129 OFFCURVE",
"458 130 CURVE",
"459 115 OFFCURVE",
"459 101 OFFCURVE",
"459 86 CURVE SMOOTH",
"459 60 OFFCURVE",
"457 34 OFFCURVE",
"451 8 CURVE"
);
}
);
width = 481;
}
);
note = Eacute;
rightKerningGroup = AE;
unicode = 00C9;
},
{
glyphname = Ecircumflex;
layers = (
{
hints = (
{
horizontal = 1;
place = "{-6, 14}";
type = Stem;
},
{
horizontal = 1;
place = "{129, 10}";
type = Stem;
},
{
horizontal = 1;
place = "{267, 13}";
type = Stem;
},
{
horizontal = 1;
place = "{414, 8}";
type = Stem;
},
{
horizontal = 1;
place = "{538, 10}";
type = Stem;
},
{
horizontal = 1;
place = "{691, 10}";
type = Stem;
},
{
horizontal = 1;
place = "{744, 11}";
type = Stem;
},
{
horizontal = 1;
place = "{794, 10}";
type = Stem;
},
{
horizontal = 1;
place = "{911, 10}";
type = Stem;
},
{
place = "{35, 10}";
type = Stem;
},
{
place = "{183, 16}";
type = Stem;
},
{
place = "{317, 10}";
type = Stem;
},
{
place = "{458, 10}";
type = Stem;
},
{
place = "{190, 9}";
type = Stem;
},
{
horizontal = 1;
place = "{-6, 10}";
type = Stem;
}
);
layerId = "C15651A9-B5F1-4E52-8FDA-4ECDAD7E1480";
paths = (
{
closed = 1;
nodes = (
"220 744 OFFCURVE",
"209 765 OFFCURVE",
"249 794 CURVE",
"257 786 LINE",
"270 760 OFFCURVE",
"290 742 OFFCURVE",
"335 742 CURVE SMOOTH",
"376 742 OFFCURVE",
"389 751 OFFCURVE",
"415 751 CURVE",
"419 759 LINE",
"256 921 LINE",
"253 921 OFFCURVE",
"251 921 OFFCURVE",
"249 922 CURVE",
"192 869 OFFCURVE",
"134 820 OFFCURVE",
"87 759 CURVE",
"90 750 LINE",
"112 746 OFFCURVE",
"141 744 OFFCURVE",
"162 744 CURVE SMOOTH"
);
},
{
closed = 1;
nodes = (
"302 861 OFFCURVE",
"352 810 OFFCURVE",
"403 760 CURVE",
"388 759 OFFCURVE",
"374 755 OFFCURVE",
"360 754 CURVE",
"340 754 OFFCURVE",
"320 755 OFFCURVE",
"300 756 CURVE",
"291 762 LINE",
"278 775 OFFCURVE",
"267 794 OFFCURVE",
"252 804 CURVE",
"246 804 LINE",
"216 784 OFFCURVE",
"221 755 OFFCURVE",
"168 755 CURVE SMOOTH",
"141 755 OFFCURVE",
"107 758 OFFCURVE",
"99 759 CURVE",
"144 816 OFFCURVE",
"199 861 OFFCURVE",
"252 911 CURVE"
);
},
{
closed = 1;
nodes = (
"469 103 OFFCURVE",
"469 118 OFFCURVE",
"468 134 CURVE",
"468 136 LINE",
"466 138 OFFCURVE",
"464 139 OFFCURVE",
"463 141 CURVE",
"443 140 OFFCURVE",
"424 139 OFFCURVE",
"404 139 CURVE SMOOTH",
"337 139 OFFCURVE",
"270 145 OFFCURVE",
"204 146 CURVE",
"201 163 OFFCURVE",
"199 182 OFFCURVE",
"199 201 CURVE SMOOTH",
"199 222 OFFCURVE",
"201 244 OFFCURVE",
"205 264 CURVE",
"215 266 OFFCURVE",
"224 265 OFFCURVE",
"234 268 CURVE",
"248 268 OFFCURVE",
"262 267 OFFCURVE",
"276 267 CURVE SMOOTH",
"290 267 OFFCURVE",
"320 267 OFFCURVE",
"326 278 CURVE",
"325 285 OFFCURVE",
"325 293 OFFCURVE",
"325 301 CURVE SMOOTH",
"325 326 OFFCURVE",
"327 351 OFFCURVE",
"327 376 CURVE SMOOTH",
"327 392 OFFCURVE",
"325 410 OFFCURVE",
"319 423 CURVE",
"299 423 OFFCURVE",
"279 422 OFFCURVE",
"259 422 CURVE SMOOTH",
"239 422 OFFCURVE",
"218 423 OFFCURVE",
"199 426 CURVE",
"196 438 OFFCURVE",
"195 451 OFFCURVE",
"195 463 CURVE SMOOTH",
"195 487 OFFCURVE",
"198 512 OFFCURVE",
"199 535 CURVE",
"227 535 OFFCURVE",
"256 538 OFFCURVE",
"286 538 CURVE SMOOTH",
"315 538 OFFCURVE",
"340 537 OFFCURVE",
"371 537 CURVE SMOOTH",
"404 537 OFFCURVE",
"458 538 OFFCURVE",
"465 552 CURVE",
"465 586 OFFCURVE",
"468 622 OFFCURVE",
"468 658 CURVE SMOOTH",
"468 672 OFFCURVE",
"467 687 OFFCURVE",
"461 700 CURVE",
"440 704 OFFCURVE",
"419 706 OFFCURVE",
"396 706 CURVE SMOOTH",
"362 706 OFFCURVE",
"326 702 OFFCURVE",
"293 701 CURVE SMOOTH",
"210 698 OFFCURVE",
"128 699 OFFCURVE",
"46 694 CURVE",
"44 693 OFFCURVE",
"43 691 OFFCURVE",
"41 690 CURVE",
"36 610 OFFCURVE",
"35 530 OFFCURVE",
"35 450 CURVE SMOOTH",
"35 302 OFFCURVE",
"40 154 OFFCURVE",
"40 6 CURVE",
"45 0 LINE",
"96 -4 OFFCURVE",
"148 -6 OFFCURVE",
"200 -6 CURVE SMOOTH",
"285 -6 OFFCURVE",
"370 -2 OFFCURVE",
"455 -2 CURVE",
"471 14 OFFCURVE",
"469 64 OFFCURVE",
"469 88 CURVE SMOOTH"
);
},
{
closed = 1;
nodes = (
"368 8 OFFCURVE",
"285 4 OFFCURVE",
"202 4 CURVE SMOOTH",
"151 4 OFFCURVE",
"101 6 OFFCURVE",
"50 10 CURVE",
"50 156 OFFCURVE",
"45 301 OFFCURVE",
"45 447 CURVE SMOOTH",
"45 526 OFFCURVE",
"46 605 OFFCURVE",
"51 684 CURVE",
"131 689 OFFCURVE",
"212 688 OFFCURVE",
"293 691 CURVE SMOOTH",
"324 692 OFFCURVE",
"361 695 OFFCURVE",
"397 695 CURVE SMOOTH",
"418 695 OFFCURVE",
"438 694 OFFCURVE",
"456 691 CURVE",
"458 678 OFFCURVE",
"458 664 OFFCURVE",
"458 651 CURVE SMOOTH",
"458 619 OFFCURVE",
"455 586 OFFCURVE",
"455 555 CURVE",
"422 549 OFFCURVE",
"389 547 OFFCURVE",
"356 547 CURVE SMOOTH",
"336 547 OFFCURVE",
"317 548 OFFCURVE",
"297 548 CURVE SMOOTH",
"262 548 OFFCURVE",
"226 544 OFFCURVE",
"192 544 CURVE",
"191 543 LINE",
"181 522 OFFCURVE",
"183 452 OFFCURVE",
"183 447 CURVE SMOOTH",
"183 431 OFFCURVE",
"188 412 OFFCURVE",
"221 412 CURVE SMOOTH",
"236 412 OFFCURVE",
"250 414 OFFCURVE",
"257 414 CURVE SMOOTH",
"276 414 OFFCURVE",
"295 413 OFFCURVE",
"314 413 CURVE",
"316 397 OFFCURVE",
"317 382 OFFCURVE",
"317 366 CURVE SMOOTH",
"317 338 OFFCURVE",
"316 309 OFFCURVE",
"316 281 CURVE",
"308 278 OFFCURVE",
"301 278 OFFCURVE",
"293 278 CURVE SMOOTH",
"279 278 OFFCURVE",
"265 280 OFFCURVE",
"251 280 CURVE SMOOTH",
"198 280 OFFCURVE",
"190 277 OFFCURVE",
"190 217 CURVE SMOOTH",
"190 204 OFFCURVE",
"187 136 OFFCURVE",
"201 136 CURVE SMOOTH",
"270 136 OFFCURVE",
"340 129 OFFCURVE",
"410 129 CURVE SMOOTH",
"426 129 OFFCURVE",
"442 129 OFFCURVE",
"458 130 CURVE",
"459 115 OFFCURVE",
"459 101 OFFCURVE",
"459 86 CURVE SMOOTH",
"459 60 OFFCURVE",
"457 34 OFFCURVE",
"451 8 CURVE"
);
}
);
width = 481;
}
);
note = Ecircumflex;
rightKerningGroup = AE;
unicode = 00CA;
},
{
glyphname = Edieresis;
layers = (
{
hints = (
{
horizontal = 1;
place = "{-6, 14}";
type = Stem;
},
{
horizontal = 1;
place = "{129, 10}";
type = Stem;
},
{
horizontal = 1;
place = "{267, 13}";
type = Stem;
},
{
horizontal = 1;
place = "{414, 8}";
type = Stem;
},
{
horizontal = 1;
place = "{538, 10}";
type = Stem;
},
{
horizontal = 1;
place = "{691, 10}";
type = Stem;
},
{
horizontal = 1;
place = "{754, 9}";
type = Stem;
},
{
horizontal = 1;
place = "{864, 10}";
type = Stem;
},
{
place = "{35, 10}";
type = Stem;
},
{
place = "{97, 10}";
type = Stem;
},
{
place = "{183, 16}";
type = Stem;
},
{
place = "{271, 10}";
type = Stem;
},
{
place = "{317, 10}";
type = Stem;
},
{
place = "{379, 16}";
type = Stem;
},
{
place = "{458, 10}";
type = Stem;
},
{
place = "{205, 16}";
type = Stem;
},
{
place = "{190, 9}";
type = Stem;
},
{
horizontal = 1;
place = "{-6, 10}";
type = Stem;
}
);
layerId = "C15651A9-B5F1-4E52-8FDA-4ECDAD7E1480";
paths = (
{
closed = 1;
nodes = (
"111 754 LINE SMOOTH",
"144 754 OFFCURVE",
"177 753 OFFCURVE",
"210 753 CURVE",
"222 778 OFFCURVE",
"215 828 OFFCURVE",
"221 859 CURVE",
"215 871 OFFCURVE",
"189 874 OFFCURVE",
"163 874 CURVE SMOOTH",
"140 874 OFFCURVE",
"117 870 OFFCURVE",
"105 865 CURVE",
"102 859 LINE",
"102 840 OFFCURVE",
"97 815 OFFCURVE",
"97 792 CURVE SMOOTH",
"97 778 OFFCURVE",
"98 759 OFFCURVE",
"108 754 CURVE"
);
},
{
closed = 1;
nodes = (
"285 754 LINE SMOOTH",
"318 754 OFFCURVE",
"351 753 OFFCURVE",
"384 753 CURVE",
"396 778 OFFCURVE",
"389 828 OFFCURVE",
"395 859 CURVE",
"389 871 OFFCURVE",
"363 874 OFFCURVE",
"337 874 CURVE SMOOTH",
"314 874 OFFCURVE",
"291 870 OFFCURVE",
"279 865 CURVE",
"276 859 LINE",
"276 840 OFFCURVE",
"271 815 OFFCURVE",
"271 792 CURVE SMOOTH",
"271 778 OFFCURVE",
"272 759 OFFCURVE",
"282 754 CURVE"
);
},
{
closed = 1;
nodes = (
"128 860 OFFCURVE",
"151 864 OFFCURVE",
"172 864 CURVE SMOOTH",
"186 864 OFFCURVE",
"199 862 OFFCURVE",
"210 858 CURVE",
"205 827 OFFCURVE",
"205 793 OFFCURVE",
"205 763 CURVE",
"173 763 OFFCURVE",
"142 764 OFFCURVE",
"111 764 CURVE",
"108 771 OFFCURVE",
"107 780 OFFCURVE",
"107 790 CURVE SMOOTH",
"107 812 OFFCURVE",
"112 838 OFFCURVE",
"112 857 CURVE"
);
},
{
closed = 1;
nodes = (
"302 860 OFFCURVE",
"325 864 OFFCURVE",
"346 864 CURVE SMOOTH",
"360 864 OFFCURVE",
"373 862 OFFCURVE",
"384 858 CURVE",
"379 827 OFFCURVE",
"379 793 OFFCURVE",
"379 763 CURVE",
"347 763 OFFCURVE",
"316 764 OFFCURVE",
"285 764 CURVE",
"282 771 OFFCURVE",
"281 780 OFFCURVE",
"281 790 CURVE SMOOTH",
"281 812 OFFCURVE",
"286 838 OFFCURVE",
"286 857 CURVE"
);
},
{
closed = 1;
nodes = (
"469 103 OFFCURVE",
"469 118 OFFCURVE",
"468 134 CURVE",
"468 136 LINE",
"466 138 OFFCURVE",
"464 139 OFFCURVE",
"463 141 CURVE",
"443 140 OFFCURVE",
"424 139 OFFCURVE",
"404 139 CURVE SMOOTH",
"337 139 OFFCURVE",
"270 145 OFFCURVE",
"204 146 CURVE",
"201 163 OFFCURVE",
"199 182 OFFCURVE",
"199 201 CURVE SMOOTH",
"199 222 OFFCURVE",
"201 244 OFFCURVE",
"205 264 CURVE",
"215 266 OFFCURVE",
"224 265 OFFCURVE",
"234 268 CURVE",
"248 268 OFFCURVE",
"262 267 OFFCURVE",
"276 267 CURVE SMOOTH",
"290 267 OFFCURVE",
"320 267 OFFCURVE",
"326 278 CURVE",
"325 285 OFFCURVE",
"325 293 OFFCURVE",
"325 301 CURVE SMOOTH",
"325 326 OFFCURVE",
"327 351 OFFCURVE",
"327 376 CURVE SMOOTH",
"327 392 OFFCURVE",
"325 410 OFFCURVE",
"319 423 CURVE",
"299 423 OFFCURVE",
"279 422 OFFCURVE",
"259 422 CURVE SMOOTH",
"239 422 OFFCURVE",
"218 423 OFFCURVE",
"199 426 CURVE",
"196 438 OFFCURVE",
"195 451 OFFCURVE",
"195 463 CURVE SMOOTH",
"195 487 OFFCURVE",
"198 512 OFFCURVE",
"199 535 CURVE",
"227 535 OFFCURVE",
"256 538 OFFCURVE",
"286 538 CURVE SMOOTH",
"315 538 OFFCURVE",
"340 537 OFFCURVE",
"371 537 CURVE SMOOTH",
"404 537 OFFCURVE",
"458 538 OFFCURVE",
"465 552 CURVE",
"465 586 OFFCURVE",
"468 622 OFFCURVE",
"468 658 CURVE SMOOTH",
"468 672 OFFCURVE",
"467 687 OFFCURVE",
"461 700 CURVE",
"440 704 OFFCURVE",
"419 706 OFFCURVE",
"396 706 CURVE SMOOTH",
"362 706 OFFCURVE",
"326 702 OFFCURVE",
"293 701 CURVE SMOOTH",
"210 698 OFFCURVE",
"128 699 OFFCURVE",
"46 694 CURVE",
"44 693 OFFCURVE",
"43 691 OFFCURVE",
"41 690 CURVE",
"36 610 OFFCURVE",
"35 530 OFFCURVE",
"35 450 CURVE SMOOTH",
"35 302 OFFCURVE",
"40 154 OFFCURVE",
"40 6 CURVE",
"45 0 LINE",
"96 -4 OFFCURVE",
"148 -6 OFFCURVE",
"200 -6 CURVE SMOOTH",
"285 -6 OFFCURVE",
"370 -2 OFFCURVE",
"455 -2 CURVE",
"471 14 OFFCURVE",
"469 64 OFFCURVE",
"469 88 CURVE SMOOTH"
);
},
{
closed = 1;
nodes = (
"368 8 OFFCURVE",
"285 4 OFFCURVE",
"202 4 CURVE SMOOTH",
"151 4 OFFCURVE",
"101 6 OFFCURVE",
"50 10 CURVE",
"50 156 OFFCURVE",
"45 301 OFFCURVE",
"45 447 CURVE SMOOTH",
"45 526 OFFCURVE",
"46 605 OFFCURVE",
"51 684 CURVE",
"131 689 OFFCURVE",
"212 688 OFFCURVE",
"293 691 CURVE SMOOTH",
"324 692 OFFCURVE",
"361 695 OFFCURVE",
"397 695 CURVE SMOOTH",
"418 695 OFFCURVE",
"438 694 OFFCURVE",
"456 691 CURVE",
"458 678 OFFCURVE",
"458 664 OFFCURVE",
"458 651 CURVE SMOOTH",
"458 619 OFFCURVE",
"455 586 OFFCURVE",
"455 555 CURVE",
"422 549 OFFCURVE",
"389 547 OFFCURVE",
"356 547 CURVE SMOOTH",
"336 547 OFFCURVE",
"317 548 OFFCURVE",
"297 548 CURVE SMOOTH",
"262 548 OFFCURVE",
"226 544 OFFCURVE",
"192 544 CURVE",
"191 543 LINE",
"181 522 OFFCURVE",
"183 452 OFFCURVE",
"183 447 CURVE SMOOTH",
"183 431 OFFCURVE",
"188 412 OFFCURVE",
"221 412 CURVE SMOOTH",
"236 412 OFFCURVE",
"250 414 OFFCURVE",
"257 414 CURVE SMOOTH",
"276 414 OFFCURVE",
"295 413 OFFCURVE",
"314 413 CURVE",
"316 397 OFFCURVE",
"317 382 OFFCURVE",
"317 366 CURVE SMOOTH",
"317 338 OFFCURVE",
"316 309 OFFCURVE",
"316 281 CURVE",
"308 278 OFFCURVE",
"301 278 OFFCURVE",
"293 278 CURVE SMOOTH",
"279 278 OFFCURVE",
"265 280 OFFCURVE",
"251 280 CURVE SMOOTH",
"198 280 OFFCURVE",
"190 277 OFFCURVE",
"190 217 CURVE SMOOTH",
"190 204 OFFCURVE",
"187 136 OFFCURVE",
"201 136 CURVE SMOOTH",
"270 136 OFFCURVE",
"340 129 OFFCURVE",
"410 129 CURVE SMOOTH",
"426 129 OFFCURVE",
"442 129 OFFCURVE",
"458 130 CURVE",
"459 115 OFFCURVE",
"459 101 OFFCURVE",
"459 86 CURVE SMOOTH",
"459 60 OFFCURVE",
"457 34 OFFCURVE",
"451 8 CURVE"
);
}
);
width = 481;
}
);
note = Edieresis;
rightKerningGroup = AE;
unicode = 00CB;
},
{
glyphname = Egrave;
layers = (
{
hints = (
{
horizontal = 1;
place = "{-6, 14}";
type = Stem;
},
{
horizontal = 1;
place = "{129, 10}";
type = Stem;
},
{
horizontal = 1;
place = "{267, 13}";
type = Stem;
},
{
horizontal = 1;
place = "{414, 8}";
type = Stem;
},
{
horizontal = 1;
place = "{538, 10}";
type = Stem;
},
{
horizontal = 1;
place = "{691, 10}";
type = Stem;
},
{
horizontal = 1;
place = "{741, 9}";
type = Stem;
},
{
place = "{35, 10}";
type = Stem;
},
{
place = "{108, 9}";
type = Stem;
},
{
place = "{183, 16}";
type = Stem;
},
{
place = "{317, 10}";
type = Stem;
},
{
place = "{458, 10}";
type = Stem;
},
{
horizontal = 1;
place = "{910, 11}";
type = Stem;
},
{
place = "{336, 14}";
type = Stem;
},
{
place = "{190, 9}";
type = Stem;
},
{
horizontal = 1;
place = "{-6, 10}";
type = Stem;
}
);
layerId = "C15651A9-B5F1-4E52-8FDA-4ECDAD7E1480";
paths = (
{
closed = 1;
nodes = (
"209 742 OFFCURVE",
"239 741 OFFCURVE",
"269 741 CURVE SMOOTH",
"301 741 OFFCURVE",
"337 743 OFFCURVE",
"350 750 CURVE",
"350 758 LINE",
"334 770 OFFCURVE",
"321 786 OFFCURVE",
"308 800 CURVE SMOOTH",
"269 842 OFFCURVE",
"229 887 OFFCURVE",
"183 921 CURVE",
"177 921 LINE",
"154 897 OFFCURVE",
"131 874 OFFCURVE",
"108 851 CURVE",
"108 843 LINE SMOOTH",
"108 828 OFFCURVE",
"194 776 OFFCURVE",
"209 748 CURVE"
);
},
{
closed = 1;
nodes = (
"180 910 LINE",
"224 877 OFFCURVE",
"263 834 OFFCURVE",
"301 793 CURVE",
"312 780 OFFCURVE",
"323 767 OFFCURVE",
"336 756 CURVE",
"320 752 OFFCURVE",
"290 750 OFFCURVE",
"265 750 CURVE SMOOTH",
"243 750 OFFCURVE",
"223 752 OFFCURVE",
"216 754 CURVE",
"205 776 OFFCURVE",
"139 827 OFFCURVE",
"117 847 CURVE"
);
},
{
closed = 1;
nodes = (
"469 103 OFFCURVE",
"469 118 OFFCURVE",
"468 134 CURVE",
"468 136 LINE",
"466 138 OFFCURVE",
"464 139 OFFCURVE",
"463 141 CURVE",
"443 140 OFFCURVE",
"424 139 OFFCURVE",
"404 139 CURVE SMOOTH",
"337 139 OFFCURVE",
"270 145 OFFCURVE",
"204 146 CURVE",
"201 163 OFFCURVE",
"199 182 OFFCURVE",
"199 201 CURVE SMOOTH",
"199 222 OFFCURVE",
"201 244 OFFCURVE",
"205 264 CURVE",
"215 266 OFFCURVE",
"224 265 OFFCURVE",
"234 268 CURVE",
"248 268 OFFCURVE",
"262 267 OFFCURVE",
"276 267 CURVE SMOOTH",
"290 267 OFFCURVE",
"320 267 OFFCURVE",
"326 278 CURVE",
"325 285 OFFCURVE",
"325 293 OFFCURVE",
"325 301 CURVE SMOOTH",
"325 326 OFFCURVE",
"327 351 OFFCURVE",
"327 376 CURVE SMOOTH",
"327 392 OFFCURVE",
"325 410 OFFCURVE",
"319 423 CURVE",
"299 423 OFFCURVE",
"279 422 OFFCURVE",
"259 422 CURVE SMOOTH",
"239 422 OFFCURVE",
"218 423 OFFCURVE",
"199 426 CURVE",
"196 438 OFFCURVE",
"195 451 OFFCURVE",
"195 463 CURVE SMOOTH",
"195 487 OFFCURVE",
"198 512 OFFCURVE",
"199 535 CURVE",
"227 535 OFFCURVE",
"256 538 OFFCURVE",
"286 538 CURVE SMOOTH",
"315 538 OFFCURVE",
"340 537 OFFCURVE",
"371 537 CURVE SMOOTH",
"404 537 OFFCURVE",
"458 538 OFFCURVE",
"465 552 CURVE",
"465 586 OFFCURVE",
"468 622 OFFCURVE",
"468 658 CURVE SMOOTH",
"468 672 OFFCURVE",
"467 687 OFFCURVE",
"461 700 CURVE",
"440 704 OFFCURVE",
"419 706 OFFCURVE",
"396 706 CURVE SMOOTH",
"362 706 OFFCURVE",
"326 702 OFFCURVE",
"293 701 CURVE SMOOTH",
"210 698 OFFCURVE",
"128 699 OFFCURVE",
"46 694 CURVE",
"44 693 OFFCURVE",
"43 691 OFFCURVE",
"41 690 CURVE",
"36 610 OFFCURVE",
"35 530 OFFCURVE",
"35 450 CURVE SMOOTH",
"35 302 OFFCURVE",
"40 154 OFFCURVE",
"40 6 CURVE",
"45 0 LINE",
"96 -4 OFFCURVE",
"148 -6 OFFCURVE",
"200 -6 CURVE SMOOTH",
"285 -6 OFFCURVE",
"370 -2 OFFCURVE",
"455 -2 CURVE",
"471 14 OFFCURVE",
"469 64 OFFCURVE",
"469 88 CURVE SMOOTH"
);
},
{
closed = 1;
nodes = (
"368 8 OFFCURVE",
"285 4 OFFCURVE",
"202 4 CURVE SMOOTH",
"151 4 OFFCURVE",
"101 6 OFFCURVE",
"50 10 CURVE",
"50 156 OFFCURVE",
"45 301 OFFCURVE",
"45 447 CURVE SMOOTH",
"45 526 OFFCURVE",
"46 605 OFFCURVE",
"51 684 CURVE",
"131 689 OFFCURVE",
"212 688 OFFCURVE",
"293 691 CURVE SMOOTH",
"324 692 OFFCURVE",
"361 695 OFFCURVE",
"397 695 CURVE SMOOTH",
"418 695 OFFCURVE",
"438 694 OFFCURVE",
"456 691 CURVE",
"458 678 OFFCURVE",
"458 664 OFFCURVE",
"458 651 CURVE SMOOTH",
"458 619 OFFCURVE",
"455 586 OFFCURVE",
"455 555 CURVE",
"422 549 OFFCURVE",
"389 547 OFFCURVE",
"356 547 CURVE SMOOTH",
"336 547 OFFCURVE",
"317 548 OFFCURVE",
"297 548 CURVE SMOOTH",
"262 548 OFFCURVE",
"226 544 OFFCURVE",
"192 544 CURVE",
"191 543 LINE",
"181 522 OFFCURVE",
"183 452 OFFCURVE",
"183 447 CURVE SMOOTH",
"183 431 OFFCURVE",
"188 412 OFFCURVE",
"221 412 CURVE SMOOTH",
"236 412 OFFCURVE",
"250 414 OFFCURVE",
"257 414 CURVE SMOOTH",
"276 414 OFFCURVE",
"295 413 OFFCURVE",
"314 413 CURVE",
"316 397 OFFCURVE",
"317 382 OFFCURVE",
"317 366 CURVE SMOOTH",
"317 338 OFFCURVE",
"316 309 OFFCURVE",
"316 281 CURVE",
"308 278 OFFCURVE",
"301 278 OFFCURVE",
"293 278 CURVE SMOOTH",
"279 278 OFFCURVE",
"265 280 OFFCURVE",
"251 280 CURVE SMOOTH",
"198 280 OFFCURVE",
"190 277 OFFCURVE",
"190 217 CURVE SMOOTH",
"190 204 OFFCURVE",
"187 136 OFFCURVE",
"201 136 CURVE SMOOTH",
"270 136 OFFCURVE",
"340 129 OFFCURVE",
"410 129 CURVE SMOOTH",
"426 129 OFFCURVE",
"442 129 OFFCURVE",
"458 130 CURVE",
"459 115 OFFCURVE",
"459 101 OFFCURVE",
"459 86 CURVE SMOOTH",
"459 60 OFFCURVE",
"457 34 OFFCURVE",
"451 8 CURVE"
);
}
);
width = 481;
}
);
note = Egrave;
rightKerningGroup = AE;
unicode = 00C8;
},
{
glyphname = F;
layers = (
{
hints = (
{
horizontal = 1;
place = "{-8, 13}";
type = Stem;
},
{
horizontal = 1;
place = "{256, 9}";
type = Stem;
},
{
horizontal = 1;
place = "{416, 10}";
type = Stem;
},
{
horizontal = 1;
place = "{525, 10}";
type = Stem;
},
{
horizontal = 1;
place = "{695, 9}";
type = Stem;
},
{
place = "{35, 11}";
type = Stem;
},
{
place = "{208, 10}";
type = Stem;
},
{
place = "{353, 10}";
type = Stem;
},
{
place = "{485.5, 12.5}";
type = Stem;
},
{
horizontal = 1;
place = "{241, 10}";
type = Stem;
},
{
place = "{211, 10}";
type = Stem;
}
);
layerId = "C15651A9-B5F1-4E52-8FDA-4ECDAD7E1480";
paths = (
{
closed = 1;
nodes = (
"355 256 LINE",
"361 262 OFFCURVE",
"361 261 OFFCURVE",
"361 272 CURVE SMOOTH",
"361 285 OFFCURVE",
"359 304 OFFCURVE",
"359 306 CURVE SMOOTH",
"359 327 OFFCURVE",
"363 362 OFFCURVE",
"363 391 CURVE SMOOTH",
"363 411 OFFCURVE",
"362 422 OFFCURVE",
"353 432 CURVE",
"336 429 OFFCURVE",
"308 426 OFFCURVE",
"282 426 CURVE SMOOTH",
"238 426 OFFCURVE",
"218 427 OFFCURVE",
"218 470 CURVE SMOOTH",
"218 485 OFFCURVE",
"222 501 OFFCURVE",
"227 514 CURVE",
"294 524 OFFCURVE",
"370 525 OFFCURVE",
"438 525 CURVE SMOOTH",
"453 525 LINE SMOOTH",
"471 525 OFFCURVE",
"491 526 OFFCURVE",
"495 534 CURVE",
"495 544 LINE",
"498 552 OFFCURVE",
"498 566 OFFCURVE",
"498 583 CURVE SMOOTH",
"498 619 OFFCURVE",
"497 674 OFFCURVE",
"491 687 CURVE",
"434 700 OFFCURVE",
"374 704 OFFCURVE",
"315 704 CURVE SMOOTH",
"264 704 OFFCURVE",
"213 701 OFFCURVE",
"164 697 CURVE SMOOTH",
"125 694 OFFCURVE",
"78 697 OFFCURVE",
"41 685 CURVE",
"38 679 LINE",
"38 538 LINE SMOOTH",
"38 447 OFFCURVE",
"35 357 OFFCURVE",
"35 267 CURVE SMOOTH",
"35 179 OFFCURVE",
"36 91 OFFCURVE",
"36 3 CURVE",
"41 -7 OFFCURVE",
"48 -8 OFFCURVE",
"61 -8 CURVE SMOOTH",
"70 -8 OFFCURVE",
"78 -7 OFFCURVE",
"84 -7 CURVE",
"111 -9 OFFCURVE",
"127 -8 OFFCURVE",
"165 -8 CURVE SMOOTH",
"189 -8 OFFCURVE",
"217 -7 OFFCURVE",
"221 1 CURVE",
"221 81 OFFCURVE",
"223 161 OFFCURVE",
"229 241 CURVE",
"270 245 OFFCURVE",
"314 249 OFFCURVE",
"354 256 CURVE"
);
},
{
closed = 1;
nodes = (
"320 261 OFFCURVE",
"291 259 OFFCURVE",
"262 256 CURVE SMOOTH",
"251 255 OFFCURVE",
"240 252 OFFCURVE",
"230 251 CURVE",
"230 254 LINE",
"228 251 LINE",
"224 251 LINE",
"222 250 OFFCURVE",
"221 248 OFFCURVE",
"219 247 CURVE",
"213 167 OFFCURVE",
"211 86 OFFCURVE",
"211 5 CURVE",
"182 2 OFFCURVE",
"151 0 OFFCURVE",
"121 0 CURVE SMOOTH",
"96 0 OFFCURVE",
"70 2 OFFCURVE",
"46 5 CURVE",
"46 228 OFFCURVE",
"48 452 OFFCURVE",
"48 676 CURVE",
"125 686 OFFCURVE",
"215 695 OFFCURVE",
"303 695 CURVE SMOOTH",
"367 695 OFFCURVE",
"430 690 OFFCURVE",
"485 678 CURVE",
"485 635 OFFCURVE",
"486 592 OFFCURVE",
"486 549 CURVE",
"485 545 OFFCURVE",
"485 542 OFFCURVE",
"485 538 CURVE",
"467 534 OFFCURVE",
"447 536 OFFCURVE",
"429 535 CURVE SMOOTH",
"361 531 OFFCURVE",
"290 533 OFFCURVE",
"223 523 CURVE",
"213 518 OFFCURVE",
"208 485 OFFCURVE",
"208 467 CURVE SMOOTH",
"208 418 OFFCURVE",
"233 416 OFFCURVE",
"282 416 CURVE SMOOTH",
"306 416 OFFCURVE",
"331 418 OFFCURVE",
"349 421 CURVE",
"352 413 OFFCURVE",
"353 402 OFFCURVE",
"353 389 CURVE SMOOTH",
"353 360 OFFCURVE",
"347 322 OFFCURVE",
"347 293 CURVE SMOOTH",
"347 282 OFFCURVE",
"348 273 OFFCURVE",
"350 265 CURVE"
);
}
);
width = 494;
}
);
note = F;
rightKerningGroup = F;
unicode = 0046;
},
{
glyphname = G;
layers = (
{
hints = (
{
horizontal = 1;
place = "{-20, 10}";
type = Stem;
},
{
horizontal = 1;
place = "{126, 11}";
type = Stem;
},
{
horizontal = 1;
place = "{233, 11}";
type = Stem;
},
{
horizontal = 1;
place = "{355, 11}";
type = Stem;
},
{
horizontal = 1;
place = "{463, 13.5}";
type = Stem;
},
{
horizontal = 1;
place = "{552.5, 9.5}";
type = Stem;
},
{
horizontal = 1;
place = "{696, 10}";
type = Stem;
},
{
place = "{21, 11}";
type = Stem;
},
{
place = "{158, 9}";
type = Stem;
},
{
place = "{234, 11}";
type = Stem;
},
{
place = "{316, 12}";
type = Stem;
},
{
place = "{456, 8}";
type = Stem;
},
{
place = "{447, 10}";
type = Stem;
}
);
layerId = "C15651A9-B5F1-4E52-8FDA-4ECDAD7E1480";
paths = (
{
closed = 1;
nodes = (
"286 366 OFFCURVE",
"261 363 OFFCURVE",
"241 353 CURVE",
"235 346 LINE",
"235 333 OFFCURVE",
"237 318 OFFCURVE",
"237 304 CURVE",
"235 300 OFFCURVE",
"234 291 OFFCURVE",
"234 280 CURVE SMOOTH",
"234 242 OFFCURVE",
"238 229 OFFCURVE",
"271 229 CURVE SMOOTH",
"279 229 OFFCURVE",
"286 230 OFFCURVE",
"291 233 CURVE",
"316 233 LINE",
"316 147 OFFCURVE",
"281 137 OFFCURVE",
"228 137 CURVE",
"174 153 OFFCURVE",
"167 220 OFFCURVE",
"167 280 CURVE SMOOTH",
"167 417 OFFCURVE",
"176 538 OFFCURVE",
"217 553 CURVE",
"231 553 OFFCURVE",
"246 552 OFFCURVE",
"260 552 CURVE",
"298 540 OFFCURVE",
"306 499 OFFCURVE",
"321 469 CURVE",
"332 465 OFFCURVE",
"355 463 OFFCURVE",
"374 463 CURVE SMOOTH",
"386 463 OFFCURVE",
"397 464 OFFCURVE",
"404 466 CURVE",
"408 466 OFFCURVE",
"414 465 OFFCURVE",
"420 465 CURVE SMOOTH",
"432 465 OFFCURVE",
"443 466 OFFCURVE",
"452 471 CURVE",
"452 484 OFFCURVE",
"457 498 OFFCURVE",
"457 510 CURVE SMOOTH",
"457 620 OFFCURVE",
"375 706 OFFCURVE",
"258 706 CURVE SMOOTH",
"207 706 OFFCURVE",
"156 704 OFFCURVE",
"112 679 CURVE SMOOTH",
"30 632 OFFCURVE",
"21 515 OFFCURVE",
"21 424 CURVE SMOOTH",
"21 328 OFFCURVE",
"15 112 OFFCURVE",
"84 35 CURVE SMOOTH",
"121 -7 OFFCURVE",
"171 -20 OFFCURVE",
"222 -20 CURVE SMOOTH",
"284 -20 OFFCURVE",
"386 -10 OFFCURVE",
"429 50 CURVE SMOOTH",
"465 100 OFFCURVE",
"464 178 OFFCURVE",
"464 238 CURVE SMOOTH",
"464 259 OFFCURVE",
"462 347 OFFCURVE",
"454 355 CURVE",
"452 356 OFFCURVE",
"451 356 OFFCURVE",
"450 357 CURVE",
"411 357 OFFCURVE",
"359 366 OFFCURVE",
"313 366 CURVE SMOOTH"
);
},
{
closed = 1;
nodes = (
"245 343 LINE",
"245 343 OFFCURVE",
"245 344 OFFCURVE",
"246 344 CURVE",
"264 353 OFFCURVE",
"287 355 OFFCURVE",
"313 355 CURVE SMOOTH",
"358 355 OFFCURVE",
"410 347 OFFCURVE",
"446 347 CURVE",
"450 303 OFFCURVE",
"456 255 OFFCURVE",
"456 206 CURVE SMOOTH",
"456 160 OFFCURVE",
"451 114 OFFCURVE",
"433 74 CURVE SMOOTH",
"401 2 OFFCURVE",
"289 -10 OFFCURVE",
"222 -10 CURVE SMOOTH",
"172 -10 OFFCURVE",
"124 2 OFFCURVE",
"91 42 CURVE SMOOTH",
"40 104 OFFCURVE",
"32 247 OFFCURVE",
"32 349 CURVE SMOOTH",
"32 419 OFFCURVE",
"33 459 OFFCURVE",
"38 514 CURVE SMOOTH",
"42 558 OFFCURVE",
"50 613 OFFCURVE",
"84 645 CURVE SMOOTH",
"122 681 OFFCURVE",
"174 696 OFFCURVE",
"226 696 CURVE SMOOTH",
"344 696 OFFCURVE",
"447 638 OFFCURVE",
"447 517 CURVE SMOOTH",
"447 499 OFFCURVE",
"449 477 OFFCURVE",
"434 477 CURVE SMOOTH",
"431 477 OFFCURVE",
"429 477 OFFCURVE",
"427 476 CURVE",
"422 476 OFFCURVE",
"416 477 OFFCURVE",
"411 477 CURVE SMOOTH",
"407 477 OFFCURVE",
"403 476 OFFCURVE",
"399 475 CURVE",
"375 475 OFFCURVE",
"351 478 OFFCURVE",
"327 478 CURVE",
"313 532 OFFCURVE",
"288 562 OFFCURVE",
"228 562 CURVE SMOOTH",
"159 562 OFFCURVE",
"163 446 OFFCURVE",
"160 389 CURVE SMOOTH",
"159 363 OFFCURVE",
"158 335 OFFCURVE",
"158 308 CURVE SMOOTH",
"158 233 OFFCURVE",
"160 126 OFFCURVE",
"241 126 CURVE SMOOTH",
"292 126 OFFCURVE",
"328 161 OFFCURVE",
"328 222 CURVE SMOOTH",
"328 236 OFFCURVE",
"324 244 OFFCURVE",
"300 244 CURVE SMOOTH",
"286 244 OFFCURVE",
"276 240 OFFCURVE",
"262 240 CURVE SMOOTH",
"246 240 OFFCURVE",
"245 248 OFFCURVE",
"245 258 CURVE SMOOTH",
"245 281 OFFCURVE",
"249 295 OFFCURVE",
"249 315 CURVE SMOOTH",
"249 325 OFFCURVE",
"247 336 OFFCURVE",
"245 342 CURVE"
);
}
);
width = 481;
}
);
leftKerningGroup = G;
note = G;
rightKerningGroup = G;
unicode = 0047;
},
{
glyphname = H;
layers = (
{
hints = (
{
horizontal = 1;
place = "{-5, 12}";
type = Stem;
},
{
horizontal = 1;
place = "{277, 11}";
type = Stem;
},
{
horizontal = 1;
place = "{423, 10}";
type = Stem;
},
{
horizontal = 1;
place = "{701, 10}";
type = Stem;
},
{
place = "{32, 10}";
type = Stem;
},
{
place = "{187, 13}";
type = Stem;
},
{
place = "{303, 10}";
type = Stem;
},
{
place = "{450.5, 10}";
type = Stem;
},
{
horizontal = 1;
place = "{-3, 14}";
type = Stem;
},
{
horizontal = 1;
place = "{693, 12}";
type = Stem;
},
{
horizontal = 1;
place = "{-6, 9}";
type = Stem;
},
{
place = "{190, 133}";
type = Stem;
}
);
layerId = "C15651A9-B5F1-4E52-8FDA-4ECDAD7E1480";
paths = (
{
closed = 1;
nodes = (
"447 706 LINE",
"445 708 OFFCURVE",
"443 709 OFFCURVE",
"442 711 CURVE",
"430 711 LINE",
"422 714 OFFCURVE",
"412 715 OFFCURVE",
"401 715 CURVE SMOOTH",
"371 715 OFFCURVE",
"313 707 OFFCURVE",
"300 694 CURVE",
"302 662 OFFCURVE",
"303 631 OFFCURVE",
"303 599 CURVE SMOOTH",
"303 545 OFFCURVE",
"300 491 OFFCURVE",
"296 438 CURVE",
"279 435 OFFCURVE",
"260 433 OFFCURVE",
"241 433 CURVE SMOOTH",
"225 433 OFFCURVE",
"210 434 OFFCURVE",
"195 437 CURVE",
"194 442 OFFCURVE",
"193 447 OFFCURVE",
"192 453 CURVE",
"193 453 LINE",
"180 533 OFFCURVE",
"187 615 OFFCURVE",
"175 696 CURVE",
"170 705 OFFCURVE",
"150 705 OFFCURVE",
"139 705 CURVE SMOOTH",
"119 705 OFFCURVE",
"99 702 OFFCURVE",
"80 702 CURVE SMOOTH",
"66 702 OFFCURVE",
"53 704 OFFCURVE",
"40 704 CURVE",
"38 702 OFFCURVE",
"37 700 OFFCURVE",
"35 698 CURVE",
"35 699 LINE",
"33 699 OFFCURVE",
"32 598 OFFCURVE",
"32 579 CURVE SMOOTH",
"32 441 OFFCURVE",
"40 305 OFFCURVE",
"40 168 CURVE SMOOTH",
"40 110 LINE SMOOTH",
"40 59 OFFCURVE",
"42 2 OFFCURVE",
"57 -3 CURVE",
"64 0 OFFCURVE",
"72 2 OFFCURVE",
"82 2 CURVE SMOOTH",
"104 2 OFFCURVE",
"131 -6 OFFCURVE",
"156 -6 CURVE SMOOTH",
"169 -6 OFFCURVE",
"182 -4 OFFCURVE",
"193 3 CURVE",
"193 4 OFFCURVE",
"194 5 OFFCURVE",
"195 5 CURVE",
"199 29 OFFCURVE",
"200 53 OFFCURVE",
"200 77 CURVE SMOOTH",
"200 120 OFFCURVE",
"196 164 OFFCURVE",
"196 207 CURVE SMOOTH",
"196 228 OFFCURVE",
"197 250 OFFCURVE",
"200 271 CURVE",
"220 275 OFFCURVE",
"239 277 OFFCURVE",
"258 277 CURVE SMOOTH",
"274 277 OFFCURVE",
"291 275 OFFCURVE",
"308 272 CURVE",
"320 181 OFFCURVE",
"309 90 OFFCURVE",
"323 -1 CURVE",
"328 -4 OFFCURVE",
"328 -5 OFFCURVE",
"335 -5 CURVE SMOOTH",
"338 -5 OFFCURVE",
"340 -5 OFFCURVE",
"343 -4 CURVE",
"363 -4 OFFCURVE",
"385 -5 OFFCURVE",
"407 -5 CURVE SMOOTH",
"428 -5 OFFCURVE",
"450 -4 OFFCURVE",
"470 1 CURVE",
"474 6 LINE"
);
},
{
closed = 1;
nodes = (
"411 7 OFFCURVE",
"391 9 OFFCURVE",
"373 9 CURVE SMOOTH",
"360 9 OFFCURVE",
"348 8 OFFCURVE",
"338 5 CURVE",
"332 5 LINE",
"323 72 OFFCURVE",
"323 141 OFFCURVE",
"323 209 CURVE SMOOTH",
"323 218 OFFCURVE",
"321 276 OFFCURVE",
"316 280 CURVE SMOOTH",
"308 286 OFFCURVE",
"292 288 OFFCURVE",
"274 288 CURVE SMOOTH",
"239 288 OFFCURVE",
"201 281 OFFCURVE",
"191 276 CURVE",
"188 254 OFFCURVE",
"187 232 OFFCURVE",
"187 210 CURVE SMOOTH",
"187 168 OFFCURVE",
"190 126 OFFCURVE",
"190 84 CURVE SMOOTH",
"190 59 OFFCURVE",
"189 34 OFFCURVE",
"185 10 CURVE",
"176 5 OFFCURVE",
"165 3 OFFCURVE",
"154 3 CURVE SMOOTH",
"130 3 OFFCURVE",
"103 11 OFFCURVE",
"79 11 CURVE SMOOTH",
"72 11 OFFCURVE",
"65 10 OFFCURVE",
"58 8 CURVE",
"55 28 OFFCURVE",
"56 48 OFFCURVE",
"55 68 CURVE SMOOTH",
"43 228 OFFCURVE",
"42 390 OFFCURVE",
"42 550 CURVE SMOOTH",
"42 597 OFFCURVE",
"43 645 OFFCURVE",
"45 693 CURVE",
"54 690 OFFCURVE",
"64 689 OFFCURVE",
"74 689 CURVE SMOOTH",
"96 689 OFFCURVE",
"121 693 OFFCURVE",
"144 693 CURVE SMOOTH",
"151 693 OFFCURVE",
"158 693 OFFCURVE",
"165 692 CURVE",
"178 606 OFFCURVE",
"172 519 OFFCURVE",
"186 432 CURVE",
"196 427 OFFCURVE",
"214 423 OFFCURVE",
"229 423 CURVE SMOOTH",
"253 423 OFFCURVE",
"295 429 OFFCURVE",
"303 429 CURVE",
"301 429 LINE",
"302 431 OFFCURVE",
"304 432 OFFCURVE",
"306 434 CURVE",
"310 489 OFFCURVE",
"313 545 OFFCURVE",
"313 601 CURVE SMOOTH",
"313 631 OFFCURVE",
"312 661 OFFCURVE",
"310 691 CURVE",
"350 699 OFFCURVE",
"385 702 OFFCURVE",
"425 702 CURVE",
"430 701 OFFCURVE",
"431 701 OFFCURVE",
"437 701 CURVE",
"464 10 LINE",
"453 8 OFFCURVE",
"442 7 OFFCURVE",
"430 7 CURVE SMOOTH"
);
}
);
width = 499;
}
);
note = H;
unicode = 0048;
},
{
glyphname = I;
layers = (
{
hints = (
{
horizontal = 1;
place = "{-11, 11}";
type = Stem;
},
{
horizontal = 1;
place = "{697, 10}";
type = Stem;
},
{
place = "{32, 11}";
type = Stem;
},
{
place = "{210, 10}";
type = Stem;
},
{
place = "{38, 11}";
type = Stem;
},
{
horizontal = 1;
place = "{-4, 8}";
type = Stem;
}
);
layerId = "C15651A9-B5F1-4E52-8FDA-4ECDAD7E1480";
paths = (
{
closed = 1;
nodes = (
"222 708 LINE",
"201 708 OFFCURVE",
"180 707 OFFCURVE",
"160 707 CURVE SMOOTH",
"122 707 OFFCURVE",
"84 713 OFFCURVE",
"47 713 CURVE",
"38 704 OFFCURVE",
"36 645 OFFCURVE",
"35 622 CURVE SMOOTH",
"33 588 OFFCURVE",
"32 555 OFFCURVE",
"32 521 CURVE SMOOTH",
"32 402 OFFCURVE",
"38 284 OFFCURVE",
"38 167 CURVE SMOOTH",
"38 110 OFFCURVE",
"37 54 OFFCURVE",
"34 -3 CURVE",
"43 -7 LINE",
"48 -5 OFFCURVE",
"55 -4 OFFCURVE",
"65 -4 CURVE SMOOTH",
"92 -4 OFFCURVE",
"133 -11 OFFCURVE",
"168 -11 CURVE SMOOTH",
"194 -11 OFFCURVE",
"213 -8 OFFCURVE",
"226 5 CURVE",
"221 79 OFFCURVE",
"220 153 OFFCURVE",
"220 227 CURVE SMOOTH",
"220 386 OFFCURVE",
"227 544 OFFCURVE",
"227 703 CURVE"
);
},
{
closed = 1;
nodes = (
"210 153 OFFCURVE",
"211 80 OFFCURVE",
"216 7 CURVE",
"202 7 OFFCURVE",
"184 0 OFFCURVE",
"164 0 CURVE SMOOTH",
"132 0 OFFCURVE",
"96 4 OFFCURVE",
"69 4 CURVE SMOOTH",
"59 4 OFFCURVE",
"51 3 OFFCURVE",
"44 2 CURVE",
"47 71 OFFCURVE",
"49 139 OFFCURVE",
"49 207 CURVE SMOOTH",
"49 314 OFFCURVE",
"43 420 OFFCURVE",
"43 527 CURVE SMOOTH",
"43 586 OFFCURVE",
"45 644 OFFCURVE",
"52 703 CURVE",
"88 703 OFFCURVE",
"123 697 OFFCURVE",
"159 697 CURVE SMOOTH",
"178 697 OFFCURVE",
"197 698 OFFCURVE",
"217 698 CURVE",
"217 540 OFFCURVE",
"210 383 OFFCURVE",
"210 226 CURVE SMOOTH"
);
}
);
width = 260;
}
);
note = I;
rightKerningGroup = I;
unicode = 0049;
},
{
glyphname = Iacute;
layers = (
{
hints = (
{
horizontal = 1;
place = "{-11, 11}";
type = Stem;
},
{
horizontal = 1;
place = "{697, 10}";
type = Stem;
},
{
horizontal = 1;
place = "{741, 9}";
type = Stem;
},
{
place = "{32, 11}";
type = Stem;
},
{
place = "{210, 10}";
type = Stem;
},
{
place = "{38, 11}";
type = Stem;
}
);
layerId = "C15651A9-B5F1-4E52-8FDA-4ECDAD7E1480";
paths = (
{
closed = 1;
nodes = (
"301 847 LINE",
"278 870 OFFCURVE",
"250 907 OFFCURVE",
"223 921 CURVE",
"162 871 OFFCURVE",
"115 808 OFFCURVE",
"56 758 CURVE",
"47 751 LINE",
"53 745 OFFCURVE",
"101 741 OFFCURVE",
"136 741 CURVE SMOOTH",
"173 741 OFFCURVE",
"193 743 OFFCURVE",
"198 748 CURVE SMOOTH"
);
},
{
closed = 1;
nodes = (
"260 820 OFFCURVE",
"202 779 OFFCURVE",
"189 754 CURVE",
"174 751 OFFCURVE",
"158 750 OFFCURVE",
"141 750 CURVE SMOOTH",
"116 750 OFFCURVE",
"91 752 OFFCURVE",
"69 756 CURVE",
"123 806 OFFCURVE",
"169 864 OFFCURVE",
"226 910 CURVE",
"246 889 OFFCURVE",
"267 868 OFFCURVE",
"288 847 CURVE"
);
},
{
closed = 1;
nodes = (
"222 708 LINE",
"201 708 OFFCURVE",
"180 707 OFFCURVE",
"160 707 CURVE SMOOTH",
"122 707 OFFCURVE",
"84 713 OFFCURVE",
"47 713 CURVE",
"38 704 OFFCURVE",
"36 645 OFFCURVE",
"35 622 CURVE SMOOTH",
"33 588 OFFCURVE",
"32 555 OFFCURVE",
"32 521 CURVE SMOOTH",
"32 402 OFFCURVE",
"38 284 OFFCURVE",
"38 167 CURVE SMOOTH",
"38 110 OFFCURVE",
"36 48 OFFCURVE",
"33 -9 CURVE",
"79 -5 OFFCURVE",
"123 -11 OFFCURVE",
"168 -11 CURVE SMOOTH",
"194 -11 OFFCURVE",
"213 -8 OFFCURVE",
"226 5 CURVE",
"221 79 OFFCURVE",
"220 153 OFFCURVE",
"220 227 CURVE SMOOTH",
"220 386 OFFCURVE",
"230 550 OFFCURVE",
"230 709 CURVE"
);
},
{
closed = 1;
nodes = (
"210 153 OFFCURVE",
"211 80 OFFCURVE",
"216 7 CURVE",
"202 7 OFFCURVE",
"184 0 OFFCURVE",
"164 0 CURVE SMOOTH",
"132 0 OFFCURVE",
"96 4 OFFCURVE",
"69 4 CURVE SMOOTH",
"59 4 OFFCURVE",
"51 3 OFFCURVE",
"44 2 CURVE",
"47 71 OFFCURVE",
"49 139 OFFCURVE",
"49 207 CURVE SMOOTH",
"49 314 OFFCURVE",
"43 420 OFFCURVE",
"43 527 CURVE SMOOTH",
"43 586 OFFCURVE",
"45 644 OFFCURVE",
"52 703 CURVE",
"88 703 OFFCURVE",
"123 697 OFFCURVE",
"159 697 CURVE SMOOTH",
"178 697 OFFCURVE",
"197 698 OFFCURVE",
"217 698 CURVE",
"217 540 OFFCURVE",
"210 383 OFFCURVE",
"210 226 CURVE SMOOTH"
);
}
);
width = 259;
}
);
note = Iacute;
rightKerningGroup = I;
unicode = 00CD;
},
{
glyphname = Icircumflex;
layers = (
{
hints = (
{
horizontal = 1;
place = "{-11, 11}";
type = Stem;
},
{
horizontal = 1;
place = "{697, 10}";
type = Stem;
},
{
horizontal = 1;
place = "{742, 9}";
type = Stem;
},
{
place = "{32, 11}";
type = Stem;
},
{
place = "{210, 10}";
type = Stem;
},
{
horizontal = 1;
place = "{744, 11}";
type = Stem;
},
{
place = "{38, 11}";
type = Stem;
},
{
horizontal = 1;
place = "{-4, 8}";
type = Stem;
}
);
layerId = "C15651A9-B5F1-4E52-8FDA-4ECDAD7E1480";
paths = (
{
closed = 1;
nodes = (
"311 759 LINE",
"257 815 OFFCURVE",
"195 869 OFFCURVE",
"146 927 CURVE",
"89 874 OFFCURVE",
"14 813 OFFCURVE",
"-33 752 CURVE",
"-18 750 LINE",
"4 746 OFFCURVE",
"33 744 OFFCURVE",
"54 744 CURVE SMOOTH",
"112 744 OFFCURVE",
"101 765 OFFCURVE",
"141 794 CURVE",
"162 760 OFFCURVE",
"182 742 OFFCURVE",
"227 742 CURVE SMOOTH",
"268 742 OFFCURVE",
"294 751 OFFCURVE",
"320 751 CURVE"
);
},
{
closed = 1;
nodes = (
"280 759 OFFCURVE",
"266 755 OFFCURVE",
"252 754 CURVE",
"203 740 OFFCURVE",
"166 776 OFFCURVE",
"141 809 CURVE",
"111 789 OFFCURVE",
"113 755 OFFCURVE",
"60 755 CURVE SMOOTH",
"33 755 OFFCURVE",
"-1 758 OFFCURVE",
"-9 759 CURVE",
"36 816 OFFCURVE",
"91 861 OFFCURVE",
"144 911 CURVE",
"194 861 OFFCURVE",
"244 810 OFFCURVE",
"295 760 CURVE"
);
},
{
closed = 1;
nodes = (
"222 708 LINE",
"201 708 OFFCURVE",
"180 707 OFFCURVE",
"160 707 CURVE SMOOTH",
"122 707 OFFCURVE",
"84 713 OFFCURVE",
"47 713 CURVE",
"38 704 OFFCURVE",
"36 645 OFFCURVE",
"35 622 CURVE SMOOTH",
"33 588 OFFCURVE",
"32 555 OFFCURVE",
"32 521 CURVE SMOOTH",
"32 402 OFFCURVE",
"38 284 OFFCURVE",
"38 167 CURVE SMOOTH",
"38 110 OFFCURVE",
"37 52 OFFCURVE",
"34 -5 CURVE",
"48 -7 OFFCURVE",
"55 -4 OFFCURVE",
"65 -4 CURVE SMOOTH",
"92 -4 OFFCURVE",
"133 -11 OFFCURVE",
"168 -11 CURVE SMOOTH",
"194 -11 OFFCURVE",
"213 -8 OFFCURVE",
"226 5 CURVE",
"221 79 OFFCURVE",
"220 153 OFFCURVE",
"220 227 CURVE SMOOTH",
"220 386 OFFCURVE",
"227 544 OFFCURVE",
"227 703 CURVE"
);
},
{
closed = 1;
nodes = (
"210 153 OFFCURVE",
"211 80 OFFCURVE",
"216 7 CURVE",
"202 7 OFFCURVE",
"184 0 OFFCURVE",
"164 0 CURVE SMOOTH",
"132 0 OFFCURVE",
"96 4 OFFCURVE",
"69 4 CURVE SMOOTH",
"59 4 OFFCURVE",
"51 3 OFFCURVE",
"44 2 CURVE",
"47 71 OFFCURVE",
"49 139 OFFCURVE",
"49 207 CURVE SMOOTH",
"49 314 OFFCURVE",
"43 420 OFFCURVE",
"43 527 CURVE SMOOTH",
"43 586 OFFCURVE",
"45 644 OFFCURVE",
"52 703 CURVE",
"88 703 OFFCURVE",
"123 697 OFFCURVE",
"159 697 CURVE SMOOTH",
"178 697 OFFCURVE",
"197 698 OFFCURVE",
"217 698 CURVE",
"217 540 OFFCURVE",
"210 383 OFFCURVE",
"210 226 CURVE SMOOTH"
);
}
);
width = 260;
}
);
note = Icircumflex;
rightKerningGroup = I;
unicode = 00CE;
},
{
glyphname = Idieresis;
layers = (
{
hints = (
{
horizontal = 1;
place = "{-11, 11}";
type = Stem;
},
{
horizontal = 1;
place = "{697, 10}";
type = Stem;
},
{
horizontal = 1;
place = "{754, 9}";
type = Stem;
},
{
horizontal = 1;
place = "{864, 10}";
type = Stem;
},
{
place = "{-9, 10}";
type = Stem;
},
{
place = "{32, 11}";
type = Stem;
},
{
place = "{99, 16}";
type = Stem;
},
{
place = "{165, 10}";
type = Stem;
},
{
place = "{210, 10}";
type = Stem;
},
{
place = "{273, 16}";
type = Stem;
},
{
place = "{38, 11}";
type = Stem;
},
{
horizontal = 1;
place = "{-4, 8}";
type = Stem;
},
{
place = "{217, 9}";
type = Stem;
}
);
layerId = "C15651A9-B5F1-4E52-8FDA-4ECDAD7E1480";
paths = (
{
closed = 1;
nodes = (
"5 754 LINE SMOOTH",
"38 754 OFFCURVE",
"71 753 OFFCURVE",
"104 753 CURVE",
"116 778 OFFCURVE",
"109 828 OFFCURVE",
"115 859 CURVE",
"109 871 OFFCURVE",
"83 874 OFFCURVE",
"57 874 CURVE SMOOTH",
"34 874 OFFCURVE",
"8 870 OFFCURVE",
"-4 865 CURVE",
"-4 859 LINE SMOOTH",
"-4 840 OFFCURVE",
"-9 815 OFFCURVE",
"-9 792 CURVE SMOOTH",
"-9 778 OFFCURVE",
"-8 759 OFFCURVE",
"2 754 CURVE"
);
},
{
closed = 1;
nodes = (
"179 754 LINE SMOOTH",
"212 754 OFFCURVE",
"245 753 OFFCURVE",
"278 753 CURVE",
"290 778 OFFCURVE",
"283 828 OFFCURVE",
"289 859 CURVE",
"283 871 OFFCURVE",
"257 874 OFFCURVE",
"231 874 CURVE SMOOTH",
"208 874 OFFCURVE",
"182 870 OFFCURVE",
"170 865 CURVE",
"170 859 LINE SMOOTH",
"170 840 OFFCURVE",
"165 815 OFFCURVE",
"165 792 CURVE SMOOTH",
"165 778 OFFCURVE",
"166 759 OFFCURVE",
"176 754 CURVE"
);
},
{
closed = 1;
nodes = (
"67 763 OFFCURVE",
"36 764 OFFCURVE",
"5 764 CURVE",
"2 771 OFFCURVE",
"1 780 OFFCURVE",
"1 790 CURVE SMOOTH",
"1 812 OFFCURVE",
"6 838 OFFCURVE",
"6 857 CURVE",
"22 860 OFFCURVE",
"45 864 OFFCURVE",
"66 864 CURVE SMOOTH",
"80 864 OFFCURVE",
"93 862 OFFCURVE",
"104 858 CURVE",
"99 827 OFFCURVE",
"99 793 OFFCURVE",
"99 763 CURVE"
);
},
{
closed = 1;
nodes = (
"241 763 OFFCURVE",
"210 764 OFFCURVE",
"179 764 CURVE",
"176 771 OFFCURVE",
"175 780 OFFCURVE",
"175 790 CURVE SMOOTH",
"175 812 OFFCURVE",
"180 838 OFFCURVE",
"180 857 CURVE",
"196 860 OFFCURVE",
"219 864 OFFCURVE",
"240 864 CURVE SMOOTH",
"254 864 OFFCURVE",
"267 862 OFFCURVE",
"278 858 CURVE",
"273 827 OFFCURVE",
"273 793 OFFCURVE",
"273 763 CURVE"
);
},
{
closed = 1;
nodes = (
"222 708 LINE SMOOTH",
"201 708 OFFCURVE",
"180 707 OFFCURVE",
"160 707 CURVE SMOOTH",
"122 707 OFFCURVE",
"84 713 OFFCURVE",
"47 713 CURVE",
"38 704 OFFCURVE",
"36 645 OFFCURVE",
"35 622 CURVE SMOOTH",
"33 588 OFFCURVE",
"32 555 OFFCURVE",
"32 521 CURVE SMOOTH",
"32 402 OFFCURVE",
"38 284 OFFCURVE",
"38 167 CURVE SMOOTH",
"38 110 OFFCURVE",
"37 54 OFFCURVE",
"34 -3 CURVE",
"48 -5 OFFCURVE",
"55 -4 OFFCURVE",
"65 -4 CURVE SMOOTH",
"92 -4 OFFCURVE",
"133 -11 OFFCURVE",
"168 -11 CURVE SMOOTH",
"194 -11 OFFCURVE",
"213 -8 OFFCURVE",
"226 5 CURVE",
"221 79 OFFCURVE",
"220 153 OFFCURVE",
"220 227 CURVE SMOOTH",
"220 386 OFFCURVE",
"226 549 OFFCURVE",
"226 708 CURVE"
);
},
{
closed = 1;
nodes = (
"210 153 OFFCURVE",
"211 80 OFFCURVE",
"216 7 CURVE",
"202 7 OFFCURVE",
"184 0 OFFCURVE",
"164 0 CURVE SMOOTH",
"132 0 OFFCURVE",
"96 4 OFFCURVE",
"69 4 CURVE SMOOTH",
"59 4 OFFCURVE",
"51 3 OFFCURVE",
"44 2 CURVE",
"47 71 OFFCURVE",
"49 139 OFFCURVE",
"49 207 CURVE SMOOTH",
"49 314 OFFCURVE",
"43 420 OFFCURVE",
"43 527 CURVE SMOOTH",
"43 586 OFFCURVE",
"45 644 OFFCURVE",
"52 703 CURVE",
"88 703 OFFCURVE",
"123 697 OFFCURVE",
"159 697 CURVE SMOOTH",
"178 697 OFFCURVE",
"197 698 OFFCURVE",
"217 698 CURVE",
"217 540 OFFCURVE",
"210 383 OFFCURVE",
"210 226 CURVE SMOOTH"
);
}
);
width = 260;
}
);
note = Idieresis;
rightKerningGroup = I;
unicode = 00CF;
},
{
glyphname = Igrave;
layers = (
{
hints = (
{
horizontal = 1;
place = "{-11, 11}";
type = Stem;
},
{
horizontal = 1;
place = "{697, 10}";
type = Stem;
},
{
horizontal = 1;
place = "{741, 9}";
type = Stem;
},
{
place = "{-19, 9}";
type = Stem;
},
{
place = "{32, 11}";
type = Stem;
},
{
place = "{210, 10}";
type = Stem;
},
{
place = "{38, 11}";
type = Stem;
},
{
horizontal = 1;
place = "{-8, 21}";
target = up;
type = BottomGhost;
}
);
layerId = "C15651A9-B5F1-4E52-8FDA-4ECDAD7E1480";
paths = (
{
closed = 1;
nodes = (
"50 921 LINE SMOOTH",
"27 897 OFFCURVE",
"4 874 OFFCURVE",
"-19 851 CURVE",
"-19 843 LINE SMOOTH",
"-19 828 OFFCURVE",
"67 776 OFFCURVE",
"82 748 CURVE",
"82 742 OFFCURVE",
"112 741 OFFCURVE",
"142 741 CURVE SMOOTH",
"174 741 OFFCURVE",
"217 745 OFFCURVE",
"230 752 CURVE",
"223 758 LINE",
"207 770 OFFCURVE",
"194 786 OFFCURVE",
"181 800 CURVE SMOOTH",
"142 842 OFFCURVE",
"99 890 OFFCURVE",
"53 924 CURVE"
);
},
{
closed = 1;
nodes = (
"53 910 LINE",
"97 877 OFFCURVE",
"136 834 OFFCURVE",
"174 793 CURVE",
"185 780 OFFCURVE",
"196 767 OFFCURVE",
"209 756 CURVE",
"193 752 OFFCURVE",
"163 750 OFFCURVE",
"138 750 CURVE SMOOTH",
"116 750 OFFCURVE",
"96 752 OFFCURVE",
"89 754 CURVE",
"78 776 OFFCURVE",
"12 827 OFFCURVE",
"-10 847 CURVE"
);
},
{
closed = 1;
nodes = (
"222 708 LINE",
"201 708 OFFCURVE",
"180 707 OFFCURVE",
"160 707 CURVE SMOOTH",
"122 707 OFFCURVE",
"84 713 OFFCURVE",
"47 713 CURVE",
"38 704 OFFCURVE",
"36 645 OFFCURVE",
"35 622 CURVE SMOOTH",
"33 588 OFFCURVE",
"32 555 OFFCURVE",
"32 521 CURVE SMOOTH",
"32 402 OFFCURVE",
"38 284 OFFCURVE",
"38 167 CURVE SMOOTH",
"38 110 OFFCURVE",
"37 49 OFFCURVE",
"34 -8 CURVE",
"77 2 OFFCURVE",
"117 -11 OFFCURVE",
"168 -11 CURVE SMOOTH",
"194 -11 OFFCURVE",
"213 -8 OFFCURVE",
"226 5 CURVE",
"221 79 OFFCURVE",
"220 153 OFFCURVE",
"220 227 CURVE SMOOTH",
"220 386 OFFCURVE",
"229 550 OFFCURVE",
"229 709 CURVE"
);
},
{
closed = 1;
nodes = (
"210 153 OFFCURVE",
"211 80 OFFCURVE",
"216 7 CURVE",
"202 7 OFFCURVE",
"184 0 OFFCURVE",
"164 0 CURVE SMOOTH",
"132 0 OFFCURVE",
"96 4 OFFCURVE",
"69 4 CURVE SMOOTH",
"59 4 OFFCURVE",
"51 3 OFFCURVE",
"44 2 CURVE",
"47 71 OFFCURVE",
"49 139 OFFCURVE",
"49 207 CURVE SMOOTH",
"49 314 OFFCURVE",
"43 420 OFFCURVE",
"43 527 CURVE SMOOTH",
"43 586 OFFCURVE",
"45 644 OFFCURVE",
"52 703 CURVE",
"88 703 OFFCURVE",
"123 697 OFFCURVE",
"159 697 CURVE SMOOTH",
"178 697 OFFCURVE",
"197 698 OFFCURVE",
"217 698 CURVE",
"217 540 OFFCURVE",
"210 383 OFFCURVE",
"210 226 CURVE SMOOTH"
);
}
);
width = 260;
}
);
note = Igrave;
rightKerningGroup = I;
unicode = 00CC;
},
{
glyphname = J;
layers = (
{
hints = (
{
horizontal = 1;
place = "{-14, 12}";
type = Stem;
},
{
horizontal = 1;
place = "{159, 11}";
type = Stem;
},
{
horizontal = 1;
place = "{289, 10}";
type = Stem;
},
{
horizontal = 1;
place = "{706, 11}";
type = Stem;
},
{
place = "{-5, 11}";
type = Stem;
},
{
place = "{154, 10}";
type = Stem;
},
{
place = "{272, 8}";
type = Stem;
},
{
place = "{417, 17}";
type = Stem;
},
{
place = "{422, 9}";
type = Stem;
},
{
place = "{275, 10}";
type = Stem;
}
);
layerId = "C15651A9-B5F1-4E52-8FDA-4ECDAD7E1480";
paths = (
{
closed = 1;
nodes = (
"429 679 OFFCURVE",
"430 695 OFFCURVE",
"430 712 CURVE",
"425 717 LINE",
"376 716 OFFCURVE",
"327 716 OFFCURVE",
"279 715 CURVE",
"274 709 LINE",
"274 608 OFFCURVE",
"272 506 OFFCURVE",
"272 404 CURVE SMOOTH",
"272 352 OFFCURVE",
"275 310 OFFCURVE",
"275 251 CURVE SMOOTH",
"275 217 OFFCURVE",
"269 183 OFFCURVE",
"237 170 CURVE",
"223 170 LINE",
"216 172 OFFCURVE",
"210 171 OFFCURVE",
"203 175 CURVE SMOOTH",
"168 195 OFFCURVE",
"164 251 OFFCURVE",
"164 286 CURVE",
"159 296 OFFCURVE",
"102 299 OFFCURVE",
"61 299 CURVE SMOOTH",
"3 299 OFFCURVE",
"-5 288 OFFCURVE",
"-5 268 CURVE SMOOTH",
"-5 140 OFFCURVE",
"24 -14 OFFCURVE",
"192 -14 CURVE SMOOTH",
"282 -14 OFFCURVE",
"352 16 OFFCURVE",
"391 73 CURVE SMOOTH",
"430 130 OFFCURVE",
"430 211 OFFCURVE",
"431 277 CURVE SMOOTH",
"432 340 OFFCURVE",
"434 398 OFFCURVE",
"434 464 CURVE SMOOTH",
"434 530 OFFCURVE",
"429 596 OFFCURVE",
"429 662 CURVE SMOOTH"
);
},
{
closed = 1;
nodes = (
"419 227 OFFCURVE",
"423 146 OFFCURVE",
"383 78 CURVE SMOOTH",
"345 13 OFFCURVE",
"264 -2 OFFCURVE",
"194 -2 CURVE SMOOTH",
"154 -2 OFFCURVE",
"116 3 OFFCURVE",
"85 25 CURVE SMOOTH",
"28 64 OFFCURVE",
"6 174 OFFCURVE",
"6 249 CURVE SMOOTH",
"6 262 OFFCURVE",
"7 274 OFFCURVE",
"8 284 CURVE",
"28 287 OFFCURVE",
"49 289 OFFCURVE",
"69 289 CURVE SMOOTH",
"98 289 OFFCURVE",
"127 286 OFFCURVE",
"154 282 CURVE",
"154 234 OFFCURVE",
"165 159 OFFCURVE",
"230 159 CURVE SMOOTH",
"276 159 OFFCURVE",
"285 213 OFFCURVE",
"285 249 CURVE SMOOTH",
"285 342 OFFCURVE",
"280 433 OFFCURVE",
"280 526 CURVE SMOOTH",
"280 586 OFFCURVE",
"284 645 OFFCURVE",
"284 705 CURVE",
"329 706 OFFCURVE",
"374 706 OFFCURVE",
"419 707 CURVE",
"418 684 OFFCURVE",
"417 661 OFFCURVE",
"417 637 CURVE SMOOTH",
"417 549 OFFCURVE",
"423 461 OFFCURVE",
"423 373 CURVE SMOOTH",
"423 350 OFFCURVE",
"423 327 OFFCURVE",
"422 304 CURVE SMOOTH"
);
}
);
width = 463;
}
);
leftKerningGroup = J;
note = J;
rightKerningGroup = J;
unicode = 004A;
},
{
glyphname = K;
layers = (
{
hints = (
{
horizontal = 1;
place = "{-6, 10}";
type = Stem;
},
{
horizontal = 1;
place = "{693, 9}";
type = Stem;
},
{
place = "{32, 10}";
type = Stem;
},
{
place = "{174, 12}";
type = Stem;
},
{
place = "{288, 9}";
type = Stem;
},
{
place = "{456, 11}";
type = Stem;
},
{
horizontal = 1;
place = "{-9, 11}";
type = Stem;
},
{
horizontal = 1;
place = "{245, 20.5}";
type = Stem;
},
{
place = "{179, 10}";
type = Stem;
},
{
horizontal = 1;
place = "{-2, 21}";
target = up;
type = BottomGhost;
}
);
layerId = "C15651A9-B5F1-4E52-8FDA-4ECDAD7E1480";
paths = (
{
closed = 1;
nodes = (
"468 6 LINE",
"297 359 LINE",
"345 475 OFFCURVE",
"431 572 OFFCURVE",
"467 693 CURVE",
"464 701 OFFCURVE",
"451 702 OFFCURVE",
"439 702 CURVE SMOOTH",
"414 702 OFFCURVE",
"388 700 OFFCURVE",
"363 700 CURVE SMOOTH",
"351 700 OFFCURVE",
"339 701 OFFCURVE",
"327 703 CURVE",
"325 702 OFFCURVE",
"323 701 OFFCURVE",
"322 700 CURVE",
"287 648 OFFCURVE",
"261 593 OFFCURVE",
"230 538 CURVE SMOOTH",
"218 518 OFFCURVE",
"199 495 OFFCURVE",
"186 475 CURVE",
"186 549 OFFCURVE",
"186 623 OFFCURVE",
"184 697 CURVE",
"182 699 OFFCURVE",
"180 700 OFFCURVE",
"179 702 CURVE",
"134 702 OFFCURVE",
"89 704 OFFCURVE",
"45 704 CURVE",
"40 698 LINE",
"40 537 OFFCURVE",
"32 376 OFFCURVE",
"32 215 CURVE SMOOTH",
"32 145 OFFCURVE",
"34 74 OFFCURVE",
"38 4 CURVE",
"48 -6 OFFCURVE",
"77 -9 OFFCURVE",
"108 -9 CURVE SMOOTH",
"144 -9 OFFCURVE",
"189 -6 OFFCURVE",
"194 5 CURVE",
"194 71 OFFCURVE",
"189 137 OFFCURVE",
"189 203 CURVE SMOOTH",
"189 217 OFFCURVE",
"189 231 OFFCURVE",
"190 245 CURVE",
"231 161 OFFCURVE",
"262 71 OFFCURVE",
"321 -2 CURVE",
"344 -2 OFFCURVE",
"368 -6 OFFCURVE",
"391 -6 CURVE SMOOTH",
"416 -6 OFFCURVE",
"440 -5 OFFCURVE",
"464 -1 CURVE"
);
},
{
closed = 1;
nodes = (
"369 4 OFFCURVE",
"348 5 OFFCURVE",
"327 7 CURVE",
"266 83 OFFCURVE",
"236 179 OFFCURVE",
"191 265 CURVE",
"179 266 LINE",
"179 265 OFFCURVE",
"180 263 OFFCURVE",
"181 262 CURVE",
"180 242 OFFCURVE",
"179 222 OFFCURVE",
"179 202 CURVE SMOOTH",
"179 137 OFFCURVE",
"184 73 OFFCURVE",
"184 9 CURVE",
"170 4 OFFCURVE",
"138 2 OFFCURVE",
"107 2 CURVE SMOOTH",
"82 2 OFFCURVE",
"59 3 OFFCURVE",
"47 8 CURVE",
"43 73 OFFCURVE",
"42 139 OFFCURVE",
"42 204 CURVE SMOOTH",
"42 368 OFFCURVE",
"50 531 OFFCURVE",
"50 694 CURVE",
"91 694 OFFCURVE",
"133 692 OFFCURVE",
"174 692 CURVE",
"175 671 OFFCURVE",
"175 649 OFFCURVE",
"175 628 CURVE SMOOTH",
"175 599 OFFCURVE",
"174 570 OFFCURVE",
"174 541 CURVE SMOOTH",
"174 517 OFFCURVE",
"174 456 OFFCURVE",
"176 456 CURVE",
"176 456 OFFCURVE",
"176 456 OFFCURVE",
"176 457 CURVE",
"186 454 LINE",
"186 455 OFFCURVE",
"187 456 OFFCURVE",
"187 457 CURVE",
"225 495 OFFCURVE",
"249 553 OFFCURVE",
"273 600 CURVE SMOOTH",
"290 633 OFFCURVE",
"307 662 OFFCURVE",
"328 692 CURVE",
"337 691 OFFCURVE",
"347 690 OFFCURVE",
"357 690 CURVE SMOOTH",
"380 690 OFFCURVE",
"403 693 OFFCURVE",
"426 693 CURVE SMOOTH",
"436 693 OFFCURVE",
"446 692 OFFCURVE",
"456 691 CURVE",
"421 572 OFFCURVE",
"334 475 OFFCURVE",
"288 361 CURVE",
"288 357 LINE",
"456 8 LINE",
"434 5 OFFCURVE",
"412 4 OFFCURVE",
"391 4 CURVE SMOOTH"
);
}
);
width = 459;
}
);
note = K;
rightKerningGroup = K;
unicode = 004B;
},
{
glyphname = L;
layers = (
{
hints = (
{
horizontal = 1;
place = "{-6, 10.5}";
type = Stem;
},
{
horizontal = 1;
place = "{145, 10}";
type = Stem;
},
{
horizontal = 1;
place = "{707, 11}";
type = Stem;
},
{
place = "{34, 15}";
type = Stem;
},
{
place = "{191, 10}";
type = Stem;
},
{
place = "{456, 9}";
type = Stem;
},
{
horizontal = 1;
place = "{-9, 13.5}";
type = Stem;
}
);
layerId = "C15651A9-B5F1-4E52-8FDA-4ECDAD7E1480";
paths = (
{
closed = 1;
nodes = (
"462 93 LINE",
"461 97 OFFCURVE",
"460 101 OFFCURVE",
"460 105 CURVE SMOOTH",
"460 117 OFFCURVE",
"464 131 OFFCURVE",
"464 144 CURVE SMOOTH",
"464 151 OFFCURVE",
"461 152 OFFCURVE",
"459 157 CURVE",
"452 156 OFFCURVE",
"445 155 OFFCURVE",
"438 155 CURVE SMOOTH",
"361 155 OFFCURVE",
"283 164 OFFCURVE",
"205 164 CURVE",
"205 310 OFFCURVE",
"201 456 OFFCURVE",
"201 603 CURVE SMOOTH",
"201 635 OFFCURVE",
"201 668 OFFCURVE",
"204 700 CURVE",
"197 713 OFFCURVE",
"136 718 OFFCURVE",
"102 718 CURVE SMOOTH",
"77 718 OFFCURVE",
"53 715 OFFCURVE",
"37 708 CURVE",
"34 702 LINE",
"34 592 OFFCURVE",
"39 484 OFFCURVE",
"39 375 CURVE SMOOTH",
"39 250 OFFCURVE",
"31 125 OFFCURVE",
"31 0 CURVE",
"36 -6 LINE",
"109 -6 OFFCURVE",
"184 -9 OFFCURVE",
"258 -9 CURVE SMOOTH",
"306 -9 OFFCURVE",
"344 -7 OFFCURVE",
"400 -7 CURVE SMOOTH",
"469 -7 OFFCURVE",
"465 1 OFFCURVE",
"465 36 CURVE SMOOTH",
"465 56 OFFCURVE",
"462 80 OFFCURVE",
"462 91 CURVE SMOOTH"
);
},
{
closed = 1;
nodes = (
"450 104 OFFCURVE",
"451 96 OFFCURVE",
"452 90 CURVE",
"452 74 OFFCURVE",
"456 55 OFFCURVE",
"456 38 CURVE SMOOTH",
"456 26 OFFCURVE",
"454 15 OFFCURVE",
"449 5 CURVE",
"313 5 OFFCURVE",
"177 4 OFFCURVE",
"41 4 CURVE",
"41 126 OFFCURVE",
"49 250 OFFCURVE",
"49 373 CURVE SMOOTH",
"49 482 OFFCURVE",
"44 590 OFFCURVE",
"44 699 CURVE",
"69 704 OFFCURVE",
"95 707 OFFCURVE",
"120 707 CURVE SMOOTH",
"145 707 OFFCURVE",
"170 704 OFFCURVE",
"194 697 CURVE",
"191 665 OFFCURVE",
"191 632 OFFCURVE",
"191 600 CURVE SMOOTH",
"191 453 OFFCURVE",
"195 306 OFFCURVE",
"195 159 CURVE",
"201 153 LINE",
"207 154 OFFCURVE",
"214 154 OFFCURVE",
"220 154 CURVE SMOOTH",
"287 154 OFFCURVE",
"367 145 OFFCURVE",
"434 145 CURVE SMOOTH",
"441 145 OFFCURVE",
"447 145 OFFCURVE",
"454 146 CURVE",
"454 142 LINE",
"451 134 OFFCURVE",
"450 123 OFFCURVE",
"450 112 CURVE SMOOTH"
);
}
);
width = 461;
}
);
note = L;
rightKerningGroup = L;
unicode = 004C;
},
{
glyphname = M;
layers = (
{
hints = (
{
horizontal = 1;
place = "{-6, 10}";
type = Stem;
},
{
horizontal = 1;
place = "{687, 11}";
type = Stem;
},
{
place = "{36, 7}";
type = Stem;
},
{
place = "{173, 10}";
type = Stem;
},
{
place = "{316, 10}";
type = Stem;
},
{
place = "{456, 10}";
type = Stem;
},
{
horizontal = 1;
place = "{238, 10}";
type = Stem;
},
{
horizontal = 1;
place = "{532, 10}";
type = Stem;
},
{
place = "{453, 10}";
type = Stem;
},
{
horizontal = 1;
place = "{-6, 14}";
type = Stem;
}
);
layerId = "C15651A9-B5F1-4E52-8FDA-4ECDAD7E1480";
paths = (
{
closed = 1;
nodes = (
"456 -6 LINE",
"461 -1 LINE",
"462 129 OFFCURVE",
"466 263 OFFCURVE",
"466 394 CURVE SMOOTH",
"466 465 OFFCURVE",
"463 536 OFFCURVE",
"463 608 CURVE SMOOTH",
"463 637 OFFCURVE",
"463 667 OFFCURVE",
"465 697 CURVE",
"463 699 OFFCURVE",
"461 700 OFFCURVE",
"460 702 CURVE",
"415 702 OFFCURVE",
"373 696 OFFCURVE",
"330 696 CURVE SMOOTH",
"324 696 OFFCURVE",
"318 697 OFFCURVE",
"313 698 CURVE",
"272 657 OFFCURVE",
"277 590 OFFCURVE",
"252 542 CURVE",
"218 579 OFFCURVE",
"219 658 OFFCURVE",
"181 696 CURVE",
"162 696 OFFCURVE",
"130 698 OFFCURVE",
"100 698 CURVE SMOOTH",
"76 698 OFFCURVE",
"54 697 OFFCURVE",
"42 691 CURVE",
"39 685 LINE",
"39 548 OFFCURVE",
"36 410 OFFCURVE",
"36 273 CURVE SMOOTH",
"36 68 LINE SMOOTH",
"36 25 OFFCURVE",
"36 -6 OFFCURVE",
"57 -6 CURVE SMOOTH",
"66 -6 OFFCURVE",
"78 -5 OFFCURVE",
"95 -5 CURVE SMOOTH",
"110 -5 OFFCURVE",
"129 -6 OFFCURVE",
"144 -6 CURVE SMOOTH",
"162 -6 OFFCURVE",
"189 -5 OFFCURVE",
"193 3 CURVE",
"188 84 OFFCURVE",
"183 165 OFFCURVE",
"183 245 CURVE SMOOTH",
"183 283 OFFCURVE",
"184 320 OFFCURVE",
"187 358 CURVE",
"191 349 OFFCURVE",
"193 340 OFFCURVE",
"197 330 CURVE",
"203 312 OFFCURVE",
"227 238 OFFCURVE",
"248 238 CURVE",
"279 269 OFFCURVE",
"289 328 OFFCURVE",
"307 372 CURVE",
"315 290 OFFCURVE",
"316 206 OFFCURVE",
"316 125 CURVE SMOOTH",
"316 98 OFFCURVE",
"315 73 OFFCURVE",
"315 45 CURVE SMOOTH",
"315 2 OFFCURVE",
"313 -6 OFFCURVE",
"351 -6 CURVE SMOOTH",
"373 -6 OFFCURVE",
"394 -3 OFFCURVE",
"417 -3 CURVE"
);
},
{
closed = 1;
nodes = (
"385 8 OFFCURVE",
"373 7 OFFCURVE",
"365 5 CURVE",
"328 5 LINE",
"326 23 OFFCURVE",
"325 42 OFFCURVE",
"325 60 CURVE SMOOTH",
"325 82 OFFCURVE",
"326 104 OFFCURVE",
"326 126 CURVE SMOOTH",
"326 213 OFFCURVE",
"326 303 OFFCURVE",
"315 389 CURVE",
"312 390 OFFCURVE",
"309 391 OFFCURVE",
"307 393 CURVE",
"280 366 OFFCURVE",
"273 281 OFFCURVE",
"246 248 CURVE",
"234 248 OFFCURVE",
"190 371 OFFCURVE",
"190 382 CURVE",
"189 382 LINE",
"189 383 OFFCURVE",
"190 384 OFFCURVE",
"190 385 CURVE",
"183 382 LINE",
"182 382 OFFCURVE",
"181 383 OFFCURVE",
"180 383 CURVE",
"180 381 LINE",
"175 335 OFFCURVE",
"173 288 OFFCURVE",
"173 242 CURVE SMOOTH",
"173 164 OFFCURVE",
"178 86 OFFCURVE",
"183 7 CURVE",
"164 4 OFFCURVE",
"145 4 OFFCURVE",
"126 4 CURVE SMOOTH",
"100 4 OFFCURVE",
"74 5 OFFCURVE",
"49 5 CURVE",
"49 7 LINE",
"45 43 OFFCURVE",
"43 80 OFFCURVE",
"43 117 CURVE SMOOTH",
"43 307 OFFCURVE",
"49 494 OFFCURVE",
"49 682 CURVE",
"71 686 OFFCURVE",
"95 687 OFFCURVE",
"118 687 CURVE SMOOTH",
"138 687 OFFCURVE",
"159 686 OFFCURVE",
"179 686 CURVE",
"220 640 OFFCURVE",
"220 532 OFFCURVE",
"254 532 CURVE",
"255 533 OFFCURVE",
"256 533 OFFCURVE",
"258 534 CURVE",
"278 554 OFFCURVE",
"287 654 OFFCURVE",
"314 687 CURVE",
"320 686 OFFCURVE",
"328 685 OFFCURVE",
"337 685 CURVE SMOOTH",
"373 685 OFFCURVE",
"427 692 OFFCURVE",
"455 692 CURVE",
"453 663 OFFCURVE",
"453 634 OFFCURVE",
"453 604 CURVE SMOOTH",
"453 528 OFFCURVE",
"456 452 OFFCURVE",
"456 376 CURVE SMOOTH",
"456 252 OFFCURVE",
"451 127 OFFCURVE",
"451 5 CURVE",
"436 7 OFFCURVE",
"416 8 OFFCURVE",
"398 8 CURVE SMOOTH"
);
}
);
width = 501;
}
);
note = M;
rightKerningGroup = I;
unicode = 004D;
},
{
glyphname = N;
layers = (
{
hints = (
{
horizontal = 1;
place = "{-5, 10}";
type = Stem;
},
{
horizontal = 1;
place = "{410, 16}";
type = Stem;
},
{
horizontal = 1;
place = "{700, 15}";
type = Stem;
},
{
place = "{33, 10}";
type = Stem;
},
{
place = "{171, 10}";
type = Stem;
},
{
place = "{315, 10}";
type = Stem;
},
{
place = "{451, 10.5}";
type = Stem;
},
{
horizontal = 1;
place = "{0, 21}";
target = up;
type = BottomGhost;
},
{
horizontal = 1;
place = "{699, 9}";
type = Stem;
},
{
horizontal = 1;
place = "{-13, 13}";
type = Stem;
},
{
place = "{173, 11}";
type = Stem;
}
);
layerId = "C15651A9-B5F1-4E52-8FDA-4ECDAD7E1480";
paths = (
{
closed = 1;
nodes = (
"363 -5 OFFCURVE",
"393 -10 OFFCURVE",
"424 -10 CURVE SMOOTH",
"436 -10 OFFCURVE",
"445 -10 OFFCURVE",
"456 -5 CURVE",
"457 -5 LINE",
"458 -3 OFFCURVE",
"460 -2 OFFCURVE",
"462 0 CURVE",
"462 235 OFFCURVE",
"461 469 OFFCURVE",
"461 704 CURVE",
"455 715 OFFCURVE",
"406 715 OFFCURVE",
"390 715 CURVE SMOOTH",
"366 715 OFFCURVE",
"334 715 OFFCURVE",
"313 705 CURVE",
"311 687 OFFCURVE",
"310 668 OFFCURVE",
"310 650 CURVE SMOOTH",
"310 599 OFFCURVE",
"315 549 OFFCURVE",
"315 498 CURVE SMOOTH",
"315 474 OFFCURVE",
"314 450 OFFCURVE",
"311 426 CURVE",
"295 459 OFFCURVE",
"277 491 OFFCURVE",
"262 525 CURVE SMOOTH",
"253 544 OFFCURVE",
"240 562 OFFCURVE",
"233 582 CURVE",
"233 605 OFFCURVE",
"181 671 OFFCURVE",
"181 695 CURVE",
"173 710 OFFCURVE",
"122 708 OFFCURVE",
"103 708 CURVE",
"100 709 OFFCURVE",
"95 710 OFFCURVE",
"90 710 CURVE SMOOTH",
"73 710 OFFCURVE",
"57 708 OFFCURVE",
"43 701 CURVE",
"35 601 OFFCURVE",
"33 501 OFFCURVE",
"33 401 CURVE SMOOTH",
"33 268 OFFCURVE",
"37 135 OFFCURVE",
"37 2 CURVE",
"46 -7 OFFCURVE",
"99 -13 OFFCURVE",
"124 -13 CURVE SMOOTH",
"142 -13 OFFCURVE",
"174 -13 OFFCURVE",
"187 0 CURVE",
"182 48 OFFCURVE",
"184 101 OFFCURVE",
"184 150 CURVE SMOOTH",
"184 208 OFFCURVE",
"185 266 OFFCURVE",
"190 321 CURVE",
"207 279 OFFCURVE",
"220 237 OFFCURVE",
"237 196 CURVE SMOOTH",
"264 129 OFFCURVE",
"298 64 OFFCURVE",
"328 -2 CURVE",
"329 -3 OFFCURVE",
"330 -4 OFFCURVE",
"332 -5 CURVE"
);
},
{
closed = 1;
nodes = (
"442 4 OFFCURVE",
"433 0 OFFCURVE",
"424 0 CURVE SMOOTH",
"389 0 OFFCURVE",
"379 5 OFFCURVE",
"335 5 CURVE",
"306 70 OFFCURVE",
"273 134 OFFCURVE",
"246 200 CURVE SMOOTH",
"227 245 OFFCURVE",
"213 293 OFFCURVE",
"194 339 CURVE",
"192 340 OFFCURVE",
"190 341 OFFCURVE",
"189 342 CURVE",
"188 342 LINE SMOOTH",
"179 342 OFFCURVE",
"177 309 OFFCURVE",
"177 282 CURVE SMOOTH",
"177 268 OFFCURVE",
"178 256 OFFCURVE",
"178 253 CURVE SMOOTH",
"177 196 OFFCURVE",
"173 139 OFFCURVE",
"173 82 CURVE SMOOTH",
"173 56 OFFCURVE",
"174 29 OFFCURVE",
"176 3 CURVE",
"166 0 OFFCURVE",
"155 3 OFFCURVE",
"145 0 CURVE",
"104 0 OFFCURVE",
"92 6 OFFCURVE",
"47 6 CURVE",
"47 137 OFFCURVE",
"43 269 OFFCURVE",
"43 401 CURVE SMOOTH",
"43 499 OFFCURVE",
"45 598 OFFCURVE",
"53 696 CURVE",
"56 697 OFFCURVE",
"59 697 OFFCURVE",
"63 697 CURVE SMOOTH",
"71 697 LINE SMOOTH",
"75 697 OFFCURVE",
"79 697 OFFCURVE",
"82 699 CURVE",
"99 699 LINE",
"108 694 OFFCURVE",
"151 696 OFFCURVE",
"171 691 CURVE",
"176 665 OFFCURVE",
"212 606 OFFCURVE",
"223 580 CURVE",
"225 563 OFFCURVE",
"246 534 OFFCURVE",
"253 521 CURVE",
"262 502 OFFCURVE",
"297 410 OFFCURVE",
"312 410 CURVE SMOOTH",
"313 410 LINE",
"324 421 OFFCURVE",
"325 440 OFFCURVE",
"325 459 CURVE SMOOTH",
"325 520 OFFCURVE",
"320 576 OFFCURVE",
"320 635 CURVE SMOOTH",
"320 657 OFFCURVE",
"321 678 OFFCURVE",
"323 700 CURVE",
"345 703 OFFCURVE",
"367 705 OFFCURVE",
"389 705 CURVE SMOOTH",
"410 705 OFFCURVE",
"430 703 OFFCURVE",
"451 700 CURVE",
"451 467 OFFCURVE",
"452 237 OFFCURVE",
"452 5 CURVE"
);
}
);
width = 498;
}
);
note = N;
rightKerningGroup = I;
unicode = 004E;
},
{
glyphname = Ntilde;
layers = (
{
hints = (
{
horizontal = 1;
place = "{-10, 8}";
type = Stem;
},
{
horizontal = 1;
place = "{702, 9}";
type = Stem;
},
{
horizontal = 1;
place = "{748, 11}";
type = Stem;
},
{
horizontal = 1;
place = "{815, 13}";
type = Stem;
},
{
horizontal = 1;
place = "{906, 10}";
type = Stem;
},
{
place = "{32, 10}";
type = Stem;
},
{
place = "{167, 12}";
type = Stem;
},
{
place = "{194, 10}";
type = Stem;
},
{
place = "{308, 9}";
type = Stem;
},
{
place = "{469, 9}";
type = Stem;
},
{
horizontal = 1;
place = "{742, 10}";
type = Stem;
},
{
horizontal = 1;
place = "{839, 10}";
type = Stem;
},
{
place = "{459, 9}";
type = Stem;
},
{
horizontal = 1;
place = "{914, 11}";
type = Stem;
},
{
horizontal = 1;
place = "{472, 15}";
type = Stem;
},
{
place = "{189, 10}";
type = Stem;
},
{
horizontal = 1;
place = "{-5, 12}";
type = Stem;
},
{
horizontal = 1;
place = "{698, 10}";
type = Stem;
},
{
horizontal = 1;
place = "{270, 25}";
type = Stem;
},
{
horizontal = 1;
place = "{-14, 10}";
type = Stem;
},
{
horizontal = 1;
place = "{-8, 12}";
type = Stem;
}
);
layerId = "C15651A9-B5F1-4E52-8FDA-4ECDAD7E1480";
paths = (
{
closed = 1;
nodes = (
"184 747 LINE",
"184 758 OFFCURVE",
"179 770 OFFCURVE",
"179 778 CURVE SMOOTH",
"179 786 OFFCURVE",
"181 790 OFFCURVE",
"187 802 CURVE",
"192 807 LINE",
"200 811 OFFCURVE",
"219 815 OFFCURVE",
"232 815 CURVE SMOOTH",
"244 815 OFFCURVE",
"255 805 OFFCURVE",
"260 796 CURVE",
"269 760 OFFCURVE",
"311 742 OFFCURVE",
"350 742 CURVE SMOOTH",
"426 742 OFFCURVE",
"468 819 OFFCURVE",
"468 888 CURVE SMOOTH",
"468 896 OFFCURVE",
"466 907 OFFCURVE",
"466 915 CURVE",
"449 916 OFFCURVE",
"431 916 OFFCURVE",
"417 916 CURVE SMOOTH",
"401 916 OFFCURVE",
"385 915 OFFCURVE",
"373 909 CURVE",
"367 884 OFFCURVE",
"350 854 OFFCURVE",
"323 849 CURVE",
"276 858 OFFCURVE",
"272 925 OFFCURVE",
"196 925 CURVE SMOOTH",
"113 925 OFFCURVE",
"70 819 OFFCURVE",
"51 748 CURVE",
"91 750 OFFCURVE",
"136 750 OFFCURVE",
"176 747 CURVE"
);
},
{
closed = 1;
nodes = (
"216 914 OFFCURVE",
"239 909 OFFCURVE",
"257 895 CURVE SMOOTH",
"280 877 OFFCURVE",
"295 839 OFFCURVE",
"323 839 CURVE SMOOTH",
"337 839 OFFCURVE",
"374 862 OFFCURVE",
"382 903 CURVE",
"384 904 OFFCURVE",
"436 904 OFFCURVE",
"457 906 CURVE",
"458 899 OFFCURVE",
"459 892 OFFCURVE",
"459 885 CURVE SMOOTH",
"459 821 OFFCURVE",
"416 752 OFFCURVE",
"348 752 CURVE SMOOTH",
"274 752 OFFCURVE",
"271 828 OFFCURVE",
"229 828 CURVE SMOOTH",
"203 828 OFFCURVE",
"167 810 OFFCURVE",
"167 775 CURVE SMOOTH",
"167 769 OFFCURVE",
"168 763 OFFCURVE",
"169 758 CURVE",
"66 760 LINE",
"86 821 OFFCURVE",
"114 914 OFFCURVE",
"195 914 CURVE SMOOTH"
);
},
{
closed = 1;
nodes = (
"478 590 OFFCURVE",
"479 646 OFFCURVE",
"479 702 CURVE",
"471 710 OFFCURVE",
"434 711 OFFCURVE",
"405 711 CURVE SMOOTH",
"388 711 OFFCURVE",
"332 717 OFFCURVE",
"313 698 CURVE",
"313 669 OFFCURVE",
"308 640 OFFCURVE",
"308 610 CURVE SMOOTH",
"308 581 OFFCURVE",
"315 552 OFFCURVE",
"315 523 CURVE SMOOTH",
"315 511 OFFCURVE",
"315 499 OFFCURVE",
"314 487 CURVE",
"287 526 OFFCURVE",
"264 569 OFFCURVE",
"240 609 CURVE",
"242 605 LINE",
"228 631 OFFCURVE",
"209 657 OFFCURVE",
"199 686 CURVE",
"199 688 LINE",
"194 698 OFFCURVE",
"120 708 OFFCURVE",
"90 708 CURVE SMOOTH",
"72 708 OFFCURVE",
"53 706 OFFCURVE",
"43 696 CURVE",
"35 600 OFFCURVE",
"32 503 OFFCURVE",
"32 406 CURVE SMOOTH",
"32 271 OFFCURVE",
"37 136 OFFCURVE",
"37 1 CURVE",
"42 -5 LINE",
"87 -5 OFFCURVE",
"132 -10 OFFCURVE",
"178 -10 CURVE SMOOTH",
"187 -10 OFFCURVE",
"207 -9 OFFCURVE",
"207 0 CURVE",
"205 34 OFFCURVE",
"204 69 OFFCURVE",
"204 103 CURVE SMOOTH",
"204 159 OFFCURVE",
"206 214 OFFCURVE",
"210 270 CURVE",
"243 177 OFFCURVE",
"278 81 OFFCURVE",
"323 -7 CURVE",
"324 -8 OFFCURVE",
"325 -9 OFFCURVE",
"327 -10 CURVE",
"339 -10 OFFCURVE",
"352 -8 OFFCURVE",
"364 -8 CURVE SMOOTH",
"372 -8 OFFCURVE",
"406 -14 OFFCURVE",
"437 -14 CURVE SMOOTH",
"456 -14 OFFCURVE",
"474 -11 OFFCURVE",
"480 1 CURVE",
"480 3 LINE",
"481 21 OFFCURVE",
"482 41 OFFCURVE",
"482 60 CURVE SMOOTH",
"482 226 OFFCURVE",
"478 376 OFFCURVE",
"478 534 CURVE SMOOTH"
);
},
{
closed = 1;
nodes = (
"468 2 LINE",
"458 -3 OFFCURVE",
"447 -4 OFFCURVE",
"436 -4 CURVE SMOOTH",
"409 -4 OFFCURVE",
"379 4 OFFCURVE",
"352 4 CURVE SMOOTH",
"344 4 OFFCURVE",
"336 3 OFFCURVE",
"329 1 CURVE",
"283 96 OFFCURVE",
"247 196 OFFCURVE",
"212 296 CURVE",
"209 295 OFFCURVE",
"205 295 OFFCURVE",
"202 295 CURVE",
"197 228 OFFCURVE",
"194 160 OFFCURVE",
"194 92 CURVE SMOOTH",
"194 62 OFFCURVE",
"194 32 OFFCURVE",
"196 2 CURVE",
"186 -1 OFFCURVE",
"175 -2 OFFCURVE",
"165 -2 CURVE SMOOTH",
"133 -2 OFFCURVE",
"100 7 OFFCURVE",
"70 7 CURVE SMOOTH",
"62 7 OFFCURVE",
"54 5 OFFCURVE",
"47 5 CURVE",
"47 139 OFFCURVE",
"42 274 OFFCURVE",
"42 409 CURVE SMOOTH",
"42 503 OFFCURVE",
"44 598 OFFCURVE",
"53 692 CURVE",
"66 696 OFFCURVE",
"79 698 OFFCURVE",
"93 698 CURVE SMOOTH",
"125 698 OFFCURVE",
"158 689 OFFCURVE",
"189 684 CURVE",
"191 660 OFFCURVE",
"212 638 OFFCURVE",
"222 622 CURVE",
"251 571 OFFCURVE",
"278 520 OFFCURVE",
"312 472 CURVE",
"321 472 LINE",
"325 485 OFFCURVE",
"326 499 OFFCURVE",
"326 513 CURVE SMOOTH",
"326 554 OFFCURVE",
"317 591 OFFCURVE",
"317 630 CURVE SMOOTH",
"317 652 OFFCURVE",
"319 674 OFFCURVE",
"323 695 CURVE",
"339 700 OFFCURVE",
"357 702 OFFCURVE",
"375 702 CURVE SMOOTH",
"407 702 OFFCURVE",
"441 697 OFFCURVE",
"469 697 CURVE",
"469 200 LINE SMOOTH",
"469 158 OFFCURVE",
"471 108 OFFCURVE",
"471 60 CURVE SMOOTH",
"471 40 OFFCURVE",
"471 22 OFFCURVE",
"470 4 CURVE"
);
}
);
width = 516;
}
);
note = Ntilde;
rightKerningGroup = I;
unicode = 00D1;
},
{
glyphname = O;
layers = (
{
hints = (
{
horizontal = 1;
place = "{-21, 11}";
type = Stem;
},
{
horizontal = 1;
place = "{121, 10}";
type = Stem;
},
{
horizontal = 1;
place = "{557, 9}";
type = Stem;
},
{
horizontal = 1;
place = "{696, 10}";
type = Stem;
},
{
place = "{23, 10}";
type = Stem;
},
{
place = "{130, 10}";
type = Stem;
},
{
place = "{321, 10}";
type = Stem;
},
{
place = "{451, 7}";
type = Stem;
}
);
layerId = "C15651A9-B5F1-4E52-8FDA-4ECDAD7E1480";
paths = (
{
closed = 1;
nodes = (
"460 525 OFFCURVE",
"457 559 OFFCURVE",
"442 594 CURVE SMOOTH",
"433 614 OFFCURVE",
"422 637 OFFCURVE",
"405 652 CURVE SMOOTH",
"365 686 OFFCURVE",
"296 706 OFFCURVE",
"233 706 CURVE SMOOTH",
"163 706 OFFCURVE",
"96 683 OFFCURVE",
"63 633 CURVE SMOOTH",
"27 580 OFFCURVE",
"23 508 OFFCURVE",
"23 446 CURVE SMOOTH",
"23 376 OFFCURVE",
"24 312 OFFCURVE",
"28 245 CURVE SMOOTH",
"33 136 OFFCURVE",
"9 -21 OFFCURVE",
"214 -21 CURVE SMOOTH",
"292 -21 OFFCURVE",
"378 6 OFFCURVE",
"413 55 CURVE SMOOTH",
"469 133 OFFCURVE",
"458 317 OFFCURVE",
"458 399 CURVE SMOOTH",
"458 430 OFFCURVE",
"460 460 OFFCURVE",
"460 487 CURVE SMOOTH"
);
},
{
closed = 1;
nodes = (
"339 696 OFFCURVE",
"401 662 OFFCURVE",
"433 590 CURVE SMOOTH",
"447 557 OFFCURVE",
"451 522 OFFCURVE",
"451 486 CURVE SMOOTH",
"451 453 OFFCURVE",
"448 420 OFFCURVE",
"448 389 CURVE SMOOTH",
"448 365 OFFCURVE",
"449 335 OFFCURVE",
"449 303 CURVE SMOOTH",
"449 217 OFFCURVE",
"443 114 OFFCURVE",
"405 61 CURVE SMOOTH",
"372 15 OFFCURVE",
"289 -10 OFFCURVE",
"213 -10 CURVE SMOOTH",
"136 -10 OFFCURVE",
"83 12 OFFCURVE",
"59 69 CURVE",
"33 122 OFFCURVE",
"41 189 OFFCURVE",
"38 246 CURVE SMOOTH",
"34 315 OFFCURVE",
"33 378 OFFCURVE",
"33 452 CURVE SMOOTH",
"33 512 OFFCURVE",
"38 579 OFFCURVE",
"71 628 CURVE SMOOTH",
"101 674 OFFCURVE",
"172 696 OFFCURVE",
"242 696 CURVE SMOOTH"
);
},
{
closed = 1;
nodes = (
"333 418 LINE",
"321 480 OFFCURVE",
"328 566 OFFCURVE",
"246 566 CURVE SMOOTH",
"154 566 OFFCURVE",
"130 455 OFFCURVE",
"130 375 CURVE SMOOTH",
"130 356 OFFCURVE",
"131 336 OFFCURVE",
"132 318 CURVE SMOOTH",
"138 230 OFFCURVE",
"136 121 OFFCURVE",
"236 121 CURVE SMOOTH",
"278 121 OFFCURVE",
"331 149 OFFCURVE",
"331 203 CURVE SMOOTH",
"331 257 OFFCURVE",
"334 308 OFFCURVE",
"334 361 CURVE SMOOTH",
"334 379 OFFCURVE",
"333 397 OFFCURVE",
"333 416 CURVE SMOOTH"
);
},
{
closed = 1;
nodes = (
"325 489 OFFCURVE",
"316 451 OFFCURVE",
"323 415 CURVE",
"323 397 OFFCURVE",
"324 379 OFFCURVE",
"324 361 CURVE SMOOTH",
"324 309 OFFCURVE",
"321 258 OFFCURVE",
"321 204 CURVE SMOOTH",
"321 153 OFFCURVE",
"278 131 OFFCURVE",
"241 131 CURVE SMOOTH",
"214 131 OFFCURVE",
"186 142 OFFCURVE",
"167 161 CURVE",
"150 194 OFFCURVE",
"151 232 OFFCURVE",
"148 268 CURVE SMOOTH",
"145 304 OFFCURVE",
"140 342 OFFCURVE",
"140 379 CURVE SMOOTH",
"140 459 OFFCURVE",
"165 557 OFFCURVE",
"243 557 CURVE SMOOTH",
"266 557 OFFCURVE",
"288 546 OFFCURVE",
"304 522 CURVE SMOOTH"
);
}
);
width = 483;
}
);
leftKerningGroup = G;
note = O;
rightKerningGroup = O;
unicode = 004F;
},
{
glyphname = Oacute;
layers = (
{
hints = (
{
horizontal = 1;
place = "{-16, 10}";
type = Stem;
},
{
horizontal = 1;
place = "{126, 10}";
type = Stem;
},
{
horizontal = 1;
place = "{562, 9}";
type = Stem;
},
{
horizontal = 1;
place = "{741, 9}";
type = Stem;
},
{
place = "{24, 10}";
type = Stem;
},
{
place = "{131, 10}";
type = Stem;
},
{
place = "{322, 10}";
type = Stem;
},
{
place = "{395, 11}";
type = Stem;
},
{
place = "{452, 7}";
type = Stem;
},
{
place = "{163, 13}";
type = Stem;
},
{
horizontal = 1;
place = "{701, 10}";
type = Stem;
}
);
layerId = "C15651A9-B5F1-4E52-8FDA-4ECDAD7E1480";
paths = (
{
closed = 1;
nodes = (
"406 850 LINE",
"383 873 OFFCURVE",
"357 907 OFFCURVE",
"330 921 CURVE",
"269 871 OFFCURVE",
"222 808 OFFCURVE",
"163 758 CURVE",
"163 750 LINE",
"169 744 OFFCURVE",
"208 741 OFFCURVE",
"243 741 CURVE SMOOTH",
"280 741 OFFCURVE",
"300 743 OFFCURVE",
"305 748 CURVE",
"317 774 OFFCURVE",
"381 819 OFFCURVE",
"406 844 CURVE"
);
},
{
closed = 1;
nodes = (
"367 820 OFFCURVE",
"309 779 OFFCURVE",
"296 754 CURVE",
"281 751 OFFCURVE",
"265 750 OFFCURVE",
"248 750 CURVE SMOOTH",
"223 750 OFFCURVE",
"198 752 OFFCURVE",
"176 756 CURVE",
"230 806 OFFCURVE",
"276 864 OFFCURVE",
"333 910 CURVE",
"353 889 OFFCURVE",
"374 868 OFFCURVE",
"395 847 CURVE"
);
},
{
closed = 1;
nodes = (
"461 530 OFFCURVE",
"458 564 OFFCURVE",
"443 599 CURVE SMOOTH",
"434 619 OFFCURVE",
"423 642 OFFCURVE",
"406 657 CURVE SMOOTH",
"366 691 OFFCURVE",
"297 711 OFFCURVE",
"234 711 CURVE SMOOTH",
"164 711 OFFCURVE",
"97 688 OFFCURVE",
"64 638 CURVE SMOOTH",
"28 585 OFFCURVE",
"24 513 OFFCURVE",
"24 451 CURVE SMOOTH",
"24 381 OFFCURVE",
"25 317 OFFCURVE",
"29 250 CURVE SMOOTH",
"34 141 OFFCURVE",
"10 -16 OFFCURVE",
"215 -16 CURVE SMOOTH",
"293 -16 OFFCURVE",
"379 11 OFFCURVE",
"414 60 CURVE SMOOTH",
"470 138 OFFCURVE",
"459 322 OFFCURVE",
"459 404 CURVE SMOOTH",
"459 435 OFFCURVE",
"461 465 OFFCURVE",
"461 492 CURVE SMOOTH"
);
},
{
closed = 1;
nodes = (
"340 701 OFFCURVE",
"402 667 OFFCURVE",
"434 595 CURVE SMOOTH",
"448 562 OFFCURVE",
"452 527 OFFCURVE",
"452 491 CURVE SMOOTH",
"452 458 OFFCURVE",
"449 425 OFFCURVE",
"449 394 CURVE SMOOTH",
"449 370 OFFCURVE",
"450 340 OFFCURVE",
"450 308 CURVE SMOOTH",
"450 222 OFFCURVE",
"444 119 OFFCURVE",
"406 66 CURVE SMOOTH",
"373 20 OFFCURVE",
"290 -6 OFFCURVE",
"215 -6 CURVE SMOOTH",
"138 -6 OFFCURVE",
"84 17 OFFCURVE",
"60 74 CURVE",
"34 127 OFFCURVE",
"42 194 OFFCURVE",
"39 251 CURVE SMOOTH",
"35 320 OFFCURVE",
"34 383 OFFCURVE",
"34 457 CURVE SMOOTH",
"34 517 OFFCURVE",
"39 584 OFFCURVE",
"72 633 CURVE SMOOTH",
"102 679 OFFCURVE",
"173 701 OFFCURVE",
"243 701 CURVE SMOOTH"
);
},
{
closed = 1;
nodes = (
"334 423 LINE",
"322 485 OFFCURVE",
"329 571 OFFCURVE",
"247 571 CURVE SMOOTH",
"155 571 OFFCURVE",
"131 460 OFFCURVE",
"131 380 CURVE SMOOTH",
"131 361 OFFCURVE",
"132 341 OFFCURVE",
"133 323 CURVE SMOOTH",
"139 235 OFFCURVE",
"137 126 OFFCURVE",
"237 126 CURVE SMOOTH",
"279 126 OFFCURVE",
"332 154 OFFCURVE",
"332 208 CURVE SMOOTH",
"332 262 OFFCURVE",
"335 313 OFFCURVE",
"335 366 CURVE SMOOTH",
"335 384 OFFCURVE",
"334 402 OFFCURVE",
"334 421 CURVE SMOOTH"
);
},
{
closed = 1;
nodes = (
"326 494 OFFCURVE",
"317 456 OFFCURVE",
"324 420 CURVE",
"324 402 OFFCURVE",
"325 384 OFFCURVE",
"325 366 CURVE SMOOTH",
"325 314 OFFCURVE",
"322 263 OFFCURVE",
"322 209 CURVE SMOOTH",
"322 158 OFFCURVE",
"279 136 OFFCURVE",
"242 136 CURVE SMOOTH",
"215 136 OFFCURVE",
"187 147 OFFCURVE",
"168 166 CURVE",
"151 199 OFFCURVE",
"152 237 OFFCURVE",
"149 273 CURVE SMOOTH",
"146 309 OFFCURVE",
"141 347 OFFCURVE",
"141 384 CURVE SMOOTH",
"141 464 OFFCURVE",
"166 562 OFFCURVE",
"244 562 CURVE SMOOTH",
"267 562 OFFCURVE",
"289 551 OFFCURVE",
"305 527 CURVE SMOOTH"
);
}
);
width = 485;
}
);
leftKerningGroup = G;
note = Oacute;
rightKerningGroup = O;
unicode = 00D3;
},
{
glyphname = Ocircumflex;
layers = (
{
hints = (
{
horizontal = 1;
place = "{-16, 10}";
type = Stem;
},
{
horizontal = 1;
place = "{126, 10}";
type = Stem;
},
{
horizontal = 1;
place = "{562, 9}";
type = Stem;
},
{
horizontal = 1;
place = "{701, 10}";
type = Stem;
},
{
horizontal = 1;
place = "{744, 11}";
type = Stem;
},
{
horizontal = 1;
place = "{794, 10}";
type = Stem;
},
{
horizontal = 1;
place = "{911, 10}";
type = Stem;
},
{
place = "{23, 10}";
type = Stem;
},
{
place = "{130, 10}";
type = Stem;
},
{
place = "{321, 10}";
type = Stem;
},
{
place = "{451, 7}";
type = Stem;
}
);
layerId = "C15651A9-B5F1-4E52-8FDA-4ECDAD7E1480";
paths = (
{
closed = 1;
nodes = (
"414 759 LINE",
"251 921 LINE",
"248 921 OFFCURVE",
"246 921 OFFCURVE",
"244 922 CURVE",
"187 869 OFFCURVE",
"129 820 OFFCURVE",
"82 759 CURVE",
"85 750 LINE",
"107 746 OFFCURVE",
"136 744 OFFCURVE",
"157 744 CURVE SMOOTH",
"215 744 OFFCURVE",
"204 765 OFFCURVE",
"244 794 CURVE",
"252 786 LINE",
"265 760 OFFCURVE",
"285 742 OFFCURVE",
"330 742 CURVE SMOOTH",
"371 742 OFFCURVE",
"384 751 OFFCURVE",
"410 751 CURVE"
);
},
{
closed = 1;
nodes = (
"383 759 OFFCURVE",
"369 755 OFFCURVE",
"355 754 CURVE",
"335 754 OFFCURVE",
"315 755 OFFCURVE",
"295 756 CURVE",
"286 762 LINE",
"273 775 OFFCURVE",
"262 794 OFFCURVE",
"247 804 CURVE",
"241 804 LINE",
"211 784 OFFCURVE",
"216 755 OFFCURVE",
"163 755 CURVE SMOOTH",
"136 755 OFFCURVE",
"102 758 OFFCURVE",
"94 759 CURVE",
"139 816 OFFCURVE",
"194 861 OFFCURVE",
"247 911 CURVE",
"297 861 OFFCURVE",
"347 810 OFFCURVE",
"398 760 CURVE"
);
},
{
closed = 1;
nodes = (
"460 530 OFFCURVE",
"457 564 OFFCURVE",
"442 599 CURVE SMOOTH",
"433 619 OFFCURVE",
"422 642 OFFCURVE",
"405 657 CURVE SMOOTH",
"365 691 OFFCURVE",
"296 711 OFFCURVE",
"233 711 CURVE SMOOTH",
"163 711 OFFCURVE",
"96 688 OFFCURVE",
"63 638 CURVE SMOOTH",
"27 585 OFFCURVE",
"23 513 OFFCURVE",
"23 451 CURVE SMOOTH",
"23 381 OFFCURVE",
"24 317 OFFCURVE",
"28 250 CURVE SMOOTH",
"33 141 OFFCURVE",
"9 -16 OFFCURVE",
"214 -16 CURVE SMOOTH",
"292 -16 OFFCURVE",
"378 11 OFFCURVE",
"413 60 CURVE SMOOTH",
"469 138 OFFCURVE",
"458 322 OFFCURVE",
"458 404 CURVE SMOOTH",
"458 435 OFFCURVE",
"460 465 OFFCURVE",
"460 492 CURVE SMOOTH"
);
},
{
closed = 1;
nodes = (
"339 701 OFFCURVE",
"401 667 OFFCURVE",
"433 595 CURVE SMOOTH",
"447 562 OFFCURVE",
"451 527 OFFCURVE",
"451 491 CURVE SMOOTH",
"451 458 OFFCURVE",
"448 425 OFFCURVE",
"448 394 CURVE SMOOTH",
"448 370 OFFCURVE",
"449 340 OFFCURVE",
"449 308 CURVE SMOOTH",
"449 222 OFFCURVE",
"443 119 OFFCURVE",
"405 66 CURVE SMOOTH",
"372 20 OFFCURVE",
"289 -6 OFFCURVE",
"214 -6 CURVE SMOOTH",
"137 -6 OFFCURVE",
"83 17 OFFCURVE",
"59 74 CURVE",
"33 127 OFFCURVE",
"41 194 OFFCURVE",
"38 251 CURVE SMOOTH",
"34 320 OFFCURVE",
"33 383 OFFCURVE",
"33 457 CURVE SMOOTH",
"33 517 OFFCURVE",
"38 584 OFFCURVE",
"71 633 CURVE SMOOTH",
"101 679 OFFCURVE",
"172 701 OFFCURVE",
"242 701 CURVE SMOOTH"
);
},
{
closed = 1;
nodes = (
"333 423 LINE",
"321 485 OFFCURVE",
"328 571 OFFCURVE",
"246 571 CURVE SMOOTH",
"154 571 OFFCURVE",
"130 460 OFFCURVE",
"130 380 CURVE SMOOTH",
"130 361 OFFCURVE",
"131 341 OFFCURVE",
"132 323 CURVE SMOOTH",
"138 235 OFFCURVE",
"136 126 OFFCURVE",
"236 126 CURVE SMOOTH",
"278 126 OFFCURVE",
"331 154 OFFCURVE",
"331 208 CURVE SMOOTH",
"331 262 OFFCURVE",
"334 313 OFFCURVE",
"334 366 CURVE SMOOTH",
"334 384 OFFCURVE",
"333 402 OFFCURVE",
"333 421 CURVE SMOOTH"
);
},
{
closed = 1;
nodes = (
"325 494 OFFCURVE",
"316 456 OFFCURVE",
"323 420 CURVE",
"323 402 OFFCURVE",
"324 384 OFFCURVE",
"324 366 CURVE SMOOTH",
"324 314 OFFCURVE",
"321 263 OFFCURVE",
"321 209 CURVE SMOOTH",
"321 158 OFFCURVE",
"278 136 OFFCURVE",
"241 136 CURVE SMOOTH",
"214 136 OFFCURVE",
"186 147 OFFCURVE",
"167 166 CURVE",
"150 199 OFFCURVE",
"151 237 OFFCURVE",
"148 273 CURVE SMOOTH",
"145 309 OFFCURVE",
"140 347 OFFCURVE",
"140 384 CURVE SMOOTH",
"140 464 OFFCURVE",
"165 562 OFFCURVE",
"243 562 CURVE SMOOTH",
"266 562 OFFCURVE",
"288 551 OFFCURVE",
"304 527 CURVE SMOOTH"
);
}
);
width = 484;
}
);
leftKerningGroup = G;
note = Ocircumflex;
rightKerningGroup = O;
unicode = 00D4;
},
{
glyphname = Odieresis;
layers = (
{
hints = (
{
horizontal = 1;
place = "{-16, 10}";
type = Stem;
},
{
horizontal = 1;
place = "{562, 9}";
type = Stem;
},
{
horizontal = 1;
place = "{701, 10}";
type = Stem;
},
{
horizontal = 1;
place = "{754, 9}";
type = Stem;
},
{
horizontal = 1;
place = "{864, 10}";
type = Stem;
},
{
place = "{23, 10}";
type = Stem;
},
{
place = "{95, 10}";
type = Stem;
},
{
place = "{203, 16}";
type = Stem;
},
{
place = "{269, 10}";
type = Stem;
},
{
place = "{321, 10}";
type = Stem;
},
{
place = "{377, 16}";
type = Stem;
},
{
place = "{451, 7}";
type = Stem;
},
{
horizontal = 1;
place = "{126, 10}";
type = Stem;
},
{
place = "{130, 10}";
type = Stem;
}
);
layerId = "C15651A9-B5F1-4E52-8FDA-4ECDAD7E1480";
paths = (
{
closed = 1;
nodes = (
"109 754 LINE SMOOTH",
"142 754 OFFCURVE",
"175 753 OFFCURVE",
"208 753 CURVE",
"220 778 OFFCURVE",
"213 828 OFFCURVE",
"219 859 CURVE",
"213 871 OFFCURVE",
"187 874 OFFCURVE",
"161 874 CURVE SMOOTH",
"138 874 OFFCURVE",
"115 870 OFFCURVE",
"103 865 CURVE",
"100 859 LINE",
"100 840 OFFCURVE",
"95 815 OFFCURVE",
"95 792 CURVE SMOOTH",
"95 778 OFFCURVE",
"96 759 OFFCURVE",
"106 754 CURVE"
);
},
{
closed = 1;
nodes = (
"283 754 LINE SMOOTH",
"316 754 OFFCURVE",
"349 753 OFFCURVE",
"382 753 CURVE",
"394 778 OFFCURVE",
"387 828 OFFCURVE",
"393 859 CURVE",
"387 871 OFFCURVE",
"361 874 OFFCURVE",
"335 874 CURVE SMOOTH",
"312 874 OFFCURVE",
"289 870 OFFCURVE",
"277 865 CURVE",
"274 859 LINE",
"274 840 OFFCURVE",
"269 815 OFFCURVE",
"269 792 CURVE SMOOTH",
"269 778 OFFCURVE",
"270 759 OFFCURVE",
"280 754 CURVE"
);
},
{
closed = 1;
nodes = (
"171 763 OFFCURVE",
"140 764 OFFCURVE",
"109 764 CURVE",
"106 771 OFFCURVE",
"105 780 OFFCURVE",
"105 790 CURVE SMOOTH",
"105 812 OFFCURVE",
"110 838 OFFCURVE",
"110 857 CURVE",
"126 860 OFFCURVE",
"149 864 OFFCURVE",
"170 864 CURVE SMOOTH",
"184 864 OFFCURVE",
"197 862 OFFCURVE",
"208 858 CURVE",
"203 827 OFFCURVE",
"203 793 OFFCURVE",
"203 763 CURVE"
);
},
{
closed = 1;
nodes = (
"345 763 OFFCURVE",
"314 764 OFFCURVE",
"283 764 CURVE",
"280 771 OFFCURVE",
"279 780 OFFCURVE",
"279 790 CURVE SMOOTH",
"279 812 OFFCURVE",
"284 838 OFFCURVE",
"284 857 CURVE",
"300 860 OFFCURVE",
"323 864 OFFCURVE",
"344 864 CURVE SMOOTH",
"358 864 OFFCURVE",
"371 862 OFFCURVE",
"382 858 CURVE",
"377 827 OFFCURVE",
"377 793 OFFCURVE",
"377 763 CURVE"
);
},
{
closed = 1;
nodes = (
"460 530 OFFCURVE",
"457 564 OFFCURVE",
"442 599 CURVE SMOOTH",
"433 619 OFFCURVE",
"422 642 OFFCURVE",
"405 657 CURVE SMOOTH",
"365 691 OFFCURVE",
"296 711 OFFCURVE",
"233 711 CURVE SMOOTH",
"163 711 OFFCURVE",
"96 688 OFFCURVE",
"63 638 CURVE SMOOTH",
"27 585 OFFCURVE",
"23 513 OFFCURVE",
"23 451 CURVE SMOOTH",
"23 381 OFFCURVE",
"24 317 OFFCURVE",
"28 250 CURVE SMOOTH",
"33 141 OFFCURVE",
"9 -16 OFFCURVE",
"214 -16 CURVE SMOOTH",
"292 -16 OFFCURVE",
"378 11 OFFCURVE",
"413 60 CURVE SMOOTH",
"469 138 OFFCURVE",
"458 322 OFFCURVE",
"458 404 CURVE SMOOTH",
"458 435 OFFCURVE",
"460 465 OFFCURVE",
"460 492 CURVE SMOOTH"
);
},
{
closed = 1;
nodes = (
"339 701 OFFCURVE",
"401 667 OFFCURVE",
"433 595 CURVE SMOOTH",
"447 562 OFFCURVE",
"451 527 OFFCURVE",
"451 491 CURVE SMOOTH",
"451 458 OFFCURVE",
"448 425 OFFCURVE",
"448 394 CURVE SMOOTH",
"448 370 OFFCURVE",
"449 340 OFFCURVE",
"449 308 CURVE SMOOTH",
"449 222 OFFCURVE",
"443 119 OFFCURVE",
"405 66 CURVE SMOOTH",
"372 20 OFFCURVE",
"289 -6 OFFCURVE",
"214 -6 CURVE SMOOTH",
"137 -6 OFFCURVE",
"83 17 OFFCURVE",
"59 74 CURVE",
"33 127 OFFCURVE",
"41 194 OFFCURVE",
"38 251 CURVE SMOOTH",
"34 320 OFFCURVE",
"33 383 OFFCURVE",
"33 457 CURVE SMOOTH",
"33 517 OFFCURVE",
"38 584 OFFCURVE",
"71 633 CURVE SMOOTH",
"101 679 OFFCURVE",
"172 701 OFFCURVE",
"242 701 CURVE SMOOTH"
);
},
{
closed = 1;
nodes = (
"333 423 LINE",
"321 485 OFFCURVE",
"328 571 OFFCURVE",
"246 571 CURVE SMOOTH",
"154 571 OFFCURVE",
"130 460 OFFCURVE",
"130 380 CURVE SMOOTH",
"130 361 OFFCURVE",
"131 341 OFFCURVE",
"132 323 CURVE SMOOTH",
"138 235 OFFCURVE",
"136 126 OFFCURVE",
"236 126 CURVE SMOOTH",
"278 126 OFFCURVE",
"331 154 OFFCURVE",
"331 208 CURVE SMOOTH",
"331 262 OFFCURVE",
"334 313 OFFCURVE",
"334 366 CURVE SMOOTH",
"334 384 OFFCURVE",
"333 402 OFFCURVE",
"333 421 CURVE SMOOTH"
);
},
{
closed = 1;
nodes = (
"325 494 OFFCURVE",
"316 456 OFFCURVE",
"323 420 CURVE",
"323 402 OFFCURVE",
"324 384 OFFCURVE",
"324 366 CURVE SMOOTH",
"324 314 OFFCURVE",
"321 263 OFFCURVE",
"321 209 CURVE SMOOTH",
"321 158 OFFCURVE",
"278 136 OFFCURVE",
"241 136 CURVE SMOOTH",
"214 136 OFFCURVE",
"186 147 OFFCURVE",
"167 166 CURVE",
"150 199 OFFCURVE",
"151 237 OFFCURVE",
"148 273 CURVE SMOOTH",
"145 309 OFFCURVE",
"140 347 OFFCURVE",
"140 384 CURVE SMOOTH",
"140 464 OFFCURVE",
"165 562 OFFCURVE",
"243 562 CURVE SMOOTH",
"266 562 OFFCURVE",
"288 551 OFFCURVE",
"304 527 CURVE SMOOTH"
);
}
);
width = 484;
}
);
leftKerningGroup = G;
note = Odieresis;
rightKerningGroup = O;
unicode = 00D6;
},
{
glyphname = Ograve;
layers = (
{
hints = (
{
horizontal = 1;
place = "{741, 9}";
type = Stem;
},
{
horizontal = 1;
place = "{910, 11}";
type = Stem;
},
{
place = "{63, 9}";
type = Stem;
},
{
place = "{291, 14}";
type = Stem;
},
{
place = "{452, 7}";
type = Stem;
},
{
horizontal = 1;
place = "{-16, 10}";
type = Stem;
},
{
horizontal = 1;
place = "{701, 10}";
type = Stem;
},
{
place = "{24, 10}";
type = Stem;
},
{
horizontal = 1;
place = "{126, 10}";
type = Stem;
},
{
horizontal = 1;
place = "{562, 9}";
type = Stem;
},
{
place = "{131, 10}";
type = Stem;
},
{
place = "{322, 10}";
type = Stem;
}
);
layerId = "C15651A9-B5F1-4E52-8FDA-4ECDAD7E1480";
paths = (
{
closed = 1;
nodes = (
"132 921 LINE",
"109 897 OFFCURVE",
"86 874 OFFCURVE",
"63 851 CURVE",
"63 843 LINE SMOOTH",
"63 828 OFFCURVE",
"149 776 OFFCURVE",
"164 748 CURVE",
"164 742 OFFCURVE",
"194 741 OFFCURVE",
"224 741 CURVE SMOOTH",
"256 741 OFFCURVE",
"292 743 OFFCURVE",
"305 750 CURVE",
"305 758 LINE",
"289 770 OFFCURVE",
"276 786 OFFCURVE",
"263 800 CURVE SMOOTH",
"224 842 OFFCURVE",
"184 887 OFFCURVE",
"138 921 CURVE"
);
},
{
closed = 1;
nodes = (
"135 910 LINE",
"179 877 OFFCURVE",
"218 834 OFFCURVE",
"256 793 CURVE",
"267 780 OFFCURVE",
"278 767 OFFCURVE",
"291 756 CURVE",
"275 752 OFFCURVE",
"245 750 OFFCURVE",
"220 750 CURVE SMOOTH",
"198 750 OFFCURVE",
"178 752 OFFCURVE",
"171 754 CURVE",
"160 776 OFFCURVE",
"94 827 OFFCURVE",
"72 847 CURVE"
);
},
{
closed = 1;
nodes = (
"461 530 OFFCURVE",
"458 564 OFFCURVE",
"443 599 CURVE SMOOTH",
"434 619 OFFCURVE",
"423 642 OFFCURVE",
"406 657 CURVE SMOOTH",
"366 691 OFFCURVE",
"297 711 OFFCURVE",
"234 711 CURVE SMOOTH",
"164 711 OFFCURVE",
"97 688 OFFCURVE",
"64 638 CURVE SMOOTH",
"28 585 OFFCURVE",
"24 513 OFFCURVE",
"24 451 CURVE SMOOTH",
"24 381 OFFCURVE",
"25 317 OFFCURVE",
"29 250 CURVE SMOOTH",
"34 141 OFFCURVE",
"10 -16 OFFCURVE",
"215 -16 CURVE SMOOTH",
"293 -16 OFFCURVE",
"379 11 OFFCURVE",
"414 60 CURVE SMOOTH",
"470 138 OFFCURVE",
"459 322 OFFCURVE",
"459 404 CURVE SMOOTH",
"459 435 OFFCURVE",
"461 465 OFFCURVE",
"461 492 CURVE SMOOTH"
);
},
{
closed = 1;
nodes = (
"340 701 OFFCURVE",
"402 667 OFFCURVE",
"434 595 CURVE SMOOTH",
"448 562 OFFCURVE",
"452 527 OFFCURVE",
"452 491 CURVE SMOOTH",
"452 458 OFFCURVE",
"449 425 OFFCURVE",
"449 394 CURVE SMOOTH",
"449 370 OFFCURVE",
"450 340 OFFCURVE",
"450 308 CURVE SMOOTH",
"450 222 OFFCURVE",
"444 119 OFFCURVE",
"406 66 CURVE SMOOTH",
"373 20 OFFCURVE",
"290 -6 OFFCURVE",
"215 -6 CURVE SMOOTH",
"138 -6 OFFCURVE",
"84 17 OFFCURVE",
"60 74 CURVE",
"34 127 OFFCURVE",
"42 194 OFFCURVE",
"39 251 CURVE SMOOTH",
"35 320 OFFCURVE",
"34 383 OFFCURVE",
"34 457 CURVE SMOOTH",
"34 517 OFFCURVE",
"39 584 OFFCURVE",
"72 633 CURVE SMOOTH",
"102 679 OFFCURVE",
"173 701 OFFCURVE",
"243 701 CURVE SMOOTH"
);
},
{
closed = 1;
nodes = (
"334 423 LINE",
"322 485 OFFCURVE",
"329 571 OFFCURVE",
"247 571 CURVE SMOOTH",
"155 571 OFFCURVE",
"131 460 OFFCURVE",
"131 380 CURVE SMOOTH",
"131 361 OFFCURVE",
"132 341 OFFCURVE",
"133 323 CURVE SMOOTH",
"139 235 OFFCURVE",
"137 126 OFFCURVE",
"237 126 CURVE SMOOTH",
"279 126 OFFCURVE",
"332 154 OFFCURVE",
"332 208 CURVE SMOOTH",
"332 262 OFFCURVE",
"335 313 OFFCURVE",
"335 366 CURVE SMOOTH",
"335 384 OFFCURVE",
"334 402 OFFCURVE",
"334 421 CURVE SMOOTH"
);
},
{
closed = 1;
nodes = (
"326 494 OFFCURVE",
"317 456 OFFCURVE",
"324 420 CURVE",
"324 402 OFFCURVE",
"325 384 OFFCURVE",
"325 366 CURVE SMOOTH",
"325 314 OFFCURVE",
"322 263 OFFCURVE",
"322 209 CURVE SMOOTH",
"322 158 OFFCURVE",
"279 136 OFFCURVE",
"242 136 CURVE SMOOTH",
"215 136 OFFCURVE",
"187 147 OFFCURVE",
"168 166 CURVE",
"151 199 OFFCURVE",
"152 237 OFFCURVE",
"149 273 CURVE SMOOTH",
"146 309 OFFCURVE",
"141 347 OFFCURVE",
"141 384 CURVE SMOOTH",
"141 464 OFFCURVE",
"166 562 OFFCURVE",
"244 562 CURVE SMOOTH",
"267 562 OFFCURVE",
"289 551 OFFCURVE",
"305 527 CURVE SMOOTH"
);
}
);
width = 485;
}
);
leftKerningGroup = G;
note = Ograve;
rightKerningGroup = O;
unicode = 00D2;
},
{
glyphname = Oslash;
layers = (
{
hints = (
{
horizontal = 1;
place = "{-4, 7}";
type = Stem;
},
{
horizontal = 1;
place = "{125, 11}";
type = Stem;
},
{
horizontal = 1;
place = "{277, 20}";
type = Stem;
},
{
horizontal = 1;
place = "{558, 10}";
type = Stem;
},
{
horizontal = 1;
place = "{699, 10}";
type = Stem;
},
{
place = "{23, 11}";
type = Stem;
},
{
place = "{131, 10}";
type = Stem;
},
{
place = "{228, 11}";
type = Stem;
},
{
place = "{275, 11}";
type = Stem;
},
{
place = "{323, 10}";
type = Stem;
},
{
place = "{400, 10}";
type = Stem;
},
{
place = "{444, 10}";
type = Stem;
},
{
horizontal = 1;
place = "{714, 12}";
type = Stem;
},
{
horizontal = 1;
place = "{-28, 11}";
type = Stem;
},
{
place = "{55, 9}";
type = Stem;
},
{
place = "{419, 10}";
type = Stem;
},
{
horizontal = 1;
place = "{125, 7}";
type = Stem;
}
);
layerId = "C15651A9-B5F1-4E52-8FDA-4ECDAD7E1480";
paths = (
{
closed = 1;
nodes = (
"454 332 OFFCURVE",
"454 383 OFFCURVE",
"456 434 CURVE SMOOTH",
"457 451 OFFCURVE",
"458 468 OFFCURVE",
"458 485 CURVE SMOOTH",
"458 543 OFFCURVE",
"447 601 OFFCURVE",
"411 647 CURVE",
"411 649 OFFCURVE",
"410 651 OFFCURVE",
"410 653 CURVE SMOOTH",
"410 674 OFFCURVE",
"429 694 OFFCURVE",
"429 716 CURVE",
"417 727 OFFCURVE",
"400 729 OFFCURVE",
"385 729 CURVE SMOOTH",
"367 729 OFFCURVE",
"350 726 OFFCURVE",
"332 726 CURVE SMOOTH",
"316 726 OFFCURVE",
"300 728 OFFCURVE",
"285 728 CURVE SMOOTH",
"276 728 OFFCURVE",
"275 705 OFFCURVE",
"275 705 CURVE",
"257 708 OFFCURVE",
"237 709 OFFCURVE",
"219 709 CURVE SMOOTH",
"20 709 OFFCURVE",
"30 540 OFFCURVE",
"25 406 CURVE SMOOTH",
"24 384 OFFCURVE",
"23 361 OFFCURVE",
"23 339 CURVE SMOOTH",
"23 248 OFFCURVE",
"32 158 OFFCURVE",
"55 68 CURVE",
"49 68 OFFCURVE",
"27 -5 OFFCURVE",
"27 -19 CURVE",
"29 -24 LINE",
"30 -25 LINE",
"31 -25 OFFCURVE",
"33 -25 OFFCURVE",
"34 -26 CURVE",
"42 -25 OFFCURVE",
"51 -25 OFFCURVE",
"59 -25 CURVE SMOOTH",
"76 -25 OFFCURVE",
"83 -28 OFFCURVE",
"113 -28 CURVE SMOOTH",
"132 -28 OFFCURVE",
"156 -26 OFFCURVE",
"166 -23 CURVE",
"164 -13 OFFCURVE",
"196 -4 OFFCURVE",
"214 -3 CURVE SMOOTH",
"230 -2 OFFCURVE",
"246 -4 OFFCURVE",
"262 -4 CURVE SMOOTH",
"438 -4 OFFCURVE",
"454 153 OFFCURVE",
"454 281 CURVE SMOOTH"
);
},
{
closed = 1;
nodes = (
"448 468 OFFCURVE",
"447 452 OFFCURVE",
"446 435 CURVE",
"445 384 OFFCURVE",
"444 390 OFFCURVE",
"444 290 CURVE SMOOTH",
"444 184 OFFCURVE",
"437 40 OFFCURVE",
"320 13 CURVE SMOOTH",
"274 2 OFFCURVE",
"224 3 OFFCURVE",
"178 3 CURVE",
"160 -16 OFFCURVE",
"146 -17 OFFCURVE",
"125 -17 CURVE SMOOTH",
"104 -17 OFFCURVE",
"87 -13 OFFCURVE",
"66 -13 CURVE SMOOTH",
"56 -13 OFFCURVE",
"46 -14 OFFCURVE",
"37 -15 CURVE",
"39 11 OFFCURVE",
"64 46 OFFCURVE",
"64 67 CURVE SMOOTH",
"64 71 LINE SMOOTH",
"64 79 OFFCURVE",
"57 103 OFFCURVE",
"55 112 CURVE SMOOTH",
"43 165 OFFCURVE",
"34 225 OFFCURVE",
"34 287 CURVE SMOOTH",
"34 365 LINE SMOOTH",
"34 406 OFFCURVE",
"39 446 OFFCURVE",
"40 487 CURVE SMOOTH",
"43 585 OFFCURVE",
"56 699 OFFCURVE",
"221 699 CURVE SMOOTH",
"240 699 OFFCURVE",
"259 698 OFFCURVE",
"278 696 CURVE",
"283 701 OFFCURVE",
"286 699 OFFCURVE",
"286 714 CURVE SMOOTH",
"286 715 OFFCURVE",
"287 717 OFFCURVE",
"288 718 CURVE",
"296 715 OFFCURVE",
"305 714 OFFCURVE",
"314 714 CURVE SMOOTH",
"337 714 OFFCURVE",
"361 720 OFFCURVE",
"383 720 CURVE SMOOTH",
"396 720 OFFCURVE",
"408 719 OFFCURVE",
"419 713 CURVE",
"419 692 OFFCURVE",
"400 675 OFFCURVE",
"400 655 CURVE SMOOTH",
"400 633 OFFCURVE",
"424 612 OFFCURVE",
"432 590 CURVE SMOOTH",
"444 555 OFFCURVE",
"448 521 OFFCURVE",
"448 485 CURVE SMOOTH"
);
},
{
closed = 1;
nodes = (
"146 277 LINE",
"169 353 OFFCURVE",
"196 427 OFFCURVE",
"221 502 CURVE SMOOTH",
"225 514 OFFCURVE",
"239 551 OFFCURVE",
"239 563 CURVE",
"237 565 OFFCURVE",
"235 566 OFFCURVE",
"234 568 CURVE",
"214 568 OFFCURVE",
"198 560 OFFCURVE",
"183 549 CURVE SMOOTH",
"143 519 OFFCURVE",
"150 473 OFFCURVE",
"146 428 CURVE SMOOTH",
"142 387 OFFCURVE",
"131 347 OFFCURVE",
"131 306 CURVE SMOOTH",
"131 295 OFFCURVE",
"133 285 OFFCURVE",
"137 277 CURVE"
);
},
{
closed = 1;
nodes = (
"141 318 OFFCURVE",
"148 344 OFFCURVE",
"148 363 CURVE",
"166 419 OFFCURVE",
"136 501 OFFCURVE",
"189 541 CURVE SMOOTH",
"200 549 OFFCURVE",
"213 558 OFFCURVE",
"228 558 CURVE",
"201 471 OFFCURVE",
"169 384 OFFCURVE",
"141 297 CURVE"
);
},
{
closed = 1;
nodes = (
"318 397 LINE",
"283 311 OFFCURVE",
"254 220 OFFCURVE",
"224 132 CURVE",
"226 130 OFFCURVE",
"229 125 OFFCURVE",
"230 125 CURVE SMOOTH",
"258 125 OFFCURVE",
"301 148 OFFCURVE",
"316 171 CURVE SMOOTH",
"329 191 OFFCURVE",
"333 226 OFFCURVE",
"333 263 CURVE SMOOTH",
"333 310 OFFCURVE",
"327 362 OFFCURVE",
"327 395 CURVE"
);
},
{
closed = 1;
nodes = (
"323 258 OFFCURVE",
"323 246 OFFCURVE",
"321 233 CURVE",
"319 214 OFFCURVE",
"319 189 OFFCURVE",
"305 174 CURVE SMOOTH",
"286 153 OFFCURVE",
"262 143 OFFCURVE",
"236 136 CURVE",
"261 214 OFFCURVE",
"287 292 OFFCURVE",
"317 369 CURVE",
"319 336 OFFCURVE",
"323 303 OFFCURVE",
"323 271 CURVE SMOOTH"
);
}
);
width = 479;
}
);
leftKerningGroup = G;
note = Oslash;
rightKerningGroup = O;
unicode = 00D8;
},
{
glyphname = Otilde;
layers = (
{
hints = (
{
horizontal = 1;
place = "{741.5, 9.5}";
type = Stem;
},
{
horizontal = 1;
place = "{806, 13}";
type = Stem;
},
{
place = "{147, 12}";
type = Stem;
},
{
horizontal = 1;
place = "{733, 10}";
type = Stem;
},
{
horizontal = 1;
place = "{830, 10}";
type = Stem;
},
{
horizontal = 1;
place = "{897, 10}";
type = Stem;
},
{
place = "{439, 9}";
type = Stem;
},
{
horizontal = 1;
place = "{905, 11}";
type = Stem;
},
{
place = "{321, 10}";
type = Stem;
},
{
horizontal = 1;
place = "{-16, 10}";
type = Stem;
},
{
horizontal = 1;
place = "{126, 10}";
type = Stem;
},
{
horizontal = 1;
place = "{562, 9}";
type = Stem;
},
{
horizontal = 1;
place = "{701, 10}";
type = Stem;
},
{
place = "{23, 10}";
type = Stem;
},
{
place = "{130, 10}";
type = Stem;
},
{
place = "{451, 7}";
type = Stem;
}
);
layerId = "C15651A9-B5F1-4E52-8FDA-4ECDAD7E1480";
paths = (
{
closed = 1;
nodes = (
"161 743 LINE",
"161 754 OFFCURVE",
"159 761 OFFCURVE",
"159 769 CURVE SMOOTH",
"159 777 OFFCURVE",
"161 781 OFFCURVE",
"167 793 CURVE",
"172 798 LINE",
"180 802 OFFCURVE",
"199 806 OFFCURVE",
"212 806 CURVE SMOOTH",
"224 806 OFFCURVE",
"235 796 OFFCURVE",
"240 787 CURVE",
"249 751 OFFCURVE",
"291 733 OFFCURVE",
"330 733 CURVE SMOOTH",
"406 733 OFFCURVE",
"448 810 OFFCURVE",
"448 879 CURVE SMOOTH",
"448 887 OFFCURVE",
"445 896 OFFCURVE",
"445 904 CURVE",
"444 905 LINE",
"442 906 OFFCURVE",
"441 906 OFFCURVE",
"440 907 CURVE",
"435 907 OFFCURVE",
"430 906 OFFCURVE",
"425 906 CURVE SMOOTH",
"416 906 OFFCURVE",
"407 907 OFFCURVE",
"397 907 CURVE SMOOTH",
"381 907 OFFCURVE",
"365 906 OFFCURVE",
"353 900 CURVE",
"347 875 OFFCURVE",
"330 845 OFFCURVE",
"303 840 CURVE",
"256 849 OFFCURVE",
"252 916 OFFCURVE",
"176 916 CURVE SMOOTH",
"97 916 OFFCURVE",
"52 818 OFFCURVE",
"34 747 CURVE",
"39 741 LINE",
"62 741 OFFCURVE",
"84 742 OFFCURVE",
"107 742 CURVE",
"122 737 OFFCURVE",
"140 741 OFFCURVE",
"156 738 CURVE"
);
},
{
closed = 1;
nodes = (
"136 751 OFFCURVE",
"124 751 OFFCURVE",
"112 751 CURVE",
"105 753 OFFCURVE",
"98 754 OFFCURVE",
"91 754 CURVE SMOOTH",
"76 754 OFFCURVE",
"60 751 OFFCURVE",
"46 751 CURVE",
"66 812 OFFCURVE",
"94 905 OFFCURVE",
"175 905 CURVE SMOOTH",
"196 905 OFFCURVE",
"219 900 OFFCURVE",
"237 886 CURVE SMOOTH",
"260 868 OFFCURVE",
"275 830 OFFCURVE",
"303 830 CURVE SMOOTH",
"317 830 OFFCURVE",
"354 853 OFFCURVE",
"362 894 CURVE",
"364 895 OFFCURVE",
"416 895 OFFCURVE",
"437 897 CURVE",
"438 890 OFFCURVE",
"439 883 OFFCURVE",
"439 876 CURVE SMOOTH",
"439 812 OFFCURVE",
"396 743 OFFCURVE",
"328 743 CURVE SMOOTH",
"254 743 OFFCURVE",
"251 819 OFFCURVE",
"209 819 CURVE SMOOTH",
"183 819 OFFCURVE",
"147 801 OFFCURVE",
"147 766 CURVE SMOOTH",
"147 760 OFFCURVE",
"148 754 OFFCURVE",
"149 749 CURVE"
);
},
{
closed = 1;
nodes = (
"460 530 OFFCURVE",
"457 564 OFFCURVE",
"442 599 CURVE SMOOTH",
"433 619 OFFCURVE",
"422 642 OFFCURVE",
"405 657 CURVE SMOOTH",
"365 691 OFFCURVE",
"296 711 OFFCURVE",
"233 711 CURVE SMOOTH",
"163 711 OFFCURVE",
"96 688 OFFCURVE",
"63 638 CURVE SMOOTH",
"27 585 OFFCURVE",
"23 513 OFFCURVE",
"23 451 CURVE SMOOTH",
"23 381 OFFCURVE",
"24 317 OFFCURVE",
"28 250 CURVE SMOOTH",
"33 141 OFFCURVE",
"9 -16 OFFCURVE",
"214 -16 CURVE SMOOTH",
"292 -16 OFFCURVE",
"378 11 OFFCURVE",
"413 60 CURVE SMOOTH",
"469 138 OFFCURVE",
"458 322 OFFCURVE",
"458 404 CURVE SMOOTH",
"458 435 OFFCURVE",
"460 465 OFFCURVE",
"460 492 CURVE SMOOTH"
);
},
{
closed = 1;
nodes = (
"339 701 OFFCURVE",
"401 667 OFFCURVE",
"433 595 CURVE SMOOTH",
"447 562 OFFCURVE",
"451 527 OFFCURVE",
"451 491 CURVE SMOOTH",
"451 458 OFFCURVE",
"448 425 OFFCURVE",
"448 394 CURVE SMOOTH",
"448 370 OFFCURVE",
"449 340 OFFCURVE",
"449 308 CURVE SMOOTH",
"449 222 OFFCURVE",
"443 119 OFFCURVE",
"405 66 CURVE SMOOTH",
"372 20 OFFCURVE",
"289 -6 OFFCURVE",
"214 -6 CURVE SMOOTH",
"137 -6 OFFCURVE",
"83 17 OFFCURVE",
"59 74 CURVE",
"33 127 OFFCURVE",
"41 194 OFFCURVE",
"38 251 CURVE SMOOTH",
"34 320 OFFCURVE",
"33 383 OFFCURVE",
"33 457 CURVE SMOOTH",
"33 517 OFFCURVE",
"38 584 OFFCURVE",
"71 633 CURVE SMOOTH",
"101 679 OFFCURVE",
"172 701 OFFCURVE",
"242 701 CURVE SMOOTH"
);
},
{
closed = 1;
nodes = (
"333 423 LINE",
"321 485 OFFCURVE",
"328 571 OFFCURVE",
"246 571 CURVE SMOOTH",
"154 571 OFFCURVE",
"130 460 OFFCURVE",
"130 380 CURVE SMOOTH",
"130 361 OFFCURVE",
"131 341 OFFCURVE",
"132 323 CURVE SMOOTH",
"138 235 OFFCURVE",
"136 126 OFFCURVE",
"236 126 CURVE SMOOTH",
"278 126 OFFCURVE",
"331 154 OFFCURVE",
"331 208 CURVE SMOOTH",
"331 262 OFFCURVE",
"334 313 OFFCURVE",
"334 366 CURVE SMOOTH",
"334 384 OFFCURVE",
"333 402 OFFCURVE",
"333 421 CURVE SMOOTH"
);
},
{
closed = 1;
nodes = (
"325 494 OFFCURVE",
"316 456 OFFCURVE",
"323 420 CURVE",
"323 402 OFFCURVE",
"324 384 OFFCURVE",
"324 366 CURVE SMOOTH",
"324 314 OFFCURVE",
"321 263 OFFCURVE",
"321 209 CURVE SMOOTH",
"321 158 OFFCURVE",
"278 136 OFFCURVE",
"241 136 CURVE SMOOTH",
"214 136 OFFCURVE",
"186 147 OFFCURVE",
"167 166 CURVE",
"150 199 OFFCURVE",
"151 237 OFFCURVE",
"148 273 CURVE SMOOTH",
"145 309 OFFCURVE",
"140 347 OFFCURVE",
"140 384 CURVE SMOOTH",
"140 464 OFFCURVE",
"165 562 OFFCURVE",
"243 562 CURVE SMOOTH",
"266 562 OFFCURVE",
"288 551 OFFCURVE",
"304 527 CURVE SMOOTH"
);
}
);
width = 484;
}
);
leftKerningGroup = G;
note = Otilde;
rightKerningGroup = O;
unicode = 00D5;
},
{
glyphname = OE;
layers = (
{
hints = (
{
horizontal = 1;
place = "{-7, 15}";
type = Stem;
},
{
horizontal = 1;
place = "{137, 10}";
type = Stem;
},
{
horizontal = 1;
place = "{266, 12}";
type = Stem;
},
{
horizontal = 1;
place = "{414, 9}";
type = Stem;
},
{
horizontal = 1;
place = "{539, 9}";
type = Stem;
},
{
horizontal = 1;
place = "{694, 9}";
type = Stem;
},
{
place = "{19, 12}";
type = Stem;
},
{
place = "{150, 12}";
type = Stem;
},
{
place = "{338, 10}";
type = Stem;
},
{
place = "{538, 9}";
type = Stem;
},
{
place = "{665, 10.5}";
type = Stem;
},
{
place = "{807, 11}";
type = Stem;
},
{
horizontal = 1;
place = "{-21, 11}";
type = Stem;
},
{
place = "{533, 10}";
type = Stem;
},
{
horizontal = 1;
place = "{689, 10}";
type = Stem;
},
{
horizontal = 1;
place = "{116, 12}";
type = Stem;
},
{
horizontal = 1;
place = "{561, 10}";
type = Stem;
}
);
layerId = "C15651A9-B5F1-4E52-8FDA-4ECDAD7E1480";
paths = (
{
closed = 1;
nodes = (
"819 100 OFFCURVE",
"818 118 OFFCURVE",
"817 135 CURVE",
"817 137 LINE",
"816 139 OFFCURVE",
"814 140 OFFCURVE",
"813 142 CURVE",
"729 148 OFFCURVE",
"642 147 OFFCURVE",
"557 147 CURVE",
"550 160 OFFCURVE",
"547 188 OFFCURVE",
"547 214 CURVE SMOOTH",
"547 236 OFFCURVE",
"549 257 OFFCURVE",
"554 268 CURVE",
"560 267 OFFCURVE",
"569 266 OFFCURVE",
"578 266 CURVE SMOOTH",
"608 266 OFFCURVE",
"644 271 OFFCURVE",
"676 267 CURVE",
"675 415 LINE",
"674 415 OFFCURVE",
"674 415 OFFCURVE",
"674 416 CURVE SMOOTH",
"674 417 LINE",
"670 423 OFFCURVE",
"658 424 OFFCURVE",
"646 424 CURVE SMOOTH",
"626 424 OFFCURVE",
"608 423 OFFCURVE",
"587 423 CURVE SMOOTH",
"575 423 OFFCURVE",
"562 424 OFFCURVE",
"550 426 CURVE",
"545 439 OFFCURVE",
"543 454 OFFCURVE",
"543 469 CURVE SMOOTH",
"543 490 OFFCURVE",
"546 513 OFFCURVE",
"547 533 CURVE",
"595 540 OFFCURVE",
"644 539 OFFCURVE",
"693 539 CURVE SMOOTH",
"701 539 OFFCURVE",
"716 538 OFFCURVE",
"733 538 CURVE SMOOTH",
"767 538 OFFCURVE",
"808 540 OFFCURVE",
"813 551 CURVE",
"818 585 OFFCURVE",
"818 618 OFFCURVE",
"818 658 CURVE SMOOTH",
"818 675 OFFCURVE",
"816 692 OFFCURVE",
"811 703 CURVE",
"690 703 OFFCURVE",
"569 699 OFFCURVE",
"448 699 CURVE SMOOTH",
"374 699 OFFCURVE",
"294 703 OFFCURVE",
"224 703 CURVE SMOOTH",
"141 703 OFFCURVE",
"65 651 OFFCURVE",
"42 570 CURVE SMOOTH",
"28 520 OFFCURVE",
"31 467 OFFCURVE",
"28 416 CURVE SMOOTH",
"25 369 OFFCURVE",
"19 312 OFFCURVE",
"19 254 CURVE SMOOTH",
"19 117 OFFCURVE",
"51 -21 OFFCURVE",
"235 -21 CURVE SMOOTH",
"310 -21 OFFCURVE",
"376 -7 OFFCURVE",
"435 -7 CURVE SMOOTH",
"558 -7 OFFCURVE",
"680 -2 OFFCURVE",
"803 -2 CURVE",
"820 15 OFFCURVE",
"819 58 OFFCURVE",
"819 82 CURVE SMOOTH"
);
},
{
closed = 1;
nodes = (
"808 58 OFFCURVE",
"806 33 OFFCURVE",
"799 8 CURVE",
"677 8 OFFCURVE",
"556 7 OFFCURVE",
"435 3 CURVE SMOOTH",
"376 1 OFFCURVE",
"311 -10 OFFCURVE",
"234 -10 CURVE SMOOTH",
"56 -10 OFFCURVE",
"31 118 OFFCURVE",
"31 253 CURVE SMOOTH",
"31 313 OFFCURVE",
"36 374 OFFCURVE",
"39 435 CURVE SMOOTH",
"44 533 OFFCURVE",
"42 624 OFFCURVE",
"144 677 CURVE SMOOTH",
"169 690 OFFCURVE",
"195 694 OFFCURVE",
"222 694 CURVE SMOOTH",
"290 694 OFFCURVE",
"371 689 OFFCURVE",
"447 689 CURVE SMOOTH",
"567 689 OFFCURVE",
"687 693 OFFCURVE",
"806 693 CURVE",
"806 668 OFFCURVE",
"807 641 OFFCURVE",
"807 614 CURVE SMOOTH",
"807 594 OFFCURVE",
"806 574 OFFCURVE",
"804 555 CURVE",
"763 549 OFFCURVE",
"722 547 OFFCURVE",
"681 547 CURVE SMOOTH",
"649 547 OFFCURVE",
"621 548 OFFCURVE",
"587 548 CURVE SMOOTH",
"562 548 OFFCURVE",
"543 547 OFFCURVE",
"537 536 CURVE",
"537 515 OFFCURVE",
"533 491 OFFCURVE",
"533 469 CURVE SMOOTH",
"533 454 OFFCURVE",
"534 423 OFFCURVE",
"547 417 CURVE",
"559 415 OFFCURVE",
"571 414 OFFCURVE",
"584 414 CURVE SMOOTH",
"600 414 OFFCURVE",
"616 415 OFFCURVE",
"632 415 CURVE SMOOTH",
"643 415 OFFCURVE",
"654 415 OFFCURVE",
"665 413 CURVE",
"667 398 OFFCURVE",
"668 383 OFFCURVE",
"668 368 CURVE SMOOTH",
"668 338 OFFCURVE",
"665 307 OFFCURVE",
"665 278 CURVE",
"642 279 OFFCURVE",
"618 281 OFFCURVE",
"592 278 CURVE",
"552 278 LINE SMOOTH",
"542 278 OFFCURVE",
"538 246 OFFCURVE",
"538 220 CURVE SMOOTH",
"538 185 OFFCURVE",
"543 142 OFFCURVE",
"554 137 CURVE",
"638 137 OFFCURVE",
"723 138 OFFCURVE",
"807 132 CURVE",
"808 116 OFFCURVE",
"808 100 OFFCURVE",
"808 84 CURVE SMOOTH"
);
},
{
closed = 1;
nodes = (
"338 501 LINE",
"328 518 OFFCURVE",
"324 535 OFFCURVE",
"307 548 CURVE SMOOTH",
"287 563 OFFCURVE",
"264 571 OFFCURVE",
"243 571 CURVE SMOOTH",
"192 571 OFFCURVE",
"151 528 OFFCURVE",
"151 455 CURVE SMOOTH",
"151 429 OFFCURVE",
"154 403 OFFCURVE",
"154 380 CURVE SMOOTH",
"154 346 OFFCURVE",
"150 309 OFFCURVE",
"150 274 CURVE SMOOTH",
"150 214 OFFCURVE",
"171 116 OFFCURVE",
"234 116 CURVE SMOOTH",
"266 116 OFFCURVE",
"304 148 OFFCURVE",
"318 180 CURVE SMOOTH",
"341 234 OFFCURVE",
"341 298 OFFCURVE",
"345 355 CURVE SMOOTH",
"347 377 OFFCURVE",
"348 400 OFFCURVE",
"348 423 CURVE SMOOTH",
"348 449 OFFCURVE",
"346 475 OFFCURVE",
"339 500 CURVE"
);
},
{
closed = 1;
nodes = (
"329 497 LINE",
"335 475 OFFCURVE",
"338 440 OFFCURVE",
"338 400 CURVE SMOOTH",
"338 245 OFFCURVE",
"311 128 OFFCURVE",
"238 128 CURVE SMOOTH",
"183 128 OFFCURVE",
"162 203 OFFCURVE",
"162 281 CURVE SMOOTH",
"162 313 OFFCURVE",
"164 345 OFFCURVE",
"164 377 CURVE SMOOTH",
"164 402 OFFCURVE",
"161 427 OFFCURVE",
"161 453 CURVE SMOOTH",
"161 519 OFFCURVE",
"193 561 OFFCURVE",
"245 561 CURVE SMOOTH",
"289 561 OFFCURVE",
"307 533 OFFCURVE",
"330 496 CURVE"
);
}
);
width = 830;
}
);
leftKerningGroup = G;
note = OE;
rightKerningGroup = AE;
unicode = 0152;
},
{
glyphname = P;
layers = (
{
hints = (
{
horizontal = 1;
place = "{5, 9}";
type = Stem;
},
{
horizontal = 1;
place = "{254, 10}";
type = Stem;
},
{
horizontal = 1;
place = "{400, 11}";
type = Stem;
},
{
horizontal = 1;
place = "{553, 12}";
type = Stem;
},
{
horizontal = 1;
place = "{707, 12}";
type = Stem;
},
{
place = "{33, 10}";
type = Stem;
},
{
place = "{205, 12}";
type = Stem;
},
{
place = "{335, 10}";
type = Stem;
},
{
place = "{479, 10}";
type = Stem;
},
{
place = "{37, 9}";
type = Stem;
},
{
place = "{175, 12}";
type = Stem;
}
);
layerId = "C15651A9-B5F1-4E52-8FDA-4ECDAD7E1480";
paths = (
{
closed = 1;
nodes = (
"490 482 OFFCURVE",
"489 487 OFFCURVE",
"489 490 CURVE SMOOTH",
"489 654 OFFCURVE",
"324 719 OFFCURVE",
"188 719 CURVE SMOOTH",
"135 719 OFFCURVE",
"83 711 OFFCURVE",
"37 700 CURVE",
"32 694 LINE",
"36 633 OFFCURVE",
"37 572 OFFCURVE",
"37 511 CURVE SMOOTH",
"37 406 OFFCURVE",
"33 302 OFFCURVE",
"33 198 CURVE SMOOTH",
"33 133 OFFCURVE",
"35 69 OFFCURVE",
"39 5 CURVE",
"48 -4 OFFCURVE",
"79 -6 OFFCURVE",
"111 -6 CURVE SMOOTH",
"149 -6 OFFCURVE",
"191 -2 OFFCURVE",
"213 5 CURVE",
"212 5 LINE",
"213 6 OFFCURVE",
"215 6 OFFCURVE",
"216 7 CURVE SMOOTH",
"217 8 LINE",
"216 8 OFFCURVE",
"216 8 OFFCURVE",
"215 7 CURVE",
"219 11 LINE",
"219 93 OFFCURVE",
"215 175 OFFCURVE",
"215 257 CURVE",
"226 255 OFFCURVE",
"237 254 OFFCURVE",
"248 254 CURVE SMOOTH",
"365 254 OFFCURVE",
"490 362 OFFCURVE",
"490 477 CURVE SMOOTH"
);
},
{
closed = 1;
nodes = (
"317 707 OFFCURVE",
"479 655 OFFCURVE",
"479 491 CURVE SMOOTH",
"479 472 LINE",
"477 468 OFFCURVE",
"478 459 OFFCURVE",
"477 455 CURVE",
"459 350 OFFCURVE",
"355 264 OFFCURVE",
"248 264 CURVE SMOOTH",
"236 264 OFFCURVE",
"223 265 OFFCURVE",
"211 268 CURVE",
"205 262 LINE",
"205 183 OFFCURVE",
"209 80 OFFCURVE",
"209 14 CURVE",
"186 8 OFFCURVE",
"144 5 OFFCURVE",
"108 5 CURVE SMOOTH",
"84 5 OFFCURVE",
"62 6 OFFCURVE",
"48 10 CURVE",
"44 72 OFFCURVE",
"43 134 OFFCURVE",
"43 196 CURVE SMOOTH",
"43 302 OFFCURVE",
"46 408 OFFCURVE",
"46 514 CURVE SMOOTH",
"46 573 OFFCURVE",
"45 632 OFFCURVE",
"42 691 CURVE",
"83 701 OFFCURVE",
"131 707 OFFCURVE",
"180 707 CURVE SMOOTH"
);
},
{
closed = 1;
nodes = (
"345 495 OFFCURVE",
"332 523 OFFCURVE",
"312 537 CURVE",
"282 560 OFFCURVE",
"247 565 OFFCURVE",
"212 565 CURVE SMOOTH",
"201 565 OFFCURVE",
"191 560 OFFCURVE",
"181 560 CURVE",
"180 559 LINE",
"176 551 OFFCURVE",
"175 536 OFFCURVE",
"175 521 CURVE SMOOTH",
"175 492 OFFCURVE",
"169 400 OFFCURVE",
"201 400 CURVE SMOOTH",
"253 400 OFFCURVE",
"345 401 OFFCURVE",
"345 470 CURVE SMOOTH"
);
},
{
closed = 1;
nodes = (
"259 553 OFFCURVE",
"279 549 OFFCURVE",
"306 529 CURVE SMOOTH",
"324 516 OFFCURVE",
"329 503 OFFCURVE",
"335 483 CURVE",
"335 425 OFFCURVE",
"293 413 OFFCURVE",
"243 411 CURVE",
"236 411 OFFCURVE",
"229 412 OFFCURVE",
"222 412 CURVE SMOOTH",
"217 412 OFFCURVE",
"212 411 OFFCURVE",
"207 410 CURVE",
"196 410 LINE",
"189 431 OFFCURVE",
"187 460 OFFCURVE",
"187 490 CURVE SMOOTH",
"187 510 OFFCURVE",
"188 531 OFFCURVE",
"188 551 CURVE",
"206 551 OFFCURVE",
"221 553 OFFCURVE",
"236 553 CURVE SMOOTH"
);
}
);
width = 497;
}
);
note = P;
rightKerningGroup = P;
unicode = 0050;
},
{
glyphname = Thorn;
layers = (
{
hints = (
{
horizontal = 1;
place = "{-7, 21}";
target = up;
type = BottomGhost;
},
{
horizontal = 1;
place = "{127, 11}";
type = Stem;
},
{
horizontal = 1;
place = "{268, 10}";
type = Stem;
},
{
horizontal = 1;
place = "{493, 10}";
type = Stem;
},
{
horizontal = 1;
place = "{627, 12}";
type = Stem;
},
{
horizontal = 1;
place = "{723.5, 10}";
type = Stem;
},
{
place = "{34, 15}";
type = Stem;
},
{
place = "{176, 10}";
type = Stem;
},
{
place = "{330, 11}";
type = Stem;
},
{
place = "{452, 11}";
type = Stem;
},
{
horizontal = 1;
place = "{-11, 9}";
type = Stem;
},
{
place = "{172, 10}";
type = Stem;
}
);
layerId = "C15651A9-B5F1-4E52-8FDA-4ECDAD7E1480";
paths = (
{
closed = 1;
nodes = (
"52 -7 LINE SMOOTH",
"75 -7 OFFCURVE",
"107 -11 OFFCURVE",
"134 -11 CURVE SMOOTH",
"161 -11 OFFCURVE",
"179 -8 OFFCURVE",
"186 6 CURVE",
"183 11 OFFCURVE",
"182 17 OFFCURVE",
"182 24 CURVE SMOOTH",
"182 76 OFFCURVE",
"187 124 OFFCURVE",
"188 175 CURVE",
"222 144 OFFCURVE",
"262 127 OFFCURVE",
"300 127 CURVE SMOOTH",
"404 127 OFFCURVE",
"463 267 OFFCURVE",
"463 392 CURVE SMOOTH",
"463 438 OFFCURVE",
"455 484 OFFCURVE",
"438 527 CURVE SMOOTH",
"419 574 OFFCURVE",
"351 639 OFFCURVE",
"291 639 CURVE SMOOTH",
"269 639 OFFCURVE",
"209 637 OFFCURVE",
"187 606 CURVE",
"185 727 LINE",
"183 729 OFFCURVE",
"181 730 OFFCURVE",
"180 732 CURVE",
"44 735 LINE",
"36 730 OFFCURVE",
"34 688 OFFCURVE",
"34 646 CURVE SMOOTH",
"34 500 OFFCURVE",
"39 376 OFFCURVE",
"39 237 CURVE SMOOTH",
"39 156 OFFCURVE",
"35 73 OFFCURVE",
"32 -7 CURVE"
);
},
{
closed = 1;
nodes = (
"178 186 LINE",
"178 129 OFFCURVE",
"172 83 OFFCURVE",
"172 29 CURVE SMOOTH",
"172 21 OFFCURVE",
"173 13 OFFCURVE",
"175 6 CURVE",
"163 0 OFFCURVE",
"149 -2 OFFCURVE",
"134 -2 CURVE SMOOTH",
"101 -2 OFFCURVE",
"69 3 OFFCURVE",
"42 3 CURVE",
"46 80 OFFCURVE",
"49 156 OFFCURVE",
"49 234 CURVE SMOOTH",
"49 344 OFFCURVE",
"45 454 OFFCURVE",
"45 563 CURVE SMOOTH",
"45 617 OFFCURVE",
"46 671 OFFCURVE",
"49 725 CURVE",
"175 722 LINE",
"177 587 LINE",
"187 584 LINE",
"201 627 OFFCURVE",
"238 618 OFFCURVE",
"273 627 CURVE",
"403 627 OFFCURVE",
"452 513 OFFCURVE",
"452 395 CURVE SMOOTH",
"452 259 OFFCURVE",
"398 138 OFFCURVE",
"306 138 CURVE SMOOTH",
"262 138 OFFCURVE",
"217 160 OFFCURVE",
"187 190 CURVE"
);
},
{
closed = 1;
nodes = (
"341 400 OFFCURVE",
"339 420 OFFCURVE",
"334 436 CURVE",
"324 485 OFFCURVE",
"272 503 OFFCURVE",
"229 503 CURVE SMOOTH",
"192 503 OFFCURVE",
"177 487 OFFCURVE",
"177 439 CURVE SMOOTH",
"177 420 OFFCURVE",
"179 402 OFFCURVE",
"179 395 CURVE SMOOTH",
"179 384 OFFCURVE",
"178 368 OFFCURVE",
"178 352 CURVE SMOOTH",
"178 287 OFFCURVE",
"205 268 OFFCURVE",
"246 268 CURVE SMOOTH",
"308 268 OFFCURVE",
"341 325 OFFCURVE",
"341 385 CURVE SMOOTH"
);
},
{
closed = 1;
nodes = (
"264 493 OFFCURVE",
"315 480 OFFCURVE",
"324 433 CURVE",
"328 421 OFFCURVE",
"325 403 OFFCURVE",
"330 393 CURVE",
"330 339 OFFCURVE",
"309 278 OFFCURVE",
"246 278 CURVE SMOOTH",
"195 278 OFFCURVE",
"188 315 OFFCURVE",
"188 353 CURVE SMOOTH",
"188 367 OFFCURVE",
"189 381 OFFCURVE",
"189 394 CURVE SMOOTH",
"189 406 OFFCURVE",
"187 422 OFFCURVE",
"187 437 CURVE SMOOTH",
"187 464 OFFCURVE",
"189 493 OFFCURVE",
"225 493 CURVE SMOOTH"
);
}
);
width = 478;
}
);
note = Thorn;
rightKerningGroup = Thorn;
unicode = 00DE;
},
{
glyphname = Q;
layers = (
{
hints = (
{
horizontal = 1;
place = "{-12, 11}";
type = Stem;
},
{
horizontal = 1;
place = "{109, 11}";
type = Stem;
},
{
horizontal = 1;
place = "{227, 10}";
type = Stem;
},
{
horizontal = 1;
place = "{562, 10}";
type = Stem;
},
{
horizontal = 1;
place = "{709, 10}";
type = Stem;
},
{
place = "{22, 12}";
type = Stem;
},
{
place = "{144, 11}";
type = Stem;
},
{
place = "{220, 11}";
type = Stem;
},
{
place = "{339, 9}";
type = Stem;
},
{
place = "{442, 11}";
type = Stem;
},
{
place = "{462, 10}";
type = Stem;
},
{
place = "{424, 10}";
type = Stem;
},
{
place = "{331, 7}";
type = Stem;
}
);
layerId = "C15651A9-B5F1-4E52-8FDA-4ECDAD7E1480";
paths = (
{
closed = 1;
nodes = (
"445 102 OFFCURVE",
"460 134 OFFCURVE",
"461 163 CURVE",
"467 192 OFFCURVE",
"466 220 OFFCURVE",
"468 249 CURVE SMOOTH",
"471 287 OFFCURVE",
"472 326 OFFCURVE",
"472 364 CURVE SMOOTH",
"472 471 OFFCURVE",
"472 639 OFFCURVE",
"371 700 CURVE SMOOTH",
"340 718 OFFCURVE",
"294 719 OFFCURVE",
"265 719 CURVE SMOOTH",
"184 719 OFFCURVE",
"87 703 OFFCURVE",
"49 624 CURVE SMOOTH",
"23 571 OFFCURVE",
"25 438 OFFCURVE",
"25 382 CURVE SMOOTH",
"25 347 OFFCURVE",
"22 305 OFFCURVE",
"22 261 CURVE SMOOTH",
"22 200 OFFCURVE",
"28 139 OFFCURVE",
"53 93 CURVE SMOOTH",
"89 27 OFFCURVE",
"164 -12 OFFCURVE",
"238 -12 CURVE SMOOTH",
"270 -12 OFFCURVE",
"314 -5 OFFCURVE",
"338 16 CURVE",
"350 1 OFFCURVE",
"366 -12 OFFCURVE",
"381 -12 CURVE SMOOTH",
"406 -12 OFFCURVE",
"453 19 OFFCURVE",
"453 47 CURVE SMOOTH",
"453 60 OFFCURVE",
"441 66 OFFCURVE",
"434 78 CURVE"
);
},
{
closed = 1;
nodes = (
"451 164 LINE SMOOTH",
"451 137 OFFCURVE",
"434 104 OFFCURVE",
"424 80 CURVE",
"424 76 LINE",
"427 69 OFFCURVE",
"433 62 OFFCURVE",
"439 57 CURVE",
"442 51 LINE",
"442 28 OFFCURVE",
"406 -3 OFFCURVE",
"375 -3 CURVE",
"361 5 OFFCURVE",
"346 23 OFFCURVE",
"337 28 CURVE",
"312 3 OFFCURVE",
"269 -1 OFFCURVE",
"239 -1 CURVE SMOOTH",
"169 -1 OFFCURVE",
"95 34 OFFCURVE",
"61 97 CURVE SMOOTH",
"37 141 OFFCURVE",
"34 194 OFFCURVE",
"34 244 CURVE SMOOTH",
"34 266 OFFCURVE",
"35 287 OFFCURVE",
"35 307 CURVE SMOOTH",
"35 331 OFFCURVE",
"34 367 OFFCURVE",
"34 406 CURVE SMOOTH",
"34 483 OFFCURVE",
"38 572 OFFCURVE",
"58 620 CURVE SMOOTH",
"90 695 OFFCURVE",
"188 709 OFFCURVE",
"263 709 CURVE SMOOTH",
"308 709 OFFCURVE",
"365 709 OFFCURVE",
"404 656 CURVE SMOOTH",
"456 584 OFFCURVE",
"462 481 OFFCURVE",
"462 394 CURVE SMOOTH",
"462 346 OFFCURVE",
"461 298 OFFCURVE",
"458 250 CURVE SMOOTH",
"456 221 OFFCURVE",
"457 194 OFFCURVE",
"451 166 CURVE"
);
},
{
closed = 1;
nodes = (
"284 224 OFFCURVE",
"287 226 OFFCURVE",
"290 227 CURVE",
"297 227 LINE",
"312 212 OFFCURVE",
"317 192 OFFCURVE",
"331 178 CURVE",
"333 180 OFFCURVE",
"336 181 OFFCURVE",
"339 182 CURVE",
"339 183 OFFCURVE",
"338 186 OFFCURVE",
"338 188 CURVE SMOOTH",
"338 214 OFFCURVE",
"351 287 OFFCURVE",
"351 307 CURVE SMOOTH",
"351 343 OFFCURVE",
"348 362 OFFCURVE",
"348 393 CURVE SMOOTH",
"348 490 OFFCURVE",
"346 572 OFFCURVE",
"229 572 CURVE SMOOTH",
"158 572 OFFCURVE",
"145 514 OFFCURVE",
"145 373 CURVE SMOOTH",
"145 357 OFFCURVE",
"148 341 OFFCURVE",
"148 327 CURVE",
"142 310 OFFCURVE",
"144 294 OFFCURVE",
"144 275 CURVE SMOOTH",
"144 202 OFFCURVE",
"150 109 OFFCURVE",
"258 109 CURVE SMOOTH",
"265 109 OFFCURVE",
"269 110 OFFCURVE",
"273 119 CURVE",
"256 136 OFFCURVE",
"231 156 OFFCURVE",
"231 183 CURVE",
"238 196 OFFCURVE",
"251 193 OFFCURVE",
"281 223 CURVE"
);
},
{
closed = 1;
nodes = (
"321 207 OFFCURVE",
"315 237 OFFCURVE",
"294 237 CURVE SMOOTH",
"278 237 OFFCURVE",
"272 226 OFFCURVE",
"261 218 CURVE SMOOTH",
"244 206 OFFCURVE",
"220 201 OFFCURVE",
"220 180 CURVE SMOOTH",
"220 158 OFFCURVE",
"247 131 OFFCURVE",
"258 120 CURVE",
"167 120 OFFCURVE",
"155 183 OFFCURVE",
"155 252 CURVE SMOOTH",
"155 289 OFFCURVE",
"160 324 OFFCURVE",
"160 359 CURVE SMOOTH",
"160 379 OFFCURVE",
"156 390 OFFCURVE",
"156 418 CURVE SMOOTH",
"156 522 OFFCURVE",
"167 562 OFFCURVE",
"237 562 CURVE SMOOTH",
"345 562 OFFCURVE",
"339 469 OFFCURVE",
"339 348 CURVE SMOOTH",
"339 314 OFFCURVE",
"337 290 OFFCURVE",
"337 275 CURVE SMOOTH",
"337 269 OFFCURVE",
"338 262 OFFCURVE",
"338 258 CURVE",
"332 240 OFFCURVE",
"331 212 OFFCURVE",
"331 193 CURVE"
);
}
);
width = 495;
}
);
leftKerningGroup = Q;
note = Q;
rightKerningGroup = Q;
unicode = 0051;
},
{
glyphname = R;
layers = (
{
hints = (
{
horizontal = 1;
place = "{-4, 11}";
type = Stem;
},
{
horizontal = 1;
place = "{301, 10}";
type = Stem;
},
{
horizontal = 1;
place = "{426, 9}";
type = Stem;
},
{
horizontal = 1;
place = "{569, 11}";
type = Stem;
},
{
horizontal = 1;
place = "{713, 11}";
type = Stem;
},
{
place = "{34, 7}";
type = Stem;
},
{
place = "{198, 10}";
type = Stem;
},
{
place = "{333, 12}";
type = Stem;
},
{
place = "{509, 8}";
type = Stem;
},
{
horizontal = 1;
place = "{-7, 10}";
type = Stem;
},
{
place = "{324, 9}";
type = Stem;
},
{
place = "{496, 10}";
type = Stem;
},
{
place = "{173, 13}";
type = Stem;
}
);
layerId = "C15651A9-B5F1-4E52-8FDA-4ECDAD7E1480";
paths = (
{
closed = 1;
nodes = (
"517 6 LINE",
"519 5 OFFCURVE",
"520 3 OFFCURVE",
"522 2 CURVE",
"481 111 OFFCURVE",
"404 201 OFFCURVE",
"345 301 CURVE",
"448 307 OFFCURVE",
"506 407 OFFCURVE",
"506 503 CURVE SMOOTH",
"506 660 OFFCURVE",
"360 724 OFFCURVE",
"222 724 CURVE SMOOTH",
"156 724 OFFCURVE",
"89 714 OFFCURVE",
"33 704 CURVE",
"28 698 LINE",
"36 645 OFFCURVE",
"34 587 OFFCURVE",
"34 535 CURVE SMOOTH",
"34 375 OFFCURVE",
"39 216 OFFCURVE",
"39 56 CURVE SMOOTH",
"39 37 OFFCURVE",
"39 19 OFFCURVE",
"36 1 CURVE",
"36 1 OFFCURVE",
"37 2 OFFCURVE",
"37 3 CURVE",
"40 -5 LINE",
"66 -5 OFFCURVE",
"94 -7 OFFCURVE",
"123 -7 CURVE SMOOTH",
"147 -7 OFFCURVE",
"210 -7 OFFCURVE",
"219 11 CURVE",
"213 51 OFFCURVE",
"208 117 OFFCURVE",
"208 173 CURVE SMOOTH",
"208 198 OFFCURVE",
"209 222 OFFCURVE",
"212 241 CURVE",
"236 205 OFFCURVE",
"260 173 OFFCURVE",
"281 135 CURVE SMOOTH",
"305 90 OFFCURVE",
"323 44 OFFCURVE",
"346 -1 CURVE",
"347 -2 OFFCURVE",
"348 -3 OFFCURVE",
"350 -4 CURVE",
"405 -4 OFFCURVE",
"461 -2 OFFCURVE",
"517 -2 CURVE"
);
},
{
closed = 1;
nodes = (
"457 8 OFFCURVE",
"405 6 OFFCURVE",
"353 6 CURVE",
"331 50 OFFCURVE",
"312 95 OFFCURVE",
"290 139 CURVE SMOOTH",
"268 182 OFFCURVE",
"239 218 OFFCURVE",
"213 258 CURVE",
"210 257 OFFCURVE",
"207 257 OFFCURVE",
"204 256 CURVE",
"200 236 OFFCURVE",
"198 208 OFFCURVE",
"198 178 CURVE SMOOTH",
"198 121 OFFCURVE",
"204 55 OFFCURVE",
"209 14 CURVE",
"184 5 OFFCURVE",
"156 3 OFFCURVE",
"128 3 CURVE SMOOTH",
"100 3 OFFCURVE",
"72 5 OFFCURVE",
"47 5 CURVE",
"49 19 OFFCURVE",
"50 33 OFFCURVE",
"50 48 CURVE SMOOTH",
"50 256 OFFCURVE",
"41 463 OFFCURVE",
"41 672 CURVE SMOOTH",
"41 680 OFFCURVE",
"40 687 OFFCURVE",
"39 695 CURVE",
"82 703 OFFCURVE",
"125 707 OFFCURVE",
"168 710 CURVE",
"166 710 LINE",
"188 711 OFFCURVE",
"210 713 OFFCURVE",
"232 713 CURVE SMOOTH",
"344 713 OFFCURVE",
"496 668 OFFCURVE",
"496 502 CURVE SMOOTH",
"496 410 OFFCURVE",
"438 311 OFFCURVE",
"338 311 CURVE",
"333 305 LINE",
"338 277 OFFCURVE",
"373 239 OFFCURVE",
"390 214 CURVE SMOOTH",
"434 147 OFFCURVE",
"479 81 OFFCURVE",
"509 8 CURVE"
);
},
{
closed = 1;
nodes = (
"175 544 LINE",
"175 538 OFFCURVE",
"174 532 OFFCURVE",
"174 526 CURVE SMOOTH",
"174 520 OFFCURVE",
"176 514 OFFCURVE",
"176 509 CURVE SMOOTH",
"176 498 OFFCURVE",
"173 481 OFFCURVE",
"173 466 CURVE SMOOTH",
"173 452 OFFCURVE",
"176 439 OFFCURVE",
"184 431 CURVE",
"202 431 OFFCURVE",
"230 426 OFFCURVE",
"256 426 CURVE SMOOTH",
"309 426 OFFCURVE",
"333 462 OFFCURVE",
"333 501 CURVE SMOOTH",
"333 544 OFFCURVE",
"301 580 OFFCURVE",
"248 580 CURVE SMOOTH",
"223 580 OFFCURVE",
"198 573 OFFCURVE",
"177 564 CURVE"
);
},
{
closed = 1;
nodes = (
"264 569 OFFCURVE",
"279 566 OFFCURVE",
"292 559 CURVE",
"313 546 OFFCURVE",
"324 522 OFFCURVE",
"324 498 CURVE SMOOTH",
"324 461 OFFCURVE",
"304 435 OFFCURVE",
"245 435 CURVE SMOOTH",
"224 435 OFFCURVE",
"202 438 OFFCURVE",
"188 441 CURVE",
"186 451 OFFCURVE",
"185 452 OFFCURVE",
"185 472 CURVE SMOOTH",
"185 486 OFFCURVE",
"186 505 OFFCURVE",
"186 521 CURVE SMOOTH",
"186 535 OFFCURVE",
"185 547 OFFCURVE",
"184 549 CURVE",
"184 555 LINE",
"203 563 OFFCURVE",
"226 569 OFFCURVE",
"249 569 CURVE SMOOTH"
);
}
);
width = 518;
}
);
note = R;
rightKerningGroup = R;
unicode = 0052;
},
{
glyphname = S;
layers = (
{
hints = (
{
horizontal = 1;
place = "{-11, 11}";
type = Stem;
},
{
horizontal = 1;
place = "{138, 10}";
type = Stem;
},
{
horizontal = 1;
place = "{202, 12}";
type = Stem;
},
{
horizontal = 1;
place = "{461, 9}";
type = Stem;
},
{
horizontal = 1;
place = "{540, 9}";
type = Stem;
},
{
horizontal = 1;
place = "{696, 9}";
type = Stem;
},
{
place = "{17, 10}";
type = Stem;
},
{
place = "{180, 10}";
type = Stem;
},
{
place = "{296, 11}";
type = Stem;
},
{
place = "{463, 9}";
type = Stem;
},
{
place = "{7, 10}";
type = Stem;
},
{
place = "{308, 11}";
type = Stem;
},
{
place = "{457, 10}";
type = Stem;
}
);
layerId = "C15651A9-B5F1-4E52-8FDA-4ECDAD7E1480";
paths = (
{
closed = 1;
nodes = (
"401 461 OFFCURVE",
"455 461 OFFCURVE",
"468 474 CURVE",
"470 492 OFFCURVE",
"472 509 OFFCURVE",
"472 526 CURVE SMOOTH",
"472 648 OFFCURVE",
"359 705 OFFCURVE",
"252 705 CURVE SMOOTH",
"107 705 OFFCURVE",
"17 600 OFFCURVE",
"17 471 CURVE SMOOTH",
"17 406 OFFCURVE",
"70 313 OFFCURVE",
"137 297 CURVE SMOOTH",
"193 283 OFFCURVE",
"296 279 OFFCURVE",
"296 200 CURVE SMOOTH",
"296 165 OFFCURVE",
"268 148 OFFCURVE",
"238 148 CURVE SMOOTH",
"206 148 OFFCURVE",
"173 167 OFFCURVE",
"170 207 CURVE",
"160 217 OFFCURVE",
"62 214 OFFCURVE",
"45 214 CURVE SMOOTH",
"22 214 OFFCURVE",
"7 215 OFFCURVE",
"7 188 CURVE SMOOTH",
"7 61 OFFCURVE",
"131 -11 OFFCURVE",
"247 -11 CURVE SMOOTH",
"363 -11 OFFCURVE",
"467 64 OFFCURVE",
"467 206 CURVE SMOOTH",
"467 308 OFFCURVE",
"397 399 OFFCURVE",
"274 432 CURVE SMOOTH",
"245 440 OFFCURVE",
"190 435 OFFCURVE",
"190 486 CURVE SMOOTH",
"190 524 OFFCURVE",
"221 540 OFFCURVE",
"246 540 CURVE SMOOTH",
"276 540 OFFCURVE",
"308 519 OFFCURVE",
"308 486 CURVE SMOOTH",
"308 483 OFFCURVE",
"308 480 OFFCURVE",
"307 476 CURVE",
"310 470 LINE",
"332 464 OFFCURVE",
"355 461 OFFCURVE",
"378 461 CURVE SMOOTH"
);
},
{
closed = 1;
nodes = (
"359 470 OFFCURVE",
"338 473 OFFCURVE",
"318 479 CURVE",
"319 489 LINE",
"319 526 OFFCURVE",
"281 549 OFFCURVE",
"245 549 CURVE SMOOTH",
"214 549 OFFCURVE",
"180 530 OFFCURVE",
"180 485 CURVE SMOOTH",
"180 416 OFFCURVE",
"278 426 OFFCURVE",
"320 406 CURVE SMOOTH",
"406 365 OFFCURVE",
"457 290 OFFCURVE",
"457 205 CURVE SMOOTH",
"457 70 OFFCURVE",
"357 0 OFFCURVE",
"247 0 CURVE SMOOTH",
"124 0 OFFCURVE",
"17 74 OFFCURVE",
"17 202 CURVE",
"30 204 OFFCURVE",
"44 204 OFFCURVE",
"57 204 CURVE SMOOTH",
"92 204 OFFCURVE",
"126 202 OFFCURVE",
"160 202 CURVE",
"163 159 OFFCURVE",
"201 138 OFFCURVE",
"237 138 CURVE SMOOTH",
"272 138 OFFCURVE",
"307 159 OFFCURVE",
"307 200 CURVE SMOOTH",
"307 291 OFFCURVE",
"198 292 OFFCURVE",
"138 307 CURVE SMOOTH",
"71 324 OFFCURVE",
"27 417 OFFCURVE",
"27 477 CURVE SMOOTH",
"27 596 OFFCURVE",
"118 696 OFFCURVE",
"249 696 CURVE SMOOTH",
"351 696 OFFCURVE",
"463 639 OFFCURVE",
"463 528 CURVE SMOOTH",
"463 512 OFFCURVE",
"461 495 OFFCURVE",
"458 478 CURVE",
"432 474 OFFCURVE",
"406 470 OFFCURVE",
"380 470 CURVE SMOOTH"
);
}
);
width = 485;
}
);
leftKerningGroup = S;
note = S;
rightKerningGroup = S;
unicode = 0053;
},
{
glyphname = Scaron;
layers = (
{
hints = (
{
horizontal = 1;
place = "{-11, 11}";
type = Stem;
},
{
horizontal = 1;
place = "{138, 10}";
type = Stem;
},
{
horizontal = 1;
place = "{202, 12}";
type = Stem;
},
{
horizontal = 1;
place = "{461, 9}";
type = Stem;
},
{
horizontal = 1;
place = "{540, 9}";
type = Stem;
},
{
horizontal = 1;
place = "{696, 9}";
type = Stem;
},
{
horizontal = 1;
place = "{745, 10}";
type = Stem;
},
{
horizontal = 1;
place = "{905, 12.5}";
type = Stem;
},
{
place = "{17, 10}";
type = Stem;
},
{
place = "{180, 10}";
type = Stem;
},
{
place = "{296, 11}";
type = Stem;
},
{
place = "{457, 10}";
type = Stem;
},
{
horizontal = 1;
place = "{911, 14}";
type = Stem;
},
{
place = "{308, 11}";
type = Stem;
},
{
place = "{463, 9}";
type = Stem;
},
{
place = "{7, 10}";
type = Stem;
}
);
layerId = "C15651A9-B5F1-4E52-8FDA-4ECDAD7E1480";
paths = (
{
closed = 1;
nodes = (
"248 745 OFFCURVE",
"250 745 OFFCURVE",
"253 745 CURVE",
"307 799 OFFCURVE",
"368 858 OFFCURVE",
"422 912 CURVE",
"323 925 LINE",
"283 925 OFFCURVE",
"272 897 OFFCURVE",
"246 871 CURVE",
"218 891 OFFCURVE",
"210 923 OFFCURVE",
"179 921 CURVE SMOOTH",
"78 914 LINE",
"125 853 OFFCURVE",
"188 796 OFFCURVE",
"246 744 CURVE"
);
},
{
closed = 1;
nodes = (
"184 911 LINE",
"187 910 OFFCURVE",
"194 911 OFFCURVE",
"201 904 CURVE",
"204 897 OFFCURVE",
"233 865 OFFCURVE",
"244 861 CURVE",
"275 877 OFFCURVE",
"275 911 OFFCURVE",
"324 911 CURVE SMOOTH",
"350 911 OFFCURVE",
"374 905 OFFCURVE",
"400 905 CURVE",
"349 855 OFFCURVE",
"299 805 OFFCURVE",
"249 755 CURVE",
"194 803 OFFCURVE",
"143 849 OFFCURVE",
"97 905 CURVE",
"124 904 OFFCURVE",
"150 909 OFFCURVE",
"174 911 CURVE"
);
},
{
closed = 1;
nodes = (
"310 470 LINE",
"332 464 OFFCURVE",
"355 461 OFFCURVE",
"378 461 CURVE SMOOTH",
"401 461 OFFCURVE",
"455 461 OFFCURVE",
"468 474 CURVE",
"470 492 OFFCURVE",
"472 509 OFFCURVE",
"472 526 CURVE SMOOTH",
"472 648 OFFCURVE",
"359 705 OFFCURVE",
"252 705 CURVE SMOOTH",
"107 705 OFFCURVE",
"17 600 OFFCURVE",
"17 471 CURVE SMOOTH",
"17 406 OFFCURVE",
"70 313 OFFCURVE",
"137 297 CURVE SMOOTH",
"193 283 OFFCURVE",
"296 279 OFFCURVE",
"296 200 CURVE SMOOTH",
"296 165 OFFCURVE",
"268 148 OFFCURVE",
"238 148 CURVE SMOOTH",
"206 148 OFFCURVE",
"173 167 OFFCURVE",
"170 207 CURVE",
"160 217 OFFCURVE",
"62 214 OFFCURVE",
"45 214 CURVE SMOOTH",
"22 214 OFFCURVE",
"7 215 OFFCURVE",
"7 188 CURVE SMOOTH",
"7 61 OFFCURVE",
"131 -11 OFFCURVE",
"247 -11 CURVE SMOOTH",
"363 -11 OFFCURVE",
"467 64 OFFCURVE",
"467 206 CURVE SMOOTH",
"467 308 OFFCURVE",
"397 399 OFFCURVE",
"274 432 CURVE SMOOTH",
"245 440 OFFCURVE",
"190 435 OFFCURVE",
"190 486 CURVE SMOOTH",
"190 524 OFFCURVE",
"221 540 OFFCURVE",
"246 540 CURVE SMOOTH",
"276 540 OFFCURVE",
"308 519 OFFCURVE",
"308 486 CURVE SMOOTH",
"308 483 OFFCURVE",
"308 480 OFFCURVE",
"307 476 CURVE"
);
},
{
closed = 1;
nodes = (
"214 549 OFFCURVE",
"180 530 OFFCURVE",
"180 485 CURVE SMOOTH",
"180 416 OFFCURVE",
"278 426 OFFCURVE",
"320 406 CURVE SMOOTH",
"406 365 OFFCURVE",
"457 290 OFFCURVE",
"457 205 CURVE SMOOTH",
"457 70 OFFCURVE",
"357 0 OFFCURVE",
"247 0 CURVE SMOOTH",
"124 0 OFFCURVE",
"17 74 OFFCURVE",
"17 202 CURVE",
"30 204 OFFCURVE",
"44 204 OFFCURVE",
"57 204 CURVE SMOOTH",
"92 204 OFFCURVE",
"126 202 OFFCURVE",
"160 202 CURVE",
"163 159 OFFCURVE",
"201 138 OFFCURVE",
"237 138 CURVE SMOOTH",
"272 138 OFFCURVE",
"307 159 OFFCURVE",
"307 200 CURVE SMOOTH",
"307 291 OFFCURVE",
"198 292 OFFCURVE",
"138 307 CURVE SMOOTH",
"71 324 OFFCURVE",
"27 417 OFFCURVE",
"27 477 CURVE SMOOTH",
"27 596 OFFCURVE",
"118 696 OFFCURVE",
"249 696 CURVE SMOOTH",
"351 696 OFFCURVE",
"463 639 OFFCURVE",
"463 528 CURVE SMOOTH",
"463 512 OFFCURVE",
"461 495 OFFCURVE",
"458 478 CURVE",
"432 474 OFFCURVE",
"406 470 OFFCURVE",
"380 470 CURVE SMOOTH",
"359 470 OFFCURVE",
"338 473 OFFCURVE",
"318 479 CURVE",
"319 489 LINE",
"319 526 OFFCURVE",
"281 549 OFFCURVE",
"245 549 CURVE SMOOTH"
);
}
);
width = 485;
}
);
leftKerningGroup = S;
note = Scaron;
rightKerningGroup = S;
unicode = 0160;
},
{
glyphname = T;
layers = (
{
hints = (
{
horizontal = 1;
place = "{-4, 12}";
type = Stem;
},
{
horizontal = 1;
place = "{535, 14}";
type = Stem;
},
{
horizontal = 1;
place = "{699, 10}";
type = Stem;
},
{
place = "{4, 7}";
type = Stem;
},
{
place = "{139, 7}";
type = Stem;
},
{
place = "{295, 10}";
type = Stem;
},
{
place = "{428, 10}";
type = Stem;
},
{
horizontal = 1;
place = "{538, 9}";
type = Stem;
},
{
horizontal = 1;
place = "{-1, 9}";
type = Stem;
}
);
layerId = "C15651A9-B5F1-4E52-8FDA-4ECDAD7E1480";
paths = (
{
closed = 1;
nodes = (
"5 703 LINE",
"6 703 LINE",
"3 686 OFFCURVE",
"4 669 OFFCURVE",
"4 653 CURVE SMOOTH",
"4 604 LINE SMOOTH",
"4 598 OFFCURVE",
"3 588 OFFCURVE",
"3 578 CURVE SMOOTH",
"3 556 OFFCURVE",
"5 537 OFFCURVE",
"26 537 CURVE SMOOTH",
"42 537 OFFCURVE",
"55 538 OFFCURVE",
"75 538 CURVE SMOOTH",
"94 538 OFFCURVE",
"120 533 OFFCURVE",
"136 525 CURVE",
"140 392 OFFCURVE",
"139 261 OFFCURVE",
"139 129 CURVE SMOOTH",
"139 91 OFFCURVE",
"136 53 OFFCURVE",
"136 15 CURVE SMOOTH",
"136 7 OFFCURVE",
"137 -2 OFFCURVE",
"144 -6 CURVE",
"159 -2 OFFCURVE",
"174 -1 OFFCURVE",
"190 -1 CURVE SMOOTH",
"216 -1 OFFCURVE",
"243 -4 OFFCURVE",
"269 -4 CURVE SMOOTH",
"285 -4 OFFCURVE",
"308 -3 OFFCURVE",
"312 6 CURVE",
"312 142 OFFCURVE",
"305 279 OFFCURVE",
"305 416 CURVE SMOOTH",
"305 455 OFFCURVE",
"307 495 OFFCURVE",
"307 535 CURVE",
"333 535 OFFCURVE",
"361 539 OFFCURVE",
"388 539 CURVE SMOOTH",
"402 539 OFFCURVE",
"415 538 OFFCURVE",
"428 535 CURVE",
"437 553 OFFCURVE",
"438 577 OFFCURVE",
"438 600 CURVE SMOOTH",
"438 702 LINE",
"297 715 OFFCURVE",
"150 709 OFFCURVE",
"10 709 CURVE"
);
},
{
closed = 1;
nodes = (
"408 549 OFFCURVE",
"392 549 OFFCURVE",
"376 549 CURVE SMOOTH",
"348 549 OFFCURVE",
"297 548 OFFCURVE",
"297 537 CURVE",
"297 538 LINE",
"296 538 OFFCURVE",
"295 528 OFFCURVE",
"295 522 CURVE SMOOTH",
"295 489 LINE SMOOTH",
"295 330 OFFCURVE",
"294 168 OFFCURVE",
"301 10 CURVE",
"287 7 OFFCURVE",
"273 6 OFFCURVE",
"259 6 CURVE SMOOTH",
"236 6 OFFCURVE",
"212 8 OFFCURVE",
"189 8 CURVE SMOOTH",
"175 8 OFFCURVE",
"161 8 OFFCURVE",
"147 5 CURVE",
"146 14 OFFCURVE",
"145 24 OFFCURVE",
"145 36 CURVE SMOOTH",
"145 68 OFFCURVE",
"149 106 OFFCURVE",
"149 130 CURVE SMOOTH",
"149 222 OFFCURVE",
"146 314 OFFCURVE",
"146 406 CURVE SMOOTH",
"146 437 OFFCURVE",
"148 500 OFFCURVE",
"148 523 CURVE SMOOTH",
"148 541 OFFCURVE",
"105 547 OFFCURVE",
"86 547 CURVE SMOOTH",
"73 547 OFFCURVE",
"59 546 OFFCURVE",
"46 546 CURVE SMOOTH",
"36 546 OFFCURVE",
"26 547 OFFCURVE",
"18 549 CURVE",
"13 559 OFFCURVE",
"11 590 OFFCURVE",
"11 622 CURVE SMOOTH",
"11 656 OFFCURVE",
"13 691 OFFCURVE",
"15 699 CURVE",
"153 699 OFFCURVE",
"289 703 OFFCURVE",
"427 690 CURVE",
"428 669 OFFCURVE",
"428 649 OFFCURVE",
"428 628 CURVE SMOOTH",
"428 601 OFFCURVE",
"427 573 OFFCURVE",
"424 546 CURVE"
);
},
{
closed = 1;
nodes = (
"300 543 LINE",
"299 542 LINE SMOOTH",
"298 541 OFFCURVE",
"298 540 OFFCURVE",
"298 540 CURVE"
);
}
);
width = 443;
}
);
leftKerningGroup = T;
note = T;
rightKerningGroup = T;
unicode = 0054;
},
{
glyphname = U;
layers = (
{
hints = (
{
horizontal = 1;
place = "{-22, 10}";
type = Stem;
},
{
horizontal = 1;
place = "{134, 11}";
type = Stem;
},
{
horizontal = 1;
place = "{665, 8}";
type = Stem;
},
{
place = "{30, 10}";
type = Stem;
},
{
place = "{172, 13}";
type = Stem;
},
{
place = "{313, 11.5}";
type = Stem;
},
{
place = "{468, 10}";
type = Stem;
},
{
horizontal = 1;
place = "{676, 12}";
type = Stem;
}
);
layerId = "C15651A9-B5F1-4E52-8FDA-4ECDAD7E1480";
paths = (
{
closed = 1;
nodes = (
"472 673 LINE",
"454 682 OFFCURVE",
"435 685 OFFCURVE",
"417 685 CURVE SMOOTH",
"389 685 OFFCURVE",
"338 683 OFFCURVE",
"318 673 CURVE",
"312 539 OFFCURVE",
"313 405 OFFCURVE",
"313 271 CURVE SMOOTH",
"313 170 OFFCURVE",
"301 145 OFFCURVE",
"254 145 CURVE SMOOTH",
"195 145 OFFCURVE",
"188 200 OFFCURVE",
"188 242 CURVE SMOOTH",
"188 255 OFFCURVE",
"189 268 OFFCURVE",
"189 276 CURVE SMOOTH",
"189 330 OFFCURVE",
"185 385 OFFCURVE",
"185 439 CURVE SMOOTH",
"185 518 OFFCURVE",
"187 596 OFFCURVE",
"187 675 CURVE",
"180 688 OFFCURVE",
"139 688 OFFCURVE",
"122 688 CURVE SMOOTH",
"99 688 OFFCURVE",
"41 689 OFFCURVE",
"37 678 CURVE",
"36 539 OFFCURVE",
"30 346 OFFCURVE",
"30 182 CURVE SMOOTH",
"30 152 OFFCURVE",
"32 123 OFFCURVE",
"40 102 CURVE SMOOTH",
"72 17 OFFCURVE",
"169 -22 OFFCURVE",
"256 -22 CURVE SMOOTH",
"319 -22 OFFCURVE",
"384 -6 OFFCURVE",
"433 65 CURVE SMOOTH",
"471 120 OFFCURVE",
"470 220 OFFCURVE",
"473 280 CURVE SMOOTH",
"476 348 OFFCURVE",
"478 415 OFFCURVE",
"478 483 CURVE SMOOTH",
"478 545 OFFCURVE",
"476 607 OFFCURVE",
"474 669 CURVE"
);
},
{
closed = 1;
nodes = (
"468 415 OFFCURVE",
"466 348 OFFCURVE",
"463 281 CURVE SMOOTH",
"458 173 OFFCURVE",
"465 -12 OFFCURVE",
"265 -12 CURVE SMOOTH",
"175 -12 OFFCURVE",
"71 29 OFFCURVE",
"49 106 CURVE SMOOTH",
"42 129 OFFCURVE",
"40 155 OFFCURVE",
"40 180 CURVE SMOOTH",
"40 347 OFFCURVE",
"46 507 OFFCURVE",
"46 675 CURVE",
"66 675 OFFCURVE",
"86 676 OFFCURVE",
"106 676 CURVE SMOOTH",
"130 676 OFFCURVE",
"153 675 OFFCURVE",
"177 671 CURVE",
"174 607 OFFCURVE",
"172 543 OFFCURVE",
"172 478 CURVE SMOOTH",
"172 429 OFFCURVE",
"173 380 OFFCURVE",
"176 331 CURVE SMOOTH",
"180 259 OFFCURVE",
"162 134 OFFCURVE",
"247 134 CURVE SMOOTH",
"306 134 OFFCURVE",
"316 169 OFFCURVE",
"321 236 CURVE",
"325 380 OFFCURVE",
"321 523 OFFCURVE",
"328 667 CURVE",
"357 667 OFFCURVE",
"387 675 OFFCURVE",
"416 675 CURVE SMOOTH",
"433 675 OFFCURVE",
"449 672 OFFCURVE",
"464 665 CURVE",
"466 604 OFFCURVE",
"468 543 OFFCURVE",
"468 482 CURVE SMOOTH"
);
}
);
width = 505;
}
);
leftKerningGroup = U;
note = U;
rightKerningGroup = U;
unicode = 0055;
},
{
glyphname = Uacute;
layers = (
{
hints = (
{
horizontal = 1;
place = "{-22, 10}";
type = Stem;
},
{
horizontal = 1;
place = "{134, 11}";
type = Stem;
},
{
horizontal = 1;
place = "{676, 12}";
type = Stem;
},
{
horizontal = 1;
place = "{741, 9}";
type = Stem;
},
{
place = "{30, 10}";
type = Stem;
},
{
place = "{172, 13}";
type = Stem;
},
{
place = "{313, 11.5}";
type = Stem;
},
{
place = "{412, 11}";
type = Stem;
},
{
place = "{468, 10}";
type = Stem;
},
{
place = "{180, 13}";
type = Stem;
},
{
horizontal = 1;
place = "{675, 10}";
type = Stem;
}
);
layerId = "C15651A9-B5F1-4E52-8FDA-4ECDAD7E1480";
paths = (
{
closed = 1;
nodes = (
"423 850 LINE",
"400 873 OFFCURVE",
"374 907 OFFCURVE",
"347 921 CURVE",
"286 871 OFFCURVE",
"239 808 OFFCURVE",
"180 758 CURVE",
"180 750 LINE",
"186 744 OFFCURVE",
"225 741 OFFCURVE",
"260 741 CURVE SMOOTH",
"297 741 OFFCURVE",
"317 743 OFFCURVE",
"322 748 CURVE",
"334 774 OFFCURVE",
"398 819 OFFCURVE",
"423 844 CURVE"
);
},
{
closed = 1;
nodes = (
"384 820 OFFCURVE",
"326 779 OFFCURVE",
"313 754 CURVE",
"298 751 OFFCURVE",
"282 750 OFFCURVE",
"265 750 CURVE SMOOTH",
"240 750 OFFCURVE",
"215 752 OFFCURVE",
"193 756 CURVE",
"247 806 OFFCURVE",
"293 864 OFFCURVE",
"350 910 CURVE",
"370 889 OFFCURVE",
"391 868 OFFCURVE",
"412 847 CURVE"
);
},
{
closed = 1;
nodes = (
"478 545 OFFCURVE",
"476 607 OFFCURVE",
"474 669 CURVE",
"474 670 LINE",
"460 683 OFFCURVE",
"437 685 OFFCURVE",
"419 685 CURVE SMOOTH",
"390 685 OFFCURVE",
"337 683 OFFCURVE",
"318 673 CURVE",
"312 539 OFFCURVE",
"313 405 OFFCURVE",
"313 271 CURVE SMOOTH",
"313 170 OFFCURVE",
"301 145 OFFCURVE",
"254 145 CURVE SMOOTH",
"195 145 OFFCURVE",
"188 200 OFFCURVE",
"188 242 CURVE SMOOTH",
"188 255 OFFCURVE",
"189 268 OFFCURVE",
"189 276 CURVE SMOOTH",
"189 330 OFFCURVE",
"185 385 OFFCURVE",
"185 439 CURVE SMOOTH",
"185 518 OFFCURVE",
"187 596 OFFCURVE",
"187 675 CURVE",
"180 688 OFFCURVE",
"139 688 OFFCURVE",
"122 688 CURVE SMOOTH",
"99 688 OFFCURVE",
"41 689 OFFCURVE",
"37 678 CURVE",
"36 539 OFFCURVE",
"30 346 OFFCURVE",
"30 182 CURVE SMOOTH",
"30 152 OFFCURVE",
"32 123 OFFCURVE",
"40 102 CURVE SMOOTH",
"72 17 OFFCURVE",
"169 -22 OFFCURVE",
"256 -22 CURVE SMOOTH",
"319 -22 OFFCURVE",
"384 -6 OFFCURVE",
"433 65 CURVE SMOOTH",
"471 120 OFFCURVE",
"470 220 OFFCURVE",
"473 280 CURVE SMOOTH",
"476 348 OFFCURVE",
"478 415 OFFCURVE",
"478 483 CURVE SMOOTH"
);
},
{
closed = 1;
nodes = (
"468 415 OFFCURVE",
"466 348 OFFCURVE",
"463 281 CURVE SMOOTH",
"458 173 OFFCURVE",
"465 -12 OFFCURVE",
"265 -12 CURVE SMOOTH",
"175 -12 OFFCURVE",
"71 29 OFFCURVE",
"49 106 CURVE SMOOTH",
"42 129 OFFCURVE",
"40 155 OFFCURVE",
"40 180 CURVE SMOOTH",
"40 347 OFFCURVE",
"46 507 OFFCURVE",
"46 675 CURVE",
"66 675 OFFCURVE",
"86 676 OFFCURVE",
"106 676 CURVE SMOOTH",
"130 676 OFFCURVE",
"153 675 OFFCURVE",
"177 671 CURVE",
"174 607 OFFCURVE",
"172 543 OFFCURVE",
"172 478 CURVE SMOOTH",
"172 429 OFFCURVE",
"173 380 OFFCURVE",
"176 331 CURVE SMOOTH",
"180 259 OFFCURVE",
"162 134 OFFCURVE",
"247 134 CURVE SMOOTH",
"306 134 OFFCURVE",
"316 169 OFFCURVE",
"321 236 CURVE",
"325 380 OFFCURVE",
"321 523 OFFCURVE",
"328 667 CURVE",
"357 667 OFFCURVE",
"388 675 OFFCURVE",
"418 675 CURVE SMOOTH",
"433 675 OFFCURVE",
"449 672 OFFCURVE",
"464 666 CURVE",
"466 605 OFFCURVE",
"468 543 OFFCURVE",
"468 482 CURVE SMOOTH"
);
}
);
width = 505;
}
);
leftKerningGroup = U;
note = Uacute;
rightKerningGroup = U;
unicode = 00DA;
},
